%FSLAX34Y34*%
%MOMM*%
%LNSMDMASK_TOP*%
G71*
G01*
%ADD10R, 2.00X0.60*%
%ADD11R, 1.50X1.50*%
%LPD*%
X332581Y-133190D02*
G54D10*
D03*
X332581Y-145890D02*
G54D10*
D03*
X332581Y-158590D02*
G54D10*
D03*
X332581Y-171290D02*
G54D10*
D03*
X332581Y-183990D02*
G54D10*
D03*
X332581Y-196690D02*
G54D10*
D03*
X332581Y-209390D02*
G54D10*
D03*
X332581Y-222090D02*
G54D10*
D03*
X332581Y-234790D02*
G54D10*
D03*
X332581Y-247490D02*
G54D10*
D03*
X332581Y-260190D02*
G54D10*
D03*
X332581Y-272890D02*
G54D10*
D03*
X332581Y-285590D02*
G54D10*
D03*
X332581Y-298290D02*
G54D10*
D03*
X332581Y-310990D02*
G54D10*
D03*
X332581Y-323690D02*
G54D10*
D03*
X426244Y-323690D02*
G54D10*
D03*
X426244Y-310990D02*
G54D10*
D03*
X426244Y-298290D02*
G54D10*
D03*
X426244Y-285590D02*
G54D10*
D03*
X426244Y-272890D02*
G54D10*
D03*
X426244Y-260190D02*
G54D10*
D03*
X426244Y-247490D02*
G54D10*
D03*
X426244Y-234790D02*
G54D10*
D03*
X426244Y-222090D02*
G54D10*
D03*
X426244Y-209390D02*
G54D10*
D03*
X426244Y-196690D02*
G54D10*
D03*
X426244Y-183990D02*
G54D10*
D03*
X426244Y-171290D02*
G54D10*
D03*
X426244Y-158590D02*
G54D10*
D03*
X426244Y-145890D02*
G54D10*
D03*
X426244Y-133190D02*
G54D10*
D03*
X477044Y-133190D02*
G54D10*
D03*
X477044Y-145890D02*
G54D10*
D03*
X477044Y-158590D02*
G54D10*
D03*
X477044Y-171290D02*
G54D10*
D03*
X477044Y-183990D02*
G54D10*
D03*
X477044Y-196690D02*
G54D10*
D03*
X477044Y-209390D02*
G54D10*
D03*
X477044Y-222090D02*
G54D10*
D03*
X477044Y-234790D02*
G54D10*
D03*
X477044Y-247490D02*
G54D10*
D03*
X477044Y-260190D02*
G54D10*
D03*
X477044Y-272890D02*
G54D10*
D03*
X477044Y-285590D02*
G54D10*
D03*
X477044Y-298290D02*
G54D10*
D03*
X477044Y-310990D02*
G54D10*
D03*
X477044Y-323690D02*
G54D10*
D03*
X570706Y-323690D02*
G54D10*
D03*
X570706Y-310990D02*
G54D10*
D03*
X570706Y-298290D02*
G54D10*
D03*
X570706Y-285590D02*
G54D10*
D03*
X570706Y-272890D02*
G54D10*
D03*
X570706Y-260190D02*
G54D10*
D03*
X570706Y-247490D02*
G54D10*
D03*
X570706Y-234790D02*
G54D10*
D03*
X570706Y-222090D02*
G54D10*
D03*
X570706Y-209390D02*
G54D10*
D03*
X570706Y-196690D02*
G54D10*
D03*
X570706Y-183990D02*
G54D10*
D03*
X570706Y-171290D02*
G54D10*
D03*
X570706Y-158590D02*
G54D10*
D03*
X570706Y-145890D02*
G54D10*
D03*
X570706Y-133190D02*
G54D10*
D03*
X626269Y-260190D02*
G54D10*
D03*
X626269Y-272890D02*
G54D10*
D03*
X626269Y-285590D02*
G54D10*
D03*
X626269Y-298290D02*
G54D10*
D03*
X626269Y-310990D02*
G54D10*
D03*
X626269Y-323690D02*
G54D10*
D03*
X626269Y-336390D02*
G54D10*
D03*
X680244Y-336390D02*
G54D10*
D03*
X680244Y-323690D02*
G54D10*
D03*
X680244Y-310990D02*
G54D10*
D03*
X680244Y-298290D02*
G54D10*
D03*
X680244Y-285590D02*
G54D10*
D03*
X680244Y-272890D02*
G54D10*
D03*
X680244Y-260190D02*
G54D10*
D03*
X626269Y-161764D02*
G54D10*
D03*
X626269Y-174464D02*
G54D10*
D03*
X626269Y-187164D02*
G54D10*
D03*
X626269Y-199864D02*
G54D10*
D03*
X626269Y-212564D02*
G54D10*
D03*
X626269Y-225264D02*
G54D10*
D03*
X626269Y-237964D02*
G54D10*
D03*
X680244Y-237964D02*
G54D10*
D03*
X680244Y-225264D02*
G54D10*
D03*
X680244Y-212564D02*
G54D10*
D03*
X680244Y-199864D02*
G54D10*
D03*
X680244Y-187164D02*
G54D10*
D03*
X680244Y-174464D02*
G54D10*
D03*
X680244Y-161764D02*
G54D10*
D03*
X1535603Y-34903D02*
G54D11*
D03*
X1535103Y-65403D02*
G54D11*
D03*
X1637103Y-69803D02*
G54D11*
D03*
X1636953Y-39823D02*
G54D11*
D03*
X1711503Y-35403D02*
G54D11*
D03*
X1711503Y-65403D02*
G54D11*
D03*
X1535603Y64897D02*
G54D11*
D03*
X1535103Y34397D02*
G54D11*
D03*
X1637103Y29997D02*
G54D11*
D03*
X1636953Y59977D02*
G54D11*
D03*
X1711503Y64397D02*
G54D11*
D03*
X1711503Y34397D02*
G54D11*
D03*
M02*
