; Drill file
; Format: 3.3 (000.000)
M48
METRIC
T01C0.3
T02C0.4
T03C0.5
T04C0.6
T05C0.7
T06C0.8
T07C1.0
T08C1.02
T09C1.2
%
G05
G90
T01
X152400Y-034760
X152400Y-034410
X152400Y-034060
X152400Y-033720
X152400Y-033380
X152400Y-033020
X152400Y-032680
X152400Y-032320
X152400Y-031980
X152400Y-031620
X152400Y-030550
X152400Y-030200
X152400Y-029850
X152400Y-029500
X152400Y-029150
X152400Y-028800
X152400Y-028450
X152400Y-028100
X152400Y-027750
X152400Y-027400
X152400Y-027050
X152400Y-026700
X152400Y-026350
X152400Y-026000
X152400Y-025650
X152400Y-025300
X152400Y-024950
X152400Y-024600
X152400Y-024250
X152400Y-023900
X152400Y-023550
X152400Y-023200
X152400Y-022850
X152400Y-022500
X152400Y-022150
X152400Y-021800
X152400Y-021450
X152400Y-021100
X152400Y-020750
X152400Y-020400
X152400Y-020050
X152400Y-019700
X152400Y-019350
X152400Y-019000
X152400Y-018650
X152400Y-018300
X152400Y-017950
X152400Y-017600
X152400Y-017250
X152400Y-016900
X152400Y-016550
X152400Y-016200
X152400Y-015850
X152400Y-015500
X152400Y-015150
X152400Y-014800
X152400Y-014450
X152400Y-014100
X152400Y-013750
X152400Y-013400
X152400Y-013050
X152400Y-012700
X152400Y-012350
X152400Y-012000
X152400Y-011650
X152400Y-011300
X152400Y-010950
X152400Y-010600
X152400Y-010250
X152400Y-009900
X152400Y-009550
X152400Y-009200
X152400Y-008850
X152400Y-008500
X152400Y-008150
X152400Y-007800
X152400Y-007450
X152400Y-007100
X152400Y-006750
X152400Y-006400
X152400Y-006050
X152400Y-005700
X152400Y-005350
X152400Y-005000
X152400Y-004650
X152400Y-004300
X152400Y-003950
X152400Y-003600
X152400Y-003250
X152400Y-002900
X152400Y-002550
X152400Y-002200
X152400Y-001850
X152400Y-001500
X152400Y-001150
X152400Y-000800
X152400Y-000450
X152400Y-000100
X152400Y000250
X152400Y000600
X152400Y000950
X152400Y001300
X152400Y001650
X152400Y002000
X152400Y002350
X152400Y002700
X152400Y003050
X152400Y003400
X152400Y003750
X152400Y004100
X152400Y004450
X152400Y004800
X152400Y005150
X152400Y005500
X152400Y005850
X152400Y006200
X152400Y006550
X152400Y006900
X152400Y007250
X152400Y007600
X152400Y007950
X152400Y008300
X152400Y008650
X152400Y009000
X152400Y009350
X152400Y009700
X172440Y009740
X172440Y009390
X172440Y009040
X172440Y008690
X172440Y008340
X172440Y007990
X172440Y007640
X172440Y007290
X172440Y006940
X172440Y006590
X172440Y006240
X172440Y005890
X172440Y005540
X172440Y005190
X172440Y004840
X172440Y004490
X172440Y004140
X172440Y003790
X172440Y003440
X172440Y003090
X172440Y002740
X172440Y002390
X172440Y002040
X172440Y001690
X172440Y001340
X172440Y000990
X172440Y000640
X172440Y000290
X172440Y-000060
X172440Y-000410
X172440Y-000760
X172440Y-001110
X172440Y-001460
X172440Y-001810
X172440Y-002160
X172440Y-002510
X172440Y-002860
X172440Y-003210
X172440Y-003560
X172440Y-003910
X172440Y-004260
X172440Y-004610
X172440Y-004960
X172440Y-005310
X172440Y-005660
X172440Y-006010
X172440Y-006360
X172440Y-006710
X172440Y-007060
X172440Y-007410
X172440Y-007760
X172440Y-008110
X172440Y-008460
X172440Y-008810
X172440Y-009160
X172440Y-009510
X172440Y-009870
X172390Y-010390
X172040Y-010390
X171690Y-010390
X171340Y-010390
X170990Y-010390
X170640Y-010390
X170290Y-010390
X169940Y-010390
X169590Y-010390
X169240Y-010390
X168890Y-010390
X168540Y-010390
X168190Y-010390
X167840Y-010390
X167490Y-010390
X167140Y-010390
X166790Y-010390
X166440Y-010390
X166090Y-010390
X165740Y-010390
X165390Y-010390
X165040Y-010390
X164690Y-010390
X164340Y-010390
X163990Y-010390
X163640Y-010390
X163290Y-010390
X162940Y-010390
X162590Y-010390
X162240Y-010390
X161890Y-010390
X161540Y-010390
X161190Y-010390
X160840Y-010390
X160490Y-010390
X160140Y-010390
X159790Y-010390
X159440Y-010390
X159090Y-010390
X158740Y-010390
X158390Y-010390
X158040Y-010390
X157690Y-010390
X157340Y-010390
X156990Y-010390
X156640Y-010390
X156290Y-010390
X155940Y-010390
X155590Y-010390
X155240Y-010390
X154890Y-010390
X154540Y-010390
X154190Y-010390
X153840Y-010390
X153490Y-010390
X153140Y-010390
X152790Y-010390
X172740Y-010390
X173090Y-010390
X173440Y-010390
X173790Y-010390
X174140Y-010390
X174490Y-010390
X174840Y-010390
X175190Y-010390
X175540Y-010390
X175890Y-010390
X176240Y-010390
X176590Y-010390
X176940Y-010390
X177290Y-010390
X177640Y-010390
X177990Y-010390
X178340Y-010390
X178690Y-010390
X179040Y-010390
X179390Y-010390
X180020Y-010420
X180020Y-010770
X180020Y-011120
X180020Y-011470
X180020Y-011820
X180020Y-012170
X180020Y-012520
X180020Y-012870
X180020Y-013220
X180020Y-013570
X180020Y-013920
X180020Y-014250
X180020Y-014600
X180020Y-014960
X180020Y-015310
X180020Y-015660
X180020Y-016010
X180020Y-016360
X180020Y-016710
X180020Y-017060
X180020Y-017390
X180020Y-017740
X180020Y-018090
X180020Y-018450
X180020Y-018800
X180020Y-019150
X180020Y-019500
X180020Y-019850
X180020Y-020200
X180020Y-020550
X180020Y-020900
X180020Y-021250
X180020Y-021600
X180020Y-021950
X180020Y-022300
X180020Y-022650
X180020Y-022980
X180020Y-023330
X180020Y-023690
X180020Y-024040
X180020Y-024390
X180020Y-024740
X180020Y-025090
X180020Y-025440
X180020Y-025790
X180020Y-026120
X180020Y-026470
X180020Y-026820
X180020Y-027190
X180020Y-027540
X180020Y-027890
X180020Y-028240
X180020Y-028590
X180020Y-028940
X180020Y-029290
X180020Y-029640
X180020Y-029970
X180020Y-030320
X180020Y-030670
X180020Y-031020
X180020Y-031370
X180020Y-031720
X180020Y-032070
X180020Y-032420
X180020Y-032770
X180020Y-033100
X180020Y-033450
X180020Y-033800
X180440Y-010390
X180790Y-010390
X181140Y-010390
X181490Y-010390
X181840Y-010390
X182190Y-010390
X182540Y-010390
X182890Y-010390
X183240Y-010390
X183590Y-010390
X183940Y-010390
X184290Y-010390
X184640Y-010390
X184990Y-010390
X185340Y-010390
X185690Y-010390
X186040Y-010390
X186390Y-010390
X186740Y-010390
X187090Y-010390
X187440Y-010390
X187790Y-010390
X188140Y-010390
X188490Y-010390
X188840Y-010390
X189190Y-010390
X189540Y-010390
X189890Y-010390
T02
X005000Y-023240
X016430Y-023240
X018420Y-022210
X019290Y-023000
X022220Y-020940
X025960Y-019990
X024130Y-015860
X032540Y-012450
X034770Y-011260
X035560Y-011810
X036350Y-014350
X034770Y-014590
X035560Y-017290
X036830Y-018640
X036830Y-019670
X040400Y-017610
X041040Y-015860
X040320Y-013320
X044450Y-014590
X044450Y-016180
X044450Y-017130
X044450Y-018400
X044450Y-019670
X040080Y-022210
X039370Y-023640
X040720Y-024750
X041040Y-027290
X041040Y-029830
X038100Y-031100
X035080Y-032370
X033260Y-033160
X036910Y-027920
X031430Y-026890
X031120Y-023720
X018890Y-032770
X031510Y-008320
X030880Y-005700
X026040Y-003710
X025560Y-002680
X023260Y-004430
X004680Y-006180
X004130Y-007370
X001430Y007240
X043890Y-000140
X044450Y-003790
X045120Y-010380
X045880Y-013320
X050400Y-017130
X049450Y-018400
X051120Y-020300
X049450Y-022210
X050240Y-024750
X051040Y-027290
X049450Y-028320
X049450Y-029830
X052550Y-029040
X052550Y-033760
X047700Y-033640
X055480Y-023480
X053660Y-022210
X061040Y-023800
X065640Y-026810
X066520Y-025150
X069770Y-031100
X065330Y-018400
X064290Y-018080
X066680Y-017450
X058820Y-013320
X055320Y-010460
X053660Y-010460
X052470Y-012370
X053660Y-014030
X055320Y002480
X062790Y000250
X074250Y011350
X074250Y012750
X068000Y017500
X064750Y029750
X069750Y041500
X078750Y041750
X082000Y047750
X088250Y049250
X095750Y049750
X097250Y058750
X086500Y067750
X082750Y060500
X069000Y052500
X054250Y046250
X052250Y049000
X047000Y059500
X074750Y079500
X112000Y072000
X123250Y073750
X125250Y075250
X121500Y062250
X139750Y070750
X153500Y075250
X156000Y067250
X156000Y053500
X156250Y042000
X152500Y038750
X158250Y033250
X156000Y028250
X142500Y029500
X142250Y031000
X133250Y032750
X128000Y037250
X137250Y020750
X098500Y029500
X097250Y021750
X091000Y025750
X083000Y027750
X091000Y039750
X092000Y012750
X097350Y003250
X093600Y-006750
X093350Y-015500
X100100Y-016750
X101350Y-019250
X046200Y004140
X011500Y049250
X008750Y051750
X182500Y034500
T03
X006350Y-002370
X010250Y019250
X044250Y062000
X088500Y057250
X107750Y063250
X111750Y059750
X116500Y043500
X140500Y059750
X064610Y-001650
X069770Y-033000
T04
X-004650Y010250
X-003950Y010250
X-003250Y010250
X-002550Y010250
X-001850Y010250
X-001150Y010250
X-000450Y010250
X000250Y010250
X000950Y010250
X001650Y010250
X002350Y010250
X003050Y010250
X003750Y010250
X004450Y010250
X005150Y010250
X005850Y010250
X006550Y010250
X007250Y010250
X007950Y010250
X008650Y010250
X009350Y010250
X010050Y010250
X010750Y010250
X011450Y010250
X012150Y010250
X012850Y010250
X013550Y010250
X014250Y010250
X014950Y010250
X015650Y010250
X016350Y010250
X017050Y010250
X017750Y010250
X018450Y010250
X019150Y010250
X019850Y010250
X020550Y010250
X021250Y010250
X021950Y010250
X022650Y010250
X023350Y010250
X024050Y010250
X024750Y010250
X025450Y010250
X026150Y010250
X026850Y010250
X027550Y010250
X028250Y010250
X028950Y010250
X029650Y010250
X030350Y010250
X031050Y010250
X031750Y010250
X032450Y010250
X033150Y010250
X033850Y010250
X034550Y010250
X035250Y010250
X035950Y010250
X036650Y010250
X037350Y010250
X038050Y010250
X038750Y010250
X039450Y010250
X040150Y010250
X040850Y010250
X041550Y010250
X042250Y010250
X042950Y010250
X043650Y010250
X044350Y010250
X045050Y010250
X045750Y010250
X046450Y010250
X047150Y010250
X047850Y010250
X048550Y010250
X049250Y010250
X049950Y010250
X050650Y010250
X051350Y010250
X052050Y010250
X052750Y010250
X053450Y010250
X054150Y010250
X054850Y010250
X055550Y010250
X056250Y010250
X056950Y010250
X057650Y010250
X058350Y010250
X059050Y010250
X059750Y010250
X060450Y010250
X061150Y010250
X061850Y010250
X062550Y010250
X063250Y010250
X063950Y010250
X064650Y010250
X065350Y010250
X066050Y010250
X066750Y010250
X067450Y010250
X068150Y010250
X068850Y010250
X069550Y010250
X070250Y010250
X070950Y010250
X071650Y010250
X072350Y010250
X073050Y010250
X073750Y010250
X073850Y009600
X073850Y008900
X073850Y008200
X073850Y007500
X073850Y006800
X073850Y006100
X073850Y005400
X073850Y004700
X073850Y004000
X073850Y003300
X073850Y002600
X073850Y001900
X073850Y001200
X073850Y000500
X073850Y-000200
X073850Y-000900
X073850Y-001600
X073850Y-002300
X073850Y-003000
X073850Y-003700
X073850Y-004400
X073850Y-005100
X073850Y-005800
X073850Y-006500
X073850Y-007200
X073850Y-007900
X073850Y-008600
X073850Y-009300
X073850Y-010000
X073850Y-010700
X073850Y-011400
X073850Y-012100
X073850Y-012800
X073850Y-013500
X073850Y-014200
X073850Y-014900
X073850Y-015600
X073850Y-016300
X073850Y-017000
X073850Y-017700
X073850Y-018400
X073850Y-019100
X073850Y-019800
X073850Y-020500
X073850Y-021200
X073850Y-021900
X073850Y-022600
X073850Y-023300
X073850Y-024000
X073850Y-024700
X073850Y-025400
X073850Y-026100
X073850Y-026800
X073850Y-027500
X073850Y-028200
X073850Y-028900
X073850Y-029600
X073850Y-030300
X073850Y-031000
X073850Y-031700
X073850Y-032400
X073850Y-033100
X073850Y-033800
X073850Y-034500
X074550Y-031150
X075250Y-031150
X075950Y-031150
X076650Y-031150
X077350Y-031150
X078000Y-031150
X078650Y-031150
X079350Y-031150
X080050Y-031150
X080750Y-031150
X081450Y-031150
X082150Y-031150
X082850Y-031150
X083550Y-031150
X084250Y-031150
X084950Y-031150
X085650Y-031150
X086350Y-031150
X087050Y-031150
X087750Y-031150
X088450Y-031150
X089150Y-031150
X089850Y-031150
X090550Y-031150
X091250Y-031150
X091950Y-031150
X092650Y-031150
X093350Y-031150
X094050Y-031150
X094750Y-031150
X095450Y-031150
X096150Y-031150
X096850Y-031150
X097550Y-031150
X098250Y-031150
X098950Y-031150
X099650Y-031150
X100350Y-031150
X101050Y-031150
X101750Y-031150
X102450Y-031150
X103150Y-031150
X103850Y-031150
X104550Y-031150
X105250Y-031150
X105950Y-031150
X106650Y-031150
X107350Y-031150
X108050Y-031150
X108750Y-031150
X109450Y-031150
X110150Y-031150
X110850Y-031150
X111550Y-031150
X112250Y-031150
X112950Y-031150
X113650Y-031150
X114350Y-031150
X115050Y-031150
X115750Y-031150
X116450Y-031150
X117150Y-031150
X117850Y-031150
X118550Y-031150
X119250Y-031150
X119950Y-031150
X120650Y-031150
X121350Y-031150
X122050Y-031150
X122750Y-031150
X123450Y-031150
X124150Y-031150
X124850Y-031150
X125550Y-031150
X126250Y-031150
X126950Y-031150
X127650Y-031150
X128350Y-031150
X129050Y-031150
X129750Y-031150
X130450Y-031150
X131150Y-031150
X131850Y-031150
X132550Y-031150
X133250Y-031150
X133950Y-031150
X134650Y-031150
X135350Y-031150
X136050Y-031150
X136750Y-031150
X137450Y-031150
X138150Y-031150
X138850Y-031150
X139550Y-031150
X140250Y-031150
X140950Y-031150
X141650Y-031150
X142350Y-031150
X143050Y-031150
X143750Y-031150
X144450Y-031150
X145150Y-031150
X145850Y-031150
X146550Y-031150
X147250Y-031150
X147950Y-031150
X148650Y-031150
X149350Y-031150
X150050Y-031150
X150750Y-031150
X151450Y-031150
X152150Y-031150
X155960Y-008810
X158460Y-008810
X160960Y-008810
X160960Y-001190
X160960Y001170
X158460Y001170
X158460Y-001190
X155960Y-001190
X155960Y001170
X155960Y008790
X155650Y010250
X154950Y010250
X154250Y010250
X153550Y010250
X152850Y010250
X152150Y010250
X151450Y010250
X150750Y010250
X150050Y010250
X149350Y010250
X148650Y010250
X147950Y010250
X147250Y010250
X146550Y010250
X145850Y010250
X145150Y010250
X144450Y010250
X143750Y010250
X143050Y010250
X142350Y010250
X141650Y010250
X140950Y010250
X140250Y010250
X139550Y010250
X138850Y010250
X138150Y010250
X137450Y010250
X136750Y010250
X136050Y010250
X135350Y010250
X134650Y010250
X133950Y010250
X133250Y010250
X132550Y010250
X131850Y010250
X131150Y010250
X130450Y010250
X129750Y010250
X129050Y010250
X128350Y010250
X127650Y010250
X126950Y010250
X126250Y010250
X125550Y010250
X124850Y010250
X124150Y010250
X123450Y010250
X122750Y010250
X122050Y010250
X121350Y010250
X120650Y010250
X119950Y010250
X119250Y010250
X118550Y010250
X117850Y010250
X117150Y010250
X116450Y010250
X115750Y010250
X115050Y010250
X114350Y010250
X113650Y010250
X112950Y010250
X112250Y010250
X111550Y010250
X110850Y010250
X110150Y010250
X109450Y010250
X108750Y010250
X108050Y010250
X107350Y010250
X106650Y010250
X105950Y010250
X105250Y010250
X104550Y010250
X103850Y010250
X103150Y010250
X102450Y010250
X101750Y010250
X101050Y010250
X100350Y010250
X099650Y010250
X098950Y010250
X098250Y010250
X097550Y010250
X096850Y010250
X096150Y010250
X095450Y010250
X094750Y010250
X094050Y010250
X093350Y010250
X092650Y010250
X091950Y010250
X091250Y010250
X090550Y010250
X089850Y010250
X089150Y010250
X088450Y010250
X087750Y010250
X087050Y010250
X086350Y010250
X085650Y010250
X084950Y010250
X084250Y010250
X083550Y010250
X082850Y010250
X082150Y010250
X081450Y010250
X080750Y010250
X080050Y010250
X079350Y010250
X078650Y010250
X077950Y010250
X077250Y010250
X076550Y010250
X075850Y010250
X075150Y010250
X074450Y010250
X156350Y010250
X157050Y010250
X157750Y010250
X158450Y010250
X159150Y010250
X159850Y010250
X160550Y010250
X161250Y010250
X161950Y010250
X162650Y010250
X163350Y010250
X164050Y010250
X164750Y010250
X165450Y010250
X166150Y010250
X166850Y010250
X167550Y010250
X168250Y010250
X168950Y010250
X169650Y010250
X170350Y010250
X171050Y010250
X171750Y010250
X172450Y010250
X173150Y010250
X173850Y010250
X174550Y010250
X175250Y010250
X175950Y010250
X176650Y010250
X177350Y010250
X178050Y010250
X178750Y010250
X179450Y010250
X180150Y010250
X180850Y010250
X181550Y010250
X182250Y010250
X182950Y010250
X183650Y010250
X184350Y010250
X185050Y010250
X185750Y010250
X186450Y010250
X187150Y010250
X187850Y010250
X188550Y010250
X189250Y010250
X160960Y008790
X158460Y008790
T05
X-003000Y017250
X001750Y019250
X001750Y020750
X001750Y022250
X001750Y027250
X001750Y032000
X002000Y036750
X002000Y039250
X002250Y042750
X007500Y042750
X007500Y040000
X013000Y040000
X013000Y037500
X013000Y035000
X013000Y032500
X013000Y030000
X013000Y027500
X013000Y025000
X013000Y022500
X013000Y020000
X013000Y017500
X007500Y017250
X007500Y027250
X007500Y030000
X-003000Y029750
X-003000Y027250
X-003000Y040000
X002250Y052750
X002500Y056750
X007500Y056750
X007500Y052750
X013000Y045000
X013000Y042500
X028250Y042500
X028250Y045000
X028250Y040000
X028250Y037500
X028250Y035000
X028250Y032500
X028250Y030000
X028250Y027500
X028250Y025000
X028250Y022500
X028250Y020000
X028250Y017500
X031250Y017250
X036000Y017250
X039750Y017250
X044500Y017250
X045750Y022500
X045750Y025000
X045750Y027500
X045750Y030000
X045750Y032500
X045750Y035000
X045750Y037500
X045750Y040000
X045750Y045250
X042000Y045250
X038000Y045250
X033250Y045250
X033250Y047750
X038000Y050250
X042000Y050250
X045750Y050250
X051000Y050250
X051000Y047750
X051000Y045250
X051000Y042500
X051000Y040000
X051000Y037500
X051000Y035000
X051000Y032500
X051000Y030000
X051000Y027500
X051000Y025000
X051000Y022500
X051000Y020000
X051000Y017500
X038000Y022500
X038000Y025000
X038000Y027500
X038000Y030000
X038000Y032500
X038000Y035000
X038000Y037500
X038000Y040000
X033250Y035000
X033250Y032500
X033250Y022500
X028000Y050500
X033250Y058000
X045750Y055750
X045750Y060750
X043000Y071250
X040500Y071250
X038000Y071250
X038000Y076250
X040500Y076250
X043000Y076250
X053500Y076250
X061000Y076250
X061000Y068500
X053500Y068500
X069500Y066500
X071000Y070750
X072250Y076000
X077000Y076000
X078500Y070750
X079500Y066500
X083500Y066500
X077000Y061250
X074500Y061250
X072000Y061250
X079500Y052750
X079500Y047750
X089750Y047750
X093000Y047750
X093000Y052750
X089750Y052750
X103250Y052750
X103250Y047750
X107750Y047000
X107750Y043500
X107750Y036000
X112750Y036000
X115250Y036000
X117750Y036000
X120250Y036000
X123000Y036000
X125500Y036000
X128000Y036000
X130500Y036000
X133000Y036000
X135500Y036000
X138250Y036000
X140750Y036000
X143250Y036000
X145750Y036000
X148250Y036000
X150750Y036000
X153500Y036000
X156000Y036000
X158500Y036000
X161000Y036000
X164500Y038250
X167500Y035750
X175250Y035750
X177500Y035750
X188000Y035750
X187500Y051750
X177250Y051750
X174750Y051750
X164500Y051750
X164500Y048250
X161000Y051250
X158500Y051250
X156000Y051250
X153500Y051250
X150750Y051250
X148250Y051250
X145750Y051250
X143250Y051250
X140750Y051250
X138250Y051250
X135500Y051250
X133000Y051250
X130500Y051250
X128000Y051250
X125500Y051250
X123000Y051250
X120250Y051250
X117750Y051250
X115250Y051250
X112750Y051250
X107750Y057250
X107750Y059750
X107750Y067500
X107750Y070750
X103500Y067000
X098500Y069750
X093500Y066500
X103500Y077000
X107750Y077000
X117750Y066250
X127750Y066250
X132000Y065750
X136750Y063250
X141750Y065750
X141750Y055750
X136750Y056250
X132000Y055750
X135000Y077250
X138500Y077250
X165250Y077000
X165250Y067000
X147150Y-006500
X147150Y-007750
X147150Y-009000
X147150Y-012500
X147150Y-013750
X147150Y-015000
X147150Y-019250
X147150Y-020500
X147150Y-021750
X147150Y-025500
X147150Y-026750
X147150Y-028000
X141600Y-028000
X141600Y-026750
X141600Y-025500
X141600Y-021750
X141600Y-020500
X141600Y-019250
X141600Y-015000
X141600Y-013750
X141600Y-012500
X141600Y-009000
X141600Y-007750
X141600Y-006500
X154910Y-011660
X157410Y-011660
X159910Y-011660
X162410Y-011660
X164910Y-011660
X167410Y-011660
X169910Y-011660
X172410Y-011660
X174910Y-011660
X177410Y-011660
X181640Y-011790
X181640Y-013540
X184140Y-013540
X184140Y-011790
X186640Y-011790
X186640Y-013540
X186640Y-021540
X186640Y-023540
X184140Y-023540
X184140Y-021540
X181640Y-021540
X181640Y-023540
X184140Y-026040
X184140Y-028540
X184140Y-031540
X181640Y-031540
X186640Y-031540
X188890Y-031540
X189140Y-021540
X177410Y-020160
X174910Y-020160
X172410Y-020160
X169910Y-020160
X167410Y-020160
X164910Y-020160
X162410Y-020160
X159910Y-020160
X157410Y-020160
X154910Y-020160
X066250Y017500
X066250Y020000
X066250Y022500
X066250Y025000
X066250Y027500
X066250Y030000
X066250Y032500
X066250Y035000
X066250Y037500
X066250Y040000
X066250Y042500
X066250Y045250
X066250Y047750
X066250Y050250
X007500Y067000
X002500Y067000
X-002250Y065500
X-002500Y061250
X-002500Y056500
X-002250Y070000
X002000Y072000
X006750Y072000
T06
X008180Y-031970
X008180Y-029430
X008180Y-027050
X012620Y-027290
X012620Y-024750
X012620Y-022210
X012620Y-019670
X012620Y-017130
X012620Y-014590
X012620Y-012050
X012620Y-009510
X012620Y-006970
X012620Y-004430
X012620Y-001890
X012620Y000650
X012620Y003190
X012620Y005730
X008180Y-000620
X008180Y-003160
X008180Y-005700
X008180Y-010780
X008180Y-013320
X008180Y-015860
X008180Y-019030
X012620Y-029830
X012620Y-032370
X027860Y-032370
X027860Y-029830
X027860Y-027290
X027860Y-024750
X027860Y-022210
X027860Y-019670
X027860Y-017130
X027860Y-014590
X027860Y-012050
X027860Y-009510
X027860Y-006970
X027860Y-004430
X027860Y-001890
X027860Y000650
X027860Y003190
X027860Y005730
X031190Y005730
X033730Y005730
X036270Y005730
X038810Y005730
X041350Y005730
X043890Y005730
X046430Y005730
X048970Y005730
X048970Y-001890
X046430Y-001890
X043890Y-001890
X041350Y-001890
X038810Y-001890
X036270Y-001890
X033730Y-001890
X031190Y-001890
X032620Y-006970
X032620Y-009510
X039290Y-009510
X039290Y-006970
X046990Y-006970
X046990Y-009510
X075850Y-010500
X075850Y-008000
X075850Y-005500
X075850Y-003000
X075850Y-000500
X079850Y004000
X082350Y006500
X086100Y006500
X087350Y002000
X087350Y-000500
X087350Y-003000
X087350Y-005500
X087350Y-008000
X087350Y-010500
X087350Y-013000
X087350Y-015500
X083600Y-015500
X083600Y-013000
X083600Y-010500
X083600Y-008000
X083600Y-005500
X083600Y-003000
X083600Y-000500
X077100Y006500
X081000Y024250
X083500Y024250
X086000Y024250
X088500Y024250
X091000Y024250
X093500Y024250
X096000Y024250
X098500Y024250
X104750Y024250
X107250Y024250
X109750Y024250
X112250Y024250
X114750Y024250
X117250Y024250
X119750Y024250
X122250Y024250
X124750Y024250
X127250Y024250
X129750Y024250
X132250Y024250
X138500Y024250
X141000Y024250
X143500Y024250
X146000Y024250
X148500Y024250
X151000Y024250
X153500Y024250
X156000Y024250
X158500Y024250
X161000Y024250
X167500Y024250
X170000Y024250
X172500Y024250
X175000Y024250
X177500Y024250
X180000Y024250
X182500Y024250
X185000Y024250
X185000Y031750
X182500Y031750
X180000Y031750
X177500Y031750
X175000Y031750
X172500Y031750
X170000Y031750
X167500Y031750
X161000Y031750
X158500Y031750
X156000Y031750
X153500Y031750
X151000Y031750
X148500Y031750
X146000Y031750
X143500Y031750
X141000Y031750
X138500Y031750
X132250Y031750
X129750Y031750
X127250Y031750
X124750Y031750
X122250Y031750
X119750Y031750
X117250Y031750
X114750Y031750
X112250Y031750
X109750Y031750
X107250Y031750
X104750Y031750
X098500Y031750
X096000Y031750
X093500Y031750
X091000Y031750
X088500Y031750
X086000Y031750
X083500Y031750
X081000Y031750
X081000Y036000
X083500Y036000
X086000Y036000
X088500Y036000
X091000Y036000
X093500Y036000
X096000Y036000
X098500Y036000
X098500Y043500
X096000Y043500
X093500Y043500
X091000Y043500
X088500Y043500
X086000Y043500
X083500Y043500
X081000Y043500
X083500Y055750
X086000Y055750
X088500Y055750
X091000Y055750
X093500Y055750
X096000Y055750
X098500Y055750
X098500Y063250
X096000Y063250
X093500Y063250
X091000Y063250
X088500Y063250
X086000Y063250
X083500Y063250
X083500Y069750
X086000Y069750
X088500Y069750
X091000Y069750
X093500Y069750
X096000Y069750
X096000Y077250
X093500Y077250
X091000Y077250
X088500Y077250
X086000Y077250
X083500Y077250
X098500Y077250
X112750Y077250
X115250Y077250
X117750Y077250
X120250Y077250
X122750Y077250
X125250Y077250
X127750Y077250
X127750Y069750
X125250Y069750
X122750Y069750
X120250Y069750
X117750Y069750
X115250Y069750
X112750Y069750
X112750Y063250
X115250Y063250
X117750Y063250
X120250Y063250
X122750Y063250
X125250Y063250
X127750Y063250
X127750Y055750
X125250Y055750
X122750Y055750
X120250Y055750
X117750Y055750
X115250Y055750
X112750Y055750
X146000Y055750
X148500Y055750
X151000Y055750
X153500Y055750
X156000Y055750
X158500Y055750
X161000Y055750
X167500Y055750
X170000Y055750
X172500Y055750
X175000Y055750
X177500Y055750
X180000Y055750
X182500Y055750
X185000Y055750
X185000Y063250
X182500Y063250
X180000Y063250
X177500Y063250
X175000Y063250
X172500Y063250
X170000Y063250
X167500Y063250
X161000Y063250
X158500Y063250
X156000Y063250
X153500Y063250
X151000Y063250
X148500Y063250
X146000Y063250
X146000Y069750
X148500Y069750
X151000Y069750
X153500Y069750
X156000Y069750
X158500Y069750
X161000Y069750
X161000Y077250
X158500Y077250
X156000Y077250
X153500Y077250
X151000Y077250
X148500Y077250
X146000Y077250
X170000Y077250
X172500Y077250
X175000Y077250
X177500Y077250
X180000Y077250
X182500Y077250
X185000Y077250
X185000Y069750
X182500Y069750
X180000Y069750
X177500Y069750
X175000Y069750
X172500Y069750
X170000Y069750
X170000Y047250
X172500Y047250
X175000Y047250
X177500Y047250
X180000Y047250
X182500Y047250
X185000Y047250
X185000Y039750
X182500Y039750
X180000Y039750
X177500Y039750
X175000Y039750
X172500Y039750
X170000Y039750
X173870Y008730
X176410Y008730
X178950Y008730
X181490Y008730
X181490Y006190
X178950Y006190
X176410Y006190
X173870Y006190
X173870Y003650
X176410Y003650
X178950Y003650
X181490Y003650
X181490Y001110
X178950Y001110
X176410Y001110
X173870Y001110
X173870Y-001430
X176410Y-001430
X178950Y-001430
X181490Y-001430
X181490Y-003970
X178950Y-003970
X176410Y-003970
X173870Y-003970
X173870Y-006510
X176410Y-006510
X178950Y-006510
X181490Y-006510
X181490Y-009050
X178950Y-009050
X176410Y-009050
X173870Y-009050
X171150Y-008820
X163710Y-008810
X163710Y001170
X171150Y001160
X184030Y001110
X184030Y003650
X184030Y006190
X184030Y008730
X186570Y008730
X186570Y006190
X186570Y003650
X186570Y001110
X186570Y-001430
X184030Y-001430
X184030Y-003970
X186570Y-003970
X186570Y-006510
X184030Y-006510
X184030Y-009050
X186570Y-009050
X177410Y-023160
X174910Y-023160
X174910Y-025660
X177410Y-025660
X177410Y-028160
X174910Y-028160
X172410Y-028160
X172410Y-025660
X172410Y-023160
X169910Y-023160
X169910Y-025660
X167410Y-025660
X167410Y-023160
X164910Y-023160
X162410Y-023160
X162410Y-025660
X159910Y-025660
X159910Y-028160
X157410Y-028160
X154910Y-028160
X154910Y-025660
X154910Y-023160
X157410Y-023160
X159910Y-023160
X157410Y-025660
X162410Y-028160
X164910Y-028160
X167410Y-028160
X169910Y-028160
X169910Y-031160
X172410Y-031160
X174910Y-031160
X177410Y-031160
X167410Y-031160
X164910Y-031160
X162410Y-031160
X159910Y-031160
X164910Y-025660
X150350Y-028000
X150350Y-020500
X150350Y-017250
X150350Y-010000
X150350Y-007500
X153550Y-008810
X153550Y-001190
X153550Y001170
X150350Y000250
X147100Y-003000
X139350Y-003000
X136850Y-003000
X136850Y-000500
X136850Y-005500
X136850Y-008000
X136850Y-010500
X136850Y-013000
X136850Y-015500
X136850Y-018000
X136850Y-020500
X136850Y-023000
X136850Y-025500
X136850Y-028000
X129350Y-028000
X129350Y-025500
X129350Y-023000
X129350Y-020500
X129350Y-018000
X129350Y-015500
X129350Y-013000
X129350Y-010500
X129350Y-008000
X129350Y-005500
X129350Y-003000
X129350Y-000500
X125350Y-005500
X125350Y-008000
X125350Y-010500
X125350Y-013000
X125350Y-015500
X125350Y-018000
X125350Y-020500
X125350Y-023000
X125350Y-025500
X125350Y-028000
X117850Y-028000
X117850Y-025500
X117850Y-023000
X117850Y-020500
X117850Y-018000
X117850Y-015500
X117850Y-013000
X117850Y-010500
X117850Y-008000
X117850Y-005500
X114100Y-005500
X114100Y-008000
X114100Y-010500
X114100Y-013000
X114100Y-015500
X114100Y-018000
X114100Y-020500
X114100Y-023000
X114100Y-025500
X114100Y-028000
X098850Y-028000
X098850Y-025500
X098850Y-023000
X098850Y-020500
X098850Y-018000
X098850Y-015500
X098850Y-013000
X098850Y-010500
X098850Y-008000
X098850Y-005500
X098850Y-003000
X098850Y-000500
X098850Y002000
X098850Y004500
X096350Y006500
X095100Y002000
X095100Y-000500
X095100Y-003000
X095100Y-005500
X095100Y-008000
X095100Y-010500
X095100Y-013000
X095100Y-015500
X093600Y-020500
X091100Y-020500
X088600Y-020500
X086100Y-020500
X083600Y-020500
X081100Y-020500
X078600Y-020500
X075850Y-020500
X075850Y-015500
X075850Y-013000
X075850Y-028000
X078600Y-028000
X081100Y-028000
X083600Y-028000
X086100Y-028000
X088600Y-028000
X091100Y-028000
X093600Y-028000
X114100Y-003000
X114100Y-000500
X114100Y002000
X114100Y004500
X153550Y008790
X066000Y055750
X063500Y055750
X061000Y055750
X058500Y055750
X056000Y055750
X053500Y055750
X051000Y055750
X051000Y063250
X053500Y063250
X056000Y063250
X058500Y063250
X061000Y063250
X063500Y063250
X066000Y063250
X028000Y058000
X025500Y058000
X023000Y058000
X020500Y058000
X018000Y058000
X015500Y058000
X013000Y058000
X013000Y050500
X015500Y050500
X018000Y050500
X020500Y050500
X023000Y050500
X025500Y050500
X-001000Y052750
X-003750Y052750
T07
X008180Y003190
X008180Y005730
X093500Y013750
X093500Y016250
X096000Y016250
X096000Y013750
X098500Y013750
X098500Y016250
X101000Y016250
X101000Y013750
X103500Y013750
X103500Y016250
X106000Y016250
X108500Y016250
X108500Y013750
X106000Y013750
X106000Y018750
X108500Y018750
X111000Y018750
X111000Y016250
X111000Y013750
X113500Y013750
X113500Y016250
X116000Y016250
X116000Y013750
X118500Y013750
X118500Y016250
X121000Y016250
X123500Y016250
X123500Y013750
X121000Y013750
X121000Y018750
X123500Y018750
X126000Y018750
X126000Y016250
X128500Y016250
X128500Y013750
X126000Y013750
X131000Y013750
X131000Y016250
X133500Y016250
X133500Y013750
X136000Y013750
X136000Y016250
X138500Y016250
X141000Y016250
X141000Y013750
X138500Y013750
X138500Y018750
X141000Y018750
X143500Y018750
X143500Y016250
X143500Y013750
X146000Y013750
X146000Y016250
X148500Y016250
X148500Y013750
X151000Y013750
X151000Y016250
X153500Y016250
X156000Y016250
X156000Y013750
X153500Y013750
X153500Y018750
X156000Y018750
X158500Y018750
X158500Y016250
X158500Y013750
X161000Y013750
X161000Y016250
X163500Y016250
X163500Y013750
X166000Y013750
X166000Y016250
X168500Y016250
X171000Y016250
X171000Y013750
X168500Y013750
X168500Y018750
X171000Y018750
X166000Y018750
X163500Y018750
X161000Y018750
X151000Y018750
X148500Y018750
X146000Y018750
X136000Y018750
X133500Y018750
X131000Y018750
X128500Y018750
X118500Y018750
X116000Y018750
X113500Y018750
X103500Y018750
X101000Y018750
X098500Y018750
X096000Y018750
X093500Y018750
X169360Y007540
X169360Y004990
X169360Y002490
X169360Y-002440
X169360Y-004990
X169360Y-007490
T08
X-002300Y-024850
X000200Y-024850
X000200Y-022350
X000200Y-019850
X000200Y-017350
X000200Y-014850
X000200Y-012350
X000200Y-009900
X-002300Y-009900
X-002300Y-012350
X-002300Y-014850
X-002300Y-017350
X-002300Y-019850
X-002300Y-022350
X002700Y-022350
X002700Y-024850
X002700Y-019850
X002700Y-017350
X002700Y-014850
X002700Y-012350
X002700Y-009900
X002700Y-007350
X000200Y-007350
X000200Y-004850
X000200Y-002350
X-002300Y-002350
X-002300Y-004850
X-002300Y-007350
X002700Y-004850
X002700Y-002350
X038000Y055750
X038000Y058250
X038000Y060750
X038000Y063250
X038000Y065750
X040500Y065750
X040500Y063250
X040500Y060750
X040500Y058250
X040500Y055750
X073000Y054250
X075500Y054250
X075500Y051750
X073000Y051750
X073000Y049250
X075500Y049250
X075500Y046750
X073000Y046750
X073000Y044000
X075500Y044000
X075500Y041500
X073000Y041500
X073000Y039000
X075500Y039000
X075500Y036500
X073000Y036500
X073000Y034000
X075500Y034000
X075500Y031500
X073000Y031500
X073000Y029000
X075500Y029000
X075500Y026250
X073000Y026250
X073000Y023750
X075500Y023750
X075500Y021250
X073000Y021250
X073000Y018750
X075500Y018750
X075500Y016250
X073000Y016250
X073000Y013750
X075500Y013750
X120350Y004750
X122850Y004750
X122850Y-000500
X120350Y-000500
X129100Y004750
X131600Y004750
X134100Y004750
X136600Y004750
X139100Y004750
X141850Y004750
X144350Y004750
X146850Y004750
X149350Y004750
T09
X052890Y007270
X067380Y-007220
X030500Y070500
X010000Y070500
M30
