%FSLAX34Y34*%
%MOMM*%
%LNCOPPER_TOP*%
G71*
G01*
%ADD10C, 0.20*%
%ADD11C, 0.50*%
%ADD12C, 0.40*%
%ADD13C, 0.70*%
%ADD14C, 0.80*%
%ADD15C, 1.90*%
%ADD16C, 1.40*%
%ADD17C, 1.40*%
%ADD18C, 1.60*%
%ADD19C, 1.50*%
%ADD20C, 1.60*%
%ADD21C, 1.00*%
%ADD22C, 0.25*%
%ADD23C, 1.50*%
%ADD24C, 1.60*%
%ADD25C, 0.60*%
%ADD26R, 2.00X0.60*%
%ADD27C, 1.30*%
%ADD28R, 1.50X1.50*%
%ADD29C, 1.80*%
%ADD30C, 0.80*%
%ADD31C, 1.80*%
%LPD*%
G54D10*
X510000Y477500D02*
X495000Y462500D01*
X495000Y390000D01*
X490000Y385000D01*
X292500Y385000D01*
X282500Y375000D01*
G54D10*
X1457500Y360000D02*
X1447500Y350000D01*
X1370000Y350000D01*
X1367500Y352500D01*
X1367500Y395000D01*
X1365000Y397500D01*
X910000Y397500D01*
X905000Y402500D01*
X695000Y402500D01*
X685000Y412500D01*
X592500Y412500D01*
X542500Y462500D01*
G54D10*
X882500Y492500D02*
X790000Y492500D01*
X777500Y480000D01*
X715000Y480000D01*
X705000Y490000D01*
X522500Y490000D01*
X482500Y490000D01*
X475000Y482500D01*
X475000Y395000D01*
X470000Y390000D01*
X270000Y390000D01*
X267500Y387500D01*
X267500Y365000D01*
X282500Y350000D01*
G54D10*
X1510000Y242500D02*
X1532500Y220000D01*
X1657500Y220000D01*
X1660000Y217500D01*
X1660000Y187500D01*
G54D10*
X1432500Y360000D02*
X1447500Y375000D01*
X1467500Y375000D01*
X1470000Y372500D01*
X1470000Y347500D01*
X1467500Y345000D01*
X1345000Y345000D01*
X1342500Y347500D01*
X1342500Y370000D01*
X1340000Y372500D01*
X1297500Y372500D01*
X1292500Y367500D01*
X1292500Y350000D01*
X1290000Y347500D01*
X897500Y347500D01*
X885000Y360000D01*
G54D10*
X1407500Y360000D02*
X1407500Y450000D01*
X1405000Y452500D01*
X1255000Y452500D01*
X1252500Y455000D01*
X1065000Y455000D01*
X1062500Y457500D01*
X1062500Y485000D01*
X1057500Y490000D01*
X947500Y490000D01*
X932500Y505000D01*
X707500Y505000D01*
X705000Y502500D01*
X662500Y502500D01*
X647500Y517500D01*
X357500Y517500D01*
X355000Y515000D01*
X355000Y412500D01*
X352500Y410000D01*
X260000Y410000D01*
X257500Y407500D01*
X257500Y327500D01*
X260000Y325000D01*
X282500Y325000D01*
G54D10*
X1485000Y242500D02*
X1485000Y207500D01*
X1487500Y205000D01*
X1620000Y205000D01*
X1622500Y202500D01*
X1622500Y172500D01*
X1635000Y162500D01*
G54D10*
X1382500Y360000D02*
X1382500Y407500D01*
X1380000Y410000D01*
X775000Y410000D01*
X772500Y412500D01*
X772500Y450000D01*
X770000Y452500D01*
X687500Y452500D01*
X662500Y477500D01*
X530000Y477500D01*
X527500Y472500D01*
X527500Y362500D01*
X525000Y360000D01*
X350000Y360000D01*
X345000Y355000D01*
X345000Y302500D01*
X342500Y300000D01*
X282500Y300000D01*
G54D10*
X1410000Y242500D02*
X1422500Y255000D01*
X1492500Y255000D01*
X1497500Y250000D01*
X1497500Y215000D01*
X1500000Y212500D01*
X1630000Y212500D01*
X1635000Y207500D01*
X1635000Y187500D01*
G54D10*
X1355000Y360000D02*
X1355000Y385000D01*
X1352500Y387500D01*
X855000Y387500D01*
X845000Y377500D01*
X695000Y377500D01*
X672500Y400000D01*
X662500Y400000D01*
X585000Y400000D01*
X522500Y337500D01*
X355000Y337500D01*
X352500Y335000D01*
X352500Y277500D01*
X350000Y275000D01*
X282500Y275000D01*
G54D10*
X1485000Y317500D02*
X1462500Y340000D01*
X1330000Y340000D01*
X1330000Y360000D01*
X1330000Y340000D01*
X797500Y340000D01*
X782500Y355000D01*
X692500Y355000D01*
X672500Y375000D01*
X662500Y375000D01*
X600000Y375000D01*
X537500Y312500D01*
X362500Y312500D01*
X360000Y310000D01*
X360000Y252500D01*
X357500Y250000D01*
X282500Y250000D01*
G54D10*
X1510000Y317500D02*
X1500000Y307500D01*
X1425000Y307500D01*
X1422500Y310000D01*
X1422500Y332500D01*
X1420000Y335000D01*
X785000Y335000D01*
X770000Y350000D01*
X662500Y350000D01*
X527500Y215000D01*
X292500Y215000D01*
X282500Y225000D01*
G54D10*
X1525000Y387500D02*
X1525000Y297500D01*
X1522500Y295000D01*
X1425000Y295000D01*
G54D10*
X1332500Y327500D02*
X1330000Y330000D01*
X785000Y330000D01*
X782500Y327500D01*
X665000Y327500D01*
X662500Y325000D01*
X547500Y210000D01*
X292500Y210000D01*
X282500Y200000D01*
G54D10*
X1135000Y187500D02*
X1122500Y200000D01*
X702500Y200000D01*
X677500Y225000D01*
X662500Y225000D01*
G54D10*
X1372500Y207500D02*
X1367500Y212500D01*
X1367500Y260000D01*
X1365000Y262500D01*
X915000Y262500D01*
X910000Y257500D01*
G54D10*
X1210000Y187500D02*
X1175000Y225000D01*
X952500Y225000D01*
X935000Y242500D01*
G54D10*
X662500Y200000D02*
X650000Y212500D01*
X650000Y235000D01*
X652500Y237500D01*
X685000Y237500D01*
X700000Y222500D01*
X932500Y222500D01*
X937500Y217500D01*
X972500Y217500D01*
X1145000Y217500D01*
X1147500Y215000D01*
X1147500Y175000D01*
X1595000Y175000D01*
X1597500Y172500D01*
X1597500Y152500D01*
X1600000Y150000D01*
X1695000Y150000D01*
X1697500Y152500D01*
X1697500Y227500D01*
X1687500Y235000D01*
X1687500Y327500D01*
X1685000Y330000D01*
X1670000Y330000D01*
X1620000Y380000D01*
X1537500Y380000D01*
X1535000Y377500D01*
X1535000Y360000D01*
G54D10*
X1150000Y175000D02*
X1122500Y175000D01*
X1110000Y187500D01*
G54D10*
X662500Y275000D02*
X665000Y277500D01*
X830000Y277500D01*
X822500Y277500D01*
X822500Y235000D01*
X825000Y232500D01*
X845000Y232500D01*
X847500Y235000D01*
X847500Y266500D01*
X851000Y270000D01*
X1572500Y270000D01*
X1575000Y272500D01*
X1575000Y350000D01*
X1585000Y360000D01*
G54D10*
X1372500Y270000D02*
X1372500Y237000D01*
X1384000Y225500D01*
X1384000Y187000D01*
G54D11*
X1460000Y697500D02*
X1352500Y697500D01*
X1350000Y700000D01*
X1350000Y772500D01*
G54D11*
X1675000Y557500D02*
X1662500Y545000D01*
X1537500Y545000D01*
X1535000Y542500D01*
X1535000Y512500D01*
G54D11*
X1117500Y597500D02*
X1077500Y597500D01*
X962500Y597500D01*
X960000Y595000D01*
X960000Y557500D01*
G54D11*
X360000Y172500D02*
X345000Y187500D01*
X295000Y187500D01*
X282500Y175000D01*
X267500Y157500D01*
X105000Y157500D01*
X102500Y160000D01*
X102500Y192500D01*
X17500Y192500D01*
G54D11*
X1800000Y632500D02*
X1850000Y582500D01*
X1850000Y557500D01*
G54D11*
X755000Y542500D02*
X785000Y572500D01*
X885000Y572500D01*
X920000Y572500D01*
X935000Y557500D01*
G54D11*
X-22500Y655000D02*
X27500Y705000D01*
X100000Y705000D01*
G54D11*
X835000Y697500D02*
X822500Y685000D01*
X610000Y685000D01*
G54D11*
X1675000Y242500D02*
X1662500Y230000D01*
X1547500Y230000D01*
X1535000Y242500D01*
X1515000Y262500D01*
X1402500Y262500D01*
X1397500Y257500D01*
X1397500Y232500D01*
X1402500Y227500D01*
X1420000Y227500D01*
X1435000Y242500D01*
G54D11*
X560000Y632500D02*
X547500Y620000D01*
X442500Y620000D01*
X417500Y620000D01*
X405000Y607500D01*
G54D11*
X755000Y415000D02*
X742500Y427500D01*
X665000Y427500D01*
X662500Y425000D01*
G54D11*
X75000Y400000D02*
X62500Y400000D01*
X52500Y392500D01*
X20000Y392500D01*
G54D11*
X810000Y360000D02*
X795000Y360000D01*
X790000Y365000D01*
X755000Y365000D01*
G54D11*
X1117500Y597500D02*
X1367500Y597500D01*
X1367500Y562500D01*
G54D11*
X27500Y705000D02*
X20000Y720000D01*
G54D11*
X755000Y262500D02*
X755000Y237500D01*
G54D11*
X1405000Y597500D02*
X1367500Y597500D01*
G54D12*
X1385000Y242500D02*
X1397500Y242500D01*
G54D10*
X720000Y612500D02*
X720000Y555000D01*
X690000Y525000D01*
X350000Y525000D01*
X347500Y522500D01*
X347500Y417500D01*
X345000Y415000D01*
X245000Y415000D01*
X130000Y300000D01*
G54D10*
X1850000Y397500D02*
X1837500Y410000D01*
X1837500Y492500D01*
X1835000Y495000D01*
X1282500Y495000D01*
X1280000Y497500D01*
X1280000Y512500D01*
G54D10*
X972500Y587500D02*
X972500Y500000D01*
X975000Y497500D01*
X1187500Y497500D01*
X1202500Y512500D01*
G54D10*
X1152500Y360000D02*
X1140000Y372500D01*
X997500Y372500D01*
X985000Y360000D01*
G54D10*
X1725000Y472500D02*
X1712500Y460000D01*
X1305000Y460000D01*
X1255000Y512500D01*
G54D10*
X1560000Y672500D02*
X1457500Y672500D01*
X1430000Y645000D01*
X1297500Y645000D01*
X1295000Y647500D01*
X1295000Y717500D01*
X1292500Y720000D01*
X1120000Y720000D01*
G54D10*
X865000Y677500D02*
X1005000Y677500D01*
X1025000Y657500D01*
X1047500Y657500D01*
X1050000Y660000D01*
X1050000Y732500D01*
X1047500Y735000D01*
X975000Y735000D01*
X972500Y737500D01*
X972500Y797500D01*
X977500Y802500D01*
X1782500Y802500D01*
X1785000Y800000D01*
X1785000Y682500D01*
X1782500Y680000D01*
X1767500Y680000D01*
X1750000Y697500D01*
G54D10*
X1562500Y420000D02*
X1757500Y420000D01*
X1762500Y415000D01*
X1762500Y387500D01*
X1765000Y385000D01*
X1860000Y385000D01*
X1862500Y387500D01*
X1862500Y685000D01*
X1850000Y697500D01*
G54D10*
X1280000Y372500D02*
X1272500Y380000D01*
X880000Y380000D01*
X860000Y360000D01*
G54D10*
X835000Y242500D02*
X835000Y271000D01*
X839000Y275000D01*
X1567500Y275000D01*
X1570000Y277500D01*
X1570000Y350000D01*
X1560000Y360000D01*
G54D10*
X1535000Y632500D02*
X1547500Y645000D01*
X1607500Y645000D01*
X1610000Y647500D01*
X1610000Y697500D01*
G54D10*
X1370000Y632500D02*
X1292500Y632500D01*
X1290000Y635000D01*
X1290000Y707500D01*
X1287500Y710000D01*
X1165000Y710000D01*
X1152500Y697500D01*
G54D10*
X1077500Y470000D02*
X1215000Y470000D01*
X1217500Y472500D01*
X1217500Y520000D01*
X1220000Y522500D01*
X1290000Y522500D01*
X1292500Y520000D01*
X1292500Y502500D01*
X1295000Y500000D01*
X1420000Y500000D01*
X1432500Y512500D01*
G54D10*
X1645000Y517500D02*
X1627500Y500000D01*
X1525000Y500000D01*
X1522500Y502500D01*
X1522500Y522500D01*
X1520000Y525000D01*
X1420000Y525000D01*
X1407500Y512500D01*
G54D10*
X1397500Y707500D02*
X1420000Y707500D01*
X1485000Y772500D01*
G54D10*
X1535000Y752500D02*
X1522500Y740000D01*
X1522500Y687500D01*
X1520000Y685000D01*
X1342500Y685000D01*
X1290000Y737500D01*
X1232500Y737500D01*
G54D10*
X1585000Y772500D02*
X1585000Y747500D01*
X1587500Y745000D01*
X1730000Y745000D01*
X1777500Y697500D01*
G54D10*
X1582500Y332500D02*
X1592500Y332500D01*
X1595000Y330000D01*
X1595000Y277500D01*
X1560000Y242500D01*
G54D10*
X1560000Y512500D02*
X1560000Y535000D01*
G54D10*
X1585000Y512500D02*
X1602500Y530000D01*
X1685000Y530000D01*
X1687500Y532500D01*
X1687500Y602500D01*
X1685000Y605000D01*
X1627500Y605000D01*
X1625000Y607500D01*
X1625000Y707500D01*
X1622500Y710000D01*
X1600000Y710000D01*
X1597500Y707500D01*
X1597500Y682500D01*
X1595000Y680000D01*
X1342500Y680000D01*
X1320000Y657500D01*
G54D10*
X835000Y317500D02*
X865000Y287500D01*
X1545000Y287500D01*
X1547500Y290000D01*
X1547500Y370000D01*
X1550000Y372500D01*
X1597500Y372500D01*
X1600000Y370000D01*
X1600000Y252500D01*
X1610000Y242500D01*
G54D10*
X647500Y297500D02*
X640000Y290000D01*
X640000Y157500D01*
X647500Y150000D01*
X1222500Y150000D01*
X1235000Y162500D01*
G54D10*
X680000Y175000D02*
X947500Y175000D01*
X960000Y160000D01*
G54D10*
X960000Y242500D02*
X972500Y230000D01*
X1310000Y230000D01*
X1322500Y242500D01*
G54D10*
X1215000Y622500D02*
X1217500Y620000D01*
X1497500Y620000D01*
X1510000Y632500D01*
G54D10*
X860000Y632500D02*
X872500Y620000D01*
X1140000Y620000D01*
X1152500Y632500D01*
G54D10*
X1382500Y512500D02*
X1367500Y527500D01*
X1182500Y527500D01*
X1152500Y557500D01*
G54D10*
X897500Y477500D02*
X820000Y477500D01*
X800000Y457500D01*
X740000Y457500D01*
X730000Y467500D01*
G54D10*
X827500Y605000D02*
X835000Y612500D01*
X1162500Y612500D01*
X1165000Y615000D01*
X1165000Y685000D01*
X1177500Y697500D01*
X1202500Y697500D01*
G54D10*
X1560000Y282500D02*
X847500Y282500D01*
X830000Y300000D01*
X742500Y300000D01*
X730000Y290000D01*
G54D10*
X1032500Y477500D02*
X1032500Y450000D01*
X1035000Y447500D01*
X1177500Y447500D01*
X1180000Y445000D01*
X1180000Y420000D01*
X1177500Y417500D01*
X787500Y417500D01*
G54D10*
X1227500Y772500D02*
X1252500Y772500D01*
G54D10*
X920000Y127500D02*
X927500Y120000D01*
X1727500Y120000D01*
X1850000Y242500D01*
G54D10*
X1725000Y772500D02*
X1705000Y792500D01*
X1067500Y792500D01*
X1062500Y787500D01*
X1062500Y767500D01*
X1090000Y742500D01*
X1090000Y655000D01*
X1087500Y652500D01*
X947500Y652500D01*
X935000Y665000D01*
G54D10*
X585000Y632500D02*
X585000Y737500D01*
X582500Y740000D01*
X452500Y740000D01*
X430000Y762500D01*
G54D10*
X380000Y762500D02*
X392500Y750000D01*
X392500Y675000D01*
X395000Y672500D01*
X495000Y672500D01*
X535000Y632500D01*
G54D10*
X610000Y632500D02*
X597500Y620000D01*
X575000Y620000D01*
X572500Y622500D01*
X572500Y710000D01*
X570000Y712500D01*
X430000Y712500D01*
G54D10*
X662500Y250000D02*
X692500Y250000D01*
X715000Y227500D01*
X920000Y227500D01*
X922500Y230000D01*
X922500Y252500D01*
X925000Y255000D01*
X1210000Y255000D01*
X1222500Y242500D01*
G54D12*
X835000Y665000D02*
X822500Y652500D01*
X680000Y652500D01*
X675000Y647500D01*
X675000Y600000D01*
X670000Y595000D01*
X470000Y595000D01*
X347500Y595000D01*
X332500Y580000D01*
X280000Y580000D01*
X267500Y592500D01*
X62500Y592500D01*
X55000Y585000D01*
X55000Y460000D01*
X22500Y427500D01*
G54D11*
X1610000Y632500D02*
X1582500Y605000D01*
X1465000Y605000D01*
X1417500Y557500D01*
X1410000Y550000D01*
X1327500Y550000D01*
X1320000Y557500D01*
X1305000Y572500D01*
X1292500Y572500D01*
X1277500Y557500D01*
G54D11*
X457500Y502500D02*
X435000Y480000D01*
X367500Y480000D01*
X365000Y477500D01*
X365000Y415000D01*
X380000Y400000D01*
G54D11*
X1850000Y632500D02*
X1812500Y670000D01*
X1652500Y670000D01*
G54D11*
X1077500Y707500D02*
X1077500Y740000D01*
X1075000Y742500D01*
X1012500Y742500D01*
X985000Y772500D01*
G54D11*
X1850000Y317500D02*
X1892500Y317500D01*
X1895000Y320000D01*
X1895000Y370000D01*
X1892500Y372500D01*
X1787500Y372500D01*
X1775000Y357500D01*
X1750000Y382500D01*
X1645000Y382500D01*
G54D11*
X1165000Y435000D02*
X1077500Y435000D01*
X985000Y435000D01*
X985000Y472500D01*
X980000Y477500D01*
X930000Y477500D01*
G54D11*
X930000Y527500D02*
X915000Y542500D01*
X900000Y542500D01*
X885000Y557500D01*
X855000Y527500D01*
X795000Y527500D01*
G54D11*
X1277500Y557500D02*
X1262500Y572500D01*
X1192500Y572500D01*
X1177500Y557500D01*
X1162500Y572500D01*
X1077500Y572500D01*
G54D11*
X560000Y557500D02*
X560000Y595000D01*
G54D11*
X1127500Y632500D02*
X1077500Y632500D01*
G54D11*
X1152500Y512500D02*
X1177900Y512500D01*
G54D10*
X1700000Y632500D02*
X1712500Y645000D01*
X1812500Y645000D01*
X1825000Y632500D01*
G54D10*
X1385000Y317500D02*
X1385000Y307500D01*
X1390000Y302500D01*
X1517500Y302500D01*
X1520000Y305000D01*
X1520000Y327500D01*
X1495000Y352500D01*
X1495000Y440000D01*
X1497500Y442500D01*
X1810000Y442500D01*
X1812500Y445000D01*
X1812500Y487500D01*
X1810000Y490000D01*
X1685000Y490000D01*
X1677500Y482500D01*
X1645000Y482500D01*
G54D10*
X1390000Y302000D02*
X1382000Y295000D01*
X985000Y295000D01*
G54D10*
X230000Y505000D02*
X230000Y522500D01*
X245000Y537500D01*
X215000Y567500D01*
X75000Y567500D01*
G54D10*
X245000Y537500D02*
X677500Y537500D01*
X682500Y542500D01*
X682500Y625000D01*
X685000Y627500D01*
X730000Y627500D01*
X732500Y625000D01*
X732500Y597500D01*
X735000Y595000D01*
X945000Y595000D01*
X947500Y592500D01*
X947500Y547500D01*
X957500Y537500D01*
X957500Y497500D01*
G54D10*
X710000Y707500D02*
X725000Y722500D01*
X982500Y722500D01*
X1035000Y670000D01*
G54D10*
X935000Y772500D02*
X935000Y722500D01*
G54D10*
X835000Y772500D02*
X735000Y772500D01*
X722500Y760000D01*
G54D10*
X1775000Y557500D02*
X1717500Y615000D01*
X1637500Y615000D01*
X1635000Y617500D01*
X1635000Y735000D01*
X1632500Y737500D01*
X1575000Y737500D01*
X1572500Y740000D01*
X1572500Y780000D01*
X1575000Y782500D01*
X1595000Y782500D01*
X1597500Y780000D01*
X1597500Y760000D01*
X1600000Y757500D01*
X1735000Y757500D01*
X1737500Y760000D01*
X1737500Y795000D01*
X1735000Y797500D01*
X1060000Y797500D01*
X1035000Y772500D01*
G54D10*
X960000Y772500D02*
X947500Y785000D01*
X900000Y785000D01*
X897500Y782500D01*
X897500Y765000D01*
X892500Y760000D01*
X770000Y760000D01*
G54D10*
X747500Y795000D02*
X760000Y807500D01*
X1787500Y807500D01*
X1790000Y805000D01*
X1790000Y707500D01*
X1800000Y697500D01*
G54D10*
X332500Y225000D02*
X317500Y225000D01*
X307500Y235000D01*
X112500Y235000D01*
X110000Y237500D01*
X110000Y380000D01*
X130000Y400000D01*
G54D10*
X1700000Y472500D02*
X1712500Y485000D01*
X1787500Y485000D01*
X1800000Y472500D01*
G54D10*
X697500Y415000D02*
X730896Y415000D01*
G54D10*
X1880000Y357500D02*
X1867500Y345000D01*
X1825000Y345000D01*
X1755000Y345000D01*
X1752500Y347500D01*
X1752500Y357500D01*
G54D10*
X1800000Y317500D02*
X1783000Y334500D01*
X1698000Y334500D01*
X1675000Y357500D01*
G54D10*
X1077500Y770000D02*
X1095000Y752500D01*
X1252500Y752500D01*
G54D10*
X1100000Y752500D02*
X1100000Y650000D01*
X1097500Y647500D01*
X780000Y647500D01*
X745000Y612500D01*
G54D10*
X1385000Y772500D02*
X1370000Y787500D01*
X1267500Y787500D01*
X1265000Y785000D01*
X1265000Y747500D01*
X1262500Y745000D01*
X1112500Y745000D01*
X1110000Y742500D01*
X1110000Y645000D01*
X1107500Y642500D01*
X802500Y642500D01*
X772500Y612500D01*
G54D10*
X457500Y400000D02*
X432300Y400000D01*
X381300Y451000D01*
G54D10*
X380000Y250000D02*
X390000Y260000D01*
X497500Y260000D01*
X510000Y275000D01*
G54D10*
X380000Y275000D02*
X367500Y262500D01*
X367500Y242500D01*
X365000Y240000D01*
X270000Y240000D01*
X267500Y242500D01*
X267500Y307500D01*
X270000Y310000D01*
X315000Y310000D01*
X317500Y312500D01*
X317500Y362500D01*
X320000Y365000D01*
X500000Y365000D01*
X510000Y375000D01*
G54D10*
X380000Y300000D02*
X392500Y287500D01*
X522500Y287500D01*
X525000Y285000D01*
X525000Y240000D01*
X510000Y225000D01*
G54D10*
X-10000Y527500D02*
X-10000Y357500D01*
X-7500Y355000D01*
X90000Y355000D01*
X95000Y360000D01*
X95000Y412500D01*
X97500Y415000D01*
X157500Y415000D01*
X167500Y425000D01*
X282500Y425000D01*
G54D10*
X-30000Y400000D02*
X-30000Y350000D01*
X-27500Y347500D01*
X100000Y347500D01*
X102500Y350000D01*
X102500Y407500D01*
X105000Y410000D01*
X140000Y410000D01*
X142500Y407500D01*
X142500Y340000D01*
X140000Y337500D01*
X120000Y337500D01*
X117500Y335000D01*
X117500Y290000D01*
X120000Y287500D01*
X235000Y287500D01*
X262500Y315000D01*
X292500Y315000D01*
X295000Y317500D01*
X295000Y332500D01*
X292500Y335000D01*
X265000Y335000D01*
X262500Y337500D01*
X262500Y397500D01*
X265000Y400000D01*
X282500Y400000D01*
G54D10*
X25000Y567500D02*
X2500Y547500D01*
X-17500Y547500D01*
X-37500Y527500D01*
G54D10*
X75000Y527500D02*
X75000Y495000D01*
X77500Y492500D01*
X115000Y492500D01*
X267500Y492500D01*
X280000Y505000D01*
G54D10*
X87500Y517500D02*
X167500Y517500D01*
X180000Y505000D01*
G54D10*
X75000Y272500D02*
X75000Y225000D01*
X72500Y222500D01*
X17500Y222500D01*
G54D10*
X20000Y367500D02*
X85000Y367500D01*
X87500Y370000D01*
X87500Y447500D01*
X90000Y450000D01*
X130000Y450000D01*
X157500Y477500D01*
X332500Y477500D01*
G54D10*
X22500Y527500D02*
X40000Y545000D01*
X40000Y610000D01*
X37500Y612500D01*
X-25000Y612500D01*
G54D10*
X1560000Y557500D02*
X1535000Y557500D01*
X1522500Y570000D01*
X1475000Y570000D01*
X1472500Y567500D01*
X1472500Y545000D01*
X1470000Y542500D01*
X1267500Y542500D01*
X1252500Y557500D01*
G54D10*
X1510000Y557500D02*
X1510000Y535000D01*
X1507500Y532500D01*
X1227500Y532500D01*
X1202500Y557500D01*
G54D10*
X1485000Y557500D02*
X1485000Y540000D01*
X1482500Y537500D01*
X1250000Y537500D01*
X1227500Y557500D01*
G54D10*
X1587500Y632500D02*
X1562500Y632500D01*
X1542500Y612500D01*
X1197500Y612500D01*
X1177500Y632500D01*
X542500Y462500D02*
G54D13*
D03*
X910000Y397500D02*
G54D13*
D03*
X882500Y492500D02*
G54D13*
D03*
X522500Y490000D02*
G54D13*
D03*
X1525000Y387500D02*
G54D13*
D03*
X1332500Y327500D02*
G54D13*
D03*
X910000Y257500D02*
G54D13*
D03*
X1372500Y207500D02*
G54D13*
D03*
X972500Y217500D02*
G54D13*
D03*
X830000Y277500D02*
G54D13*
D03*
X102500Y192500D02*
G54D14*
D03*
X1405000Y597500D02*
G54D14*
D03*
X885000Y572500D02*
G54D14*
D03*
X442500Y620000D02*
G54D14*
D03*
X1117500Y597500D02*
G54D14*
D03*
X690000Y525000D02*
G54D13*
D03*
X972500Y587500D02*
G54D13*
D03*
X1120000Y720000D02*
G54D13*
D03*
X1560000Y672500D02*
G54D13*
D03*
X865000Y677500D02*
G54D13*
D03*
X1280000Y372500D02*
G54D13*
D03*
X1562500Y420000D02*
G54D13*
D03*
X1397500Y707500D02*
G54D13*
D03*
X1232500Y737500D02*
G54D13*
D03*
X1535000Y752500D02*
G54D13*
D03*
X1582500Y332500D02*
G54D13*
D03*
X1560000Y535000D02*
G54D13*
D03*
X647500Y297500D02*
G54D13*
D03*
X1215000Y622500D02*
G54D13*
D03*
X820000Y477500D02*
G54D13*
D03*
X827500Y605000D02*
G54D13*
D03*
X1560000Y282500D02*
G54D13*
D03*
X787500Y417500D02*
G54D13*
D03*
X920000Y127500D02*
G54D13*
D03*
X470000Y595000D02*
G54D13*
D03*
X1165000Y435000D02*
G54D14*
D03*
X1077500Y632500D02*
G54D14*
D03*
X985000Y295000D02*
G54D13*
D03*
X957500Y497500D02*
G54D13*
D03*
X697500Y415000D02*
G54D13*
D03*
X1825000Y345000D02*
G54D13*
D03*
X1252500Y752500D02*
G54D13*
D03*
X115000Y492500D02*
G54D13*
D03*
X87500Y517500D02*
G54D13*
D03*
G36*
X295500Y714500D02*
X314500Y714500D01*
X314500Y695500D01*
X295500Y695500D01*
X295500Y714500D01*
G37*
X100000Y705000D02*
G54D15*
D03*
X785000Y707500D02*
G54D16*
D03*
X710000Y707500D02*
G54D16*
D03*
X1752500Y357500D02*
G54D16*
D03*
X1675000Y357500D02*
G54D16*
D03*
X1350000Y772500D02*
G54D16*
D03*
X1385000Y772500D02*
G54D16*
D03*
X1367500Y632500D02*
G54D16*
D03*
X1367500Y562500D02*
G54D16*
D03*
X1077500Y675000D02*
G54D16*
D03*
X1077500Y597500D02*
G54D16*
D03*
X1077500Y435000D02*
G54D16*
D03*
X1077500Y360000D02*
G54D16*
D03*
X380000Y502500D02*
G54D16*
D03*
X380000Y452500D02*
G54D16*
D03*
X420000Y502500D02*
G54D16*
D03*
X420000Y452500D02*
G54D16*
D03*
X457500Y502500D02*
G54D16*
D03*
X457500Y452500D02*
G54D16*
D03*
X397500Y172500D02*
G54D16*
D03*
X445000Y172500D02*
G54D16*
D03*
X457500Y607500D02*
G54D16*
D03*
X457500Y557500D02*
G54D16*
D03*
X20000Y720000D02*
G54D16*
D03*
G36*
X60500Y727000D02*
X74500Y727000D01*
X74500Y713000D01*
X60500Y713000D01*
X60500Y727000D01*
G37*
X-22500Y655000D02*
G54D16*
D03*
G36*
X-29500Y707000D02*
X-15500Y707000D01*
X-15500Y693000D01*
X-29500Y693000D01*
X-29500Y707000D01*
G37*
X-25000Y565000D02*
G54D16*
D03*
G36*
X-32000Y619500D02*
X-18000Y619500D01*
X-18000Y605500D01*
X-32000Y605500D01*
X-32000Y619500D01*
G37*
X312500Y172500D02*
G54D16*
D03*
G36*
X353000Y179500D02*
X367000Y179500D01*
X367000Y165500D01*
X353000Y165500D01*
X353000Y179500D01*
G37*
X17500Y272500D02*
G54D16*
D03*
G36*
X10500Y327000D02*
X24500Y327000D01*
X24500Y313000D01*
X10500Y313000D01*
X10500Y327000D01*
G37*
G36*
X13000Y374500D02*
X27000Y374500D01*
X27000Y360500D01*
X13000Y360500D01*
X13000Y374500D01*
G37*
X20000Y392500D02*
G54D16*
D03*
G36*
X978000Y704500D02*
X992000Y704500D01*
X992000Y690500D01*
X978000Y690500D01*
X978000Y704500D01*
G37*
X960000Y697500D02*
G54D17*
D03*
X935000Y697500D02*
G54D17*
D03*
X910000Y697500D02*
G54D17*
D03*
X885000Y697500D02*
G54D17*
D03*
X860000Y697500D02*
G54D17*
D03*
X835000Y697500D02*
G54D17*
D03*
X835000Y772500D02*
G54D17*
D03*
X860000Y772500D02*
G54D17*
D03*
X885000Y772500D02*
G54D17*
D03*
X910000Y772500D02*
G54D17*
D03*
X935000Y772500D02*
G54D17*
D03*
X960000Y772500D02*
G54D17*
D03*
X985000Y772500D02*
G54D17*
D03*
G36*
X978000Y564500D02*
X992000Y564500D01*
X992000Y550500D01*
X978000Y550500D01*
X978000Y564500D01*
G37*
X960000Y557500D02*
G54D17*
D03*
X935000Y557500D02*
G54D17*
D03*
X910000Y557500D02*
G54D17*
D03*
X885000Y557500D02*
G54D17*
D03*
X860000Y557500D02*
G54D17*
D03*
X835000Y557500D02*
G54D17*
D03*
X835000Y632500D02*
G54D17*
D03*
X860000Y632500D02*
G54D17*
D03*
X885000Y632500D02*
G54D17*
D03*
X910000Y632500D02*
G54D17*
D03*
X935000Y632500D02*
G54D17*
D03*
X960000Y632500D02*
G54D17*
D03*
X985000Y632500D02*
G54D17*
D03*
G36*
X1843000Y249500D02*
X1857000Y249500D01*
X1857000Y235500D01*
X1843000Y235500D01*
X1843000Y249500D01*
G37*
X1825000Y242500D02*
G54D17*
D03*
X1800000Y242500D02*
G54D17*
D03*
X1775000Y242500D02*
G54D17*
D03*
X1750000Y242500D02*
G54D17*
D03*
X1725000Y242500D02*
G54D17*
D03*
X1700000Y242500D02*
G54D17*
D03*
X1675000Y242500D02*
G54D17*
D03*
X1675000Y317500D02*
G54D17*
D03*
X1700000Y317500D02*
G54D17*
D03*
X1725000Y317500D02*
G54D17*
D03*
X1750000Y317500D02*
G54D17*
D03*
X1775000Y317500D02*
G54D17*
D03*
X1800000Y317500D02*
G54D17*
D03*
X1825000Y317500D02*
G54D17*
D03*
X1850000Y317500D02*
G54D17*
D03*
G36*
X1843000Y404500D02*
X1857000Y404500D01*
X1857000Y390500D01*
X1843000Y390500D01*
X1843000Y404500D01*
G37*
X1825000Y397500D02*
G54D17*
D03*
X1800000Y397500D02*
G54D17*
D03*
X1775000Y397500D02*
G54D17*
D03*
X1750000Y397500D02*
G54D17*
D03*
X1725000Y397500D02*
G54D17*
D03*
X1700000Y397500D02*
G54D17*
D03*
X1700000Y472500D02*
G54D17*
D03*
X1725000Y472500D02*
G54D17*
D03*
X1750000Y472500D02*
G54D17*
D03*
X1775000Y472500D02*
G54D17*
D03*
X1800000Y472500D02*
G54D17*
D03*
X1825000Y472500D02*
G54D17*
D03*
X1850000Y472500D02*
G54D17*
D03*
G36*
X1843000Y564500D02*
X1857000Y564500D01*
X1857000Y550500D01*
X1843000Y550500D01*
X1843000Y564500D01*
G37*
X1825000Y557500D02*
G54D17*
D03*
X1800000Y557500D02*
G54D17*
D03*
X1775000Y557500D02*
G54D17*
D03*
X1750000Y557500D02*
G54D17*
D03*
X1725000Y557500D02*
G54D17*
D03*
X1700000Y557500D02*
G54D17*
D03*
X1675000Y557500D02*
G54D17*
D03*
X1675000Y632500D02*
G54D17*
D03*
X1700000Y632500D02*
G54D17*
D03*
X1725000Y632500D02*
G54D17*
D03*
X1750000Y632500D02*
G54D17*
D03*
X1775000Y632500D02*
G54D17*
D03*
X1800000Y632500D02*
G54D17*
D03*
X1825000Y632500D02*
G54D17*
D03*
X1850000Y632500D02*
G54D17*
D03*
G36*
X1270500Y704500D02*
X1284500Y704500D01*
X1284500Y690500D01*
X1270500Y690500D01*
X1270500Y704500D01*
G37*
X1252500Y697500D02*
G54D17*
D03*
X1227500Y697500D02*
G54D17*
D03*
X1202500Y697500D02*
G54D17*
D03*
X1177500Y697500D02*
G54D17*
D03*
X1152500Y697500D02*
G54D17*
D03*
X1127500Y697500D02*
G54D17*
D03*
X1127500Y772500D02*
G54D17*
D03*
X1152500Y772500D02*
G54D17*
D03*
X1177500Y772500D02*
G54D17*
D03*
X1202500Y772500D02*
G54D17*
D03*
X1227500Y772500D02*
G54D17*
D03*
X1252500Y772500D02*
G54D17*
D03*
X1277500Y772500D02*
G54D17*
D03*
G36*
X1603000Y704500D02*
X1617000Y704500D01*
X1617000Y690500D01*
X1603000Y690500D01*
X1603000Y704500D01*
G37*
X1585000Y697500D02*
G54D17*
D03*
X1560000Y697500D02*
G54D17*
D03*
X1535000Y697500D02*
G54D17*
D03*
X1510000Y697500D02*
G54D17*
D03*
X1485000Y697500D02*
G54D17*
D03*
X1460000Y697500D02*
G54D17*
D03*
X1460000Y772500D02*
G54D17*
D03*
X1485000Y772500D02*
G54D17*
D03*
X1510000Y772500D02*
G54D17*
D03*
X1535000Y772500D02*
G54D17*
D03*
X1560000Y772500D02*
G54D17*
D03*
X1585000Y772500D02*
G54D17*
D03*
X1610000Y772500D02*
G54D17*
D03*
G36*
X1843000Y704500D02*
X1857000Y704500D01*
X1857000Y690500D01*
X1843000Y690500D01*
X1843000Y704500D01*
G37*
X1825000Y697500D02*
G54D17*
D03*
X1800000Y697500D02*
G54D17*
D03*
X1775000Y697500D02*
G54D17*
D03*
X1750000Y697500D02*
G54D17*
D03*
X1725000Y697500D02*
G54D17*
D03*
X1700000Y697500D02*
G54D17*
D03*
X1700000Y772500D02*
G54D17*
D03*
X1725000Y772500D02*
G54D17*
D03*
X1750000Y772500D02*
G54D17*
D03*
X1775000Y772500D02*
G54D17*
D03*
X1800000Y772500D02*
G54D17*
D03*
X1825000Y772500D02*
G54D17*
D03*
X1850000Y772500D02*
G54D17*
D03*
G36*
X1315500Y249500D02*
X1329500Y249500D01*
X1329500Y235500D01*
X1315500Y235500D01*
X1315500Y249500D01*
G37*
X1297500Y242500D02*
G54D17*
D03*
X1272500Y242500D02*
G54D17*
D03*
X1247500Y242500D02*
G54D17*
D03*
X1222500Y242500D02*
G54D17*
D03*
X1197500Y242500D02*
G54D17*
D03*
X1172500Y242500D02*
G54D17*
D03*
X1147500Y242500D02*
G54D17*
D03*
X1122500Y242500D02*
G54D17*
D03*
X1097500Y242500D02*
G54D17*
D03*
X1072500Y242500D02*
G54D17*
D03*
X1047500Y242500D02*
G54D17*
D03*
X1047500Y317500D02*
G54D17*
D03*
X1072500Y317500D02*
G54D17*
D03*
X1097500Y317500D02*
G54D17*
D03*
X1122500Y317500D02*
G54D17*
D03*
X1147500Y317500D02*
G54D17*
D03*
X1172500Y317500D02*
G54D17*
D03*
X1197500Y317500D02*
G54D17*
D03*
X1222500Y317500D02*
G54D17*
D03*
X1247500Y317500D02*
G54D17*
D03*
X1272500Y317500D02*
G54D17*
D03*
X1297500Y317500D02*
G54D17*
D03*
X1322500Y317500D02*
G54D17*
D03*
G36*
X1270500Y564500D02*
X1284500Y564500D01*
X1284500Y550500D01*
X1270500Y550500D01*
X1270500Y564500D01*
G37*
X1252500Y557500D02*
G54D17*
D03*
X1227500Y557500D02*
G54D17*
D03*
X1202500Y557500D02*
G54D17*
D03*
X1177500Y557500D02*
G54D17*
D03*
X1152500Y557500D02*
G54D17*
D03*
X1127500Y557500D02*
G54D17*
D03*
X1127500Y632500D02*
G54D17*
D03*
X1152500Y632500D02*
G54D17*
D03*
X1177500Y632500D02*
G54D17*
D03*
X1202500Y632500D02*
G54D17*
D03*
X1227500Y632500D02*
G54D17*
D03*
X1252500Y632500D02*
G54D17*
D03*
X1277500Y632500D02*
G54D17*
D03*
G36*
X653000Y564500D02*
X667000Y564500D01*
X667000Y550500D01*
X653000Y550500D01*
X653000Y564500D01*
G37*
X635000Y557500D02*
G54D17*
D03*
X610000Y557500D02*
G54D17*
D03*
X585000Y557500D02*
G54D17*
D03*
X560000Y557500D02*
G54D17*
D03*
X535000Y557500D02*
G54D17*
D03*
X510000Y557500D02*
G54D17*
D03*
X510000Y632500D02*
G54D17*
D03*
X535000Y632500D02*
G54D17*
D03*
X560000Y632500D02*
G54D17*
D03*
X585000Y632500D02*
G54D17*
D03*
X610000Y632500D02*
G54D17*
D03*
X635000Y632500D02*
G54D17*
D03*
X660000Y632500D02*
G54D17*
D03*
G36*
X273000Y512000D02*
X287000Y512000D01*
X287000Y498000D01*
X273000Y498000D01*
X273000Y512000D01*
G37*
X255000Y505000D02*
G54D17*
D03*
X230000Y505000D02*
G54D17*
D03*
X205000Y505000D02*
G54D17*
D03*
X180000Y505000D02*
G54D17*
D03*
X155000Y505000D02*
G54D17*
D03*
X130000Y505000D02*
G54D17*
D03*
X130000Y580000D02*
G54D17*
D03*
X155000Y580000D02*
G54D17*
D03*
X180000Y580000D02*
G54D17*
D03*
X205000Y580000D02*
G54D17*
D03*
X230000Y580000D02*
G54D17*
D03*
X255000Y580000D02*
G54D17*
D03*
X280000Y580000D02*
G54D17*
D03*
G36*
X1603000Y367000D02*
X1617000Y367000D01*
X1617000Y353000D01*
X1603000Y353000D01*
X1603000Y367000D01*
G37*
X1585000Y360000D02*
G54D16*
D03*
X1560000Y360000D02*
G54D16*
D03*
X1535000Y360000D02*
G54D16*
D03*
X1507500Y360000D02*
G54D16*
D03*
X1482500Y360000D02*
G54D16*
D03*
X1457500Y360000D02*
G54D16*
D03*
X1432500Y360000D02*
G54D16*
D03*
X1407500Y360000D02*
G54D16*
D03*
X1382500Y360000D02*
G54D16*
D03*
X1355000Y360000D02*
G54D16*
D03*
X1330000Y360000D02*
G54D16*
D03*
X1305000Y360000D02*
G54D16*
D03*
X1280000Y360000D02*
G54D16*
D03*
X1255000Y360000D02*
G54D16*
D03*
X1230000Y360000D02*
G54D16*
D03*
X1202500Y360000D02*
G54D16*
D03*
X1177500Y360000D02*
G54D16*
D03*
X1152500Y360000D02*
G54D16*
D03*
X1127500Y360000D02*
G54D16*
D03*
X1127500Y512500D02*
G54D16*
D03*
X1152500Y512500D02*
G54D16*
D03*
X1177500Y512500D02*
G54D16*
D03*
X1202500Y512500D02*
G54D16*
D03*
X1230000Y512500D02*
G54D16*
D03*
X1255000Y512500D02*
G54D16*
D03*
X1280000Y512500D02*
G54D16*
D03*
X1305000Y512500D02*
G54D16*
D03*
X1330000Y512500D02*
G54D16*
D03*
X1355000Y512500D02*
G54D16*
D03*
X1382500Y512500D02*
G54D16*
D03*
X1407500Y512500D02*
G54D16*
D03*
X1432500Y512500D02*
G54D16*
D03*
X1457500Y512500D02*
G54D16*
D03*
X1482500Y512500D02*
G54D16*
D03*
X1507500Y512500D02*
G54D16*
D03*
X1535000Y512500D02*
G54D16*
D03*
X1560000Y512500D02*
G54D16*
D03*
X1585000Y512500D02*
G54D16*
D03*
X1610000Y512500D02*
G54D16*
D03*
G36*
X978000Y367000D02*
X992000Y367000D01*
X992000Y353000D01*
X978000Y353000D01*
X978000Y367000D01*
G37*
X960000Y360000D02*
G54D17*
D03*
X935000Y360000D02*
G54D17*
D03*
X910000Y360000D02*
G54D17*
D03*
X885000Y360000D02*
G54D17*
D03*
X860000Y360000D02*
G54D17*
D03*
X835000Y360000D02*
G54D17*
D03*
X810000Y360000D02*
G54D17*
D03*
X810000Y435000D02*
G54D17*
D03*
X835000Y435000D02*
G54D17*
D03*
X860000Y435000D02*
G54D17*
D03*
X885000Y435000D02*
G54D17*
D03*
X910000Y435000D02*
G54D17*
D03*
X935000Y435000D02*
G54D17*
D03*
X960000Y435000D02*
G54D17*
D03*
X985000Y435000D02*
G54D17*
D03*
G36*
X1603000Y249500D02*
X1617000Y249500D01*
X1617000Y235500D01*
X1603000Y235500D01*
X1603000Y249500D01*
G37*
X1585000Y242500D02*
G54D17*
D03*
X1560000Y242500D02*
G54D17*
D03*
X1535000Y242500D02*
G54D17*
D03*
X1510000Y242500D02*
G54D17*
D03*
X1485000Y242500D02*
G54D17*
D03*
X1460000Y242500D02*
G54D17*
D03*
X1435000Y242500D02*
G54D17*
D03*
X1410000Y242500D02*
G54D17*
D03*
X1385000Y242500D02*
G54D17*
D03*
X1385000Y317500D02*
G54D17*
D03*
X1410000Y317500D02*
G54D17*
D03*
X1435000Y317500D02*
G54D17*
D03*
X1460000Y317500D02*
G54D17*
D03*
X1485000Y317500D02*
G54D17*
D03*
X1510000Y317500D02*
G54D17*
D03*
X1535000Y317500D02*
G54D17*
D03*
X1560000Y317500D02*
G54D17*
D03*
X1585000Y317500D02*
G54D17*
D03*
X1610000Y317500D02*
G54D17*
D03*
G36*
X978000Y249500D02*
X992000Y249500D01*
X992000Y235500D01*
X978000Y235500D01*
X978000Y249500D01*
G37*
X960000Y242500D02*
G54D17*
D03*
X935000Y242500D02*
G54D17*
D03*
X910000Y242500D02*
G54D17*
D03*
X885000Y242500D02*
G54D17*
D03*
X860000Y242500D02*
G54D17*
D03*
X835000Y242500D02*
G54D17*
D03*
X810000Y242500D02*
G54D17*
D03*
X810000Y317500D02*
G54D17*
D03*
X835000Y317500D02*
G54D17*
D03*
X860000Y317500D02*
G54D17*
D03*
X885000Y317500D02*
G54D17*
D03*
X910000Y317500D02*
G54D17*
D03*
X935000Y317500D02*
G54D17*
D03*
X960000Y317500D02*
G54D17*
D03*
X985000Y317500D02*
G54D17*
D03*
G36*
X1603000Y564500D02*
X1617000Y564500D01*
X1617000Y550500D01*
X1603000Y550500D01*
X1603000Y564500D01*
G37*
X1585000Y557500D02*
G54D17*
D03*
X1560000Y557500D02*
G54D17*
D03*
X1535000Y557500D02*
G54D17*
D03*
X1510000Y557500D02*
G54D17*
D03*
X1485000Y557500D02*
G54D17*
D03*
X1460000Y557500D02*
G54D17*
D03*
X1460000Y632500D02*
G54D17*
D03*
X1485000Y632500D02*
G54D17*
D03*
X1510000Y632500D02*
G54D17*
D03*
X1535000Y632500D02*
G54D17*
D03*
X1560000Y632500D02*
G54D17*
D03*
X1585000Y632500D02*
G54D17*
D03*
X1610000Y632500D02*
G54D17*
D03*
G36*
X655500Y509500D02*
X669500Y509500D01*
X669500Y495500D01*
X655500Y495500D01*
X655500Y509500D01*
G37*
X662500Y477500D02*
G54D16*
D03*
X662500Y452500D02*
G54D16*
D03*
X662500Y425000D02*
G54D16*
D03*
X662500Y400000D02*
G54D16*
D03*
X662500Y375000D02*
G54D16*
D03*
X662500Y350000D02*
G54D16*
D03*
X662500Y325000D02*
G54D16*
D03*
X662500Y300000D02*
G54D16*
D03*
X662500Y275000D02*
G54D16*
D03*
X662500Y250000D02*
G54D16*
D03*
X662500Y225000D02*
G54D16*
D03*
X662500Y200000D02*
G54D16*
D03*
X662500Y175000D02*
G54D16*
D03*
X510000Y175000D02*
G54D16*
D03*
X510000Y200000D02*
G54D16*
D03*
X510000Y225000D02*
G54D16*
D03*
X510000Y250000D02*
G54D16*
D03*
X510000Y275000D02*
G54D16*
D03*
X510000Y300000D02*
G54D16*
D03*
X510000Y325000D02*
G54D16*
D03*
X510000Y350000D02*
G54D16*
D03*
X510000Y375000D02*
G54D16*
D03*
X510000Y400000D02*
G54D16*
D03*
X510000Y425000D02*
G54D16*
D03*
X510000Y452500D02*
G54D16*
D03*
X510000Y477500D02*
G54D16*
D03*
X510000Y502500D02*
G54D16*
D03*
G36*
X450500Y407000D02*
X464500Y407000D01*
X464500Y393000D01*
X450500Y393000D01*
X450500Y407000D01*
G37*
X457500Y375000D02*
G54D16*
D03*
X457500Y350000D02*
G54D16*
D03*
X457500Y325000D02*
G54D16*
D03*
X457500Y300000D02*
G54D16*
D03*
X457500Y275000D02*
G54D16*
D03*
X457500Y250000D02*
G54D16*
D03*
X457500Y225000D02*
G54D16*
D03*
X380000Y225000D02*
G54D16*
D03*
X380000Y250000D02*
G54D16*
D03*
X380000Y275000D02*
G54D16*
D03*
X380000Y300000D02*
G54D16*
D03*
X380000Y325000D02*
G54D16*
D03*
X380000Y350000D02*
G54D16*
D03*
X380000Y375000D02*
G54D16*
D03*
X380000Y400000D02*
G54D16*
D03*
G36*
X275500Y457000D02*
X289500Y457000D01*
X289500Y443000D01*
X275500Y443000D01*
X275500Y457000D01*
G37*
X282500Y425000D02*
G54D16*
D03*
X282500Y400000D02*
G54D16*
D03*
X282500Y375000D02*
G54D16*
D03*
X282500Y350000D02*
G54D16*
D03*
X282500Y325000D02*
G54D16*
D03*
X282500Y300000D02*
G54D16*
D03*
X282500Y275000D02*
G54D16*
D03*
X282500Y250000D02*
G54D16*
D03*
X282500Y225000D02*
G54D16*
D03*
X282500Y200000D02*
G54D16*
D03*
X282500Y175000D02*
G54D16*
D03*
X130000Y175000D02*
G54D16*
D03*
X130000Y200000D02*
G54D16*
D03*
X130000Y225000D02*
G54D16*
D03*
X130000Y250000D02*
G54D16*
D03*
X130000Y275000D02*
G54D16*
D03*
X130000Y300000D02*
G54D16*
D03*
X130000Y325000D02*
G54D16*
D03*
X130000Y350000D02*
G54D16*
D03*
X130000Y375000D02*
G54D16*
D03*
X130000Y400000D02*
G54D16*
D03*
X130000Y425000D02*
G54D16*
D03*
X130000Y450000D02*
G54D16*
D03*
G36*
X713000Y619500D02*
X727000Y619500D01*
X727000Y605500D01*
X713000Y605500D01*
X713000Y619500D01*
G37*
X745000Y612500D02*
G54D16*
D03*
X770000Y612500D02*
G54D16*
D03*
X935000Y162500D02*
G54D18*
D03*
X960000Y162500D02*
G54D18*
D03*
X935000Y137500D02*
G54D18*
D03*
X960000Y137500D02*
G54D18*
D03*
X985000Y162500D02*
G54D18*
D03*
X1010000Y162500D02*
G54D18*
D03*
X985000Y137500D02*
G54D18*
D03*
X1010000Y137500D02*
G54D18*
D03*
X985000Y187500D02*
G54D18*
D03*
X1010000Y187500D02*
G54D18*
D03*
X1035000Y162500D02*
G54D18*
D03*
X1035000Y137500D02*
G54D18*
D03*
X1060000Y162500D02*
G54D18*
D03*
X1085000Y162500D02*
G54D18*
D03*
X1060000Y137500D02*
G54D18*
D03*
G36*
X1702000Y145500D02*
X1718000Y145500D01*
X1718000Y129500D01*
X1702000Y129500D01*
X1702000Y145500D01*
G37*
X960000Y187500D02*
G54D18*
D03*
X1085000Y137500D02*
G54D18*
D03*
X1060000Y187500D02*
G54D18*
D03*
X1085000Y187500D02*
G54D18*
D03*
X1035000Y187500D02*
G54D18*
D03*
X1110000Y162500D02*
G54D18*
D03*
X1110000Y137500D02*
G54D18*
D03*
X1135000Y162500D02*
G54D18*
D03*
X1160000Y162500D02*
G54D18*
D03*
X1135000Y137500D02*
G54D18*
D03*
X1160000Y137500D02*
G54D18*
D03*
X1135000Y187500D02*
G54D18*
D03*
X1160000Y187500D02*
G54D18*
D03*
X1185000Y162500D02*
G54D18*
D03*
X1185000Y137500D02*
G54D18*
D03*
X1210000Y162500D02*
G54D18*
D03*
X1235000Y162500D02*
G54D18*
D03*
X1210000Y137500D02*
G54D18*
D03*
X1110000Y187500D02*
G54D18*
D03*
X1235000Y137500D02*
G54D18*
D03*
X1210000Y187500D02*
G54D18*
D03*
X1235000Y187500D02*
G54D18*
D03*
X1185000Y187500D02*
G54D18*
D03*
X1260000Y162500D02*
G54D18*
D03*
X1285000Y162500D02*
G54D18*
D03*
X1260000Y137500D02*
G54D18*
D03*
X1285000Y137500D02*
G54D18*
D03*
X1310000Y162500D02*
G54D18*
D03*
X1335000Y162500D02*
G54D18*
D03*
X1310000Y137500D02*
G54D18*
D03*
X1335000Y137500D02*
G54D18*
D03*
X1310000Y187500D02*
G54D18*
D03*
X1335000Y187500D02*
G54D18*
D03*
X1360000Y162500D02*
G54D18*
D03*
X1360000Y137500D02*
G54D18*
D03*
X1385000Y162500D02*
G54D18*
D03*
X1410000Y162500D02*
G54D18*
D03*
X1385000Y137500D02*
G54D18*
D03*
X1260000Y187500D02*
G54D18*
D03*
X1285000Y187500D02*
G54D18*
D03*
X1410000Y137500D02*
G54D18*
D03*
X1385000Y187500D02*
G54D18*
D03*
X1410000Y187500D02*
G54D18*
D03*
X1360000Y187500D02*
G54D18*
D03*
X1435000Y162500D02*
G54D18*
D03*
X1435000Y137500D02*
G54D18*
D03*
X1460000Y162500D02*
G54D18*
D03*
X1485000Y162500D02*
G54D18*
D03*
X1460000Y137500D02*
G54D18*
D03*
X1485000Y137500D02*
G54D18*
D03*
X1460000Y187500D02*
G54D18*
D03*
X1485000Y187500D02*
G54D18*
D03*
X1510000Y162500D02*
G54D18*
D03*
X1510000Y137500D02*
G54D18*
D03*
X1535000Y162500D02*
G54D18*
D03*
X1560000Y162500D02*
G54D18*
D03*
X1535000Y137500D02*
G54D18*
D03*
X1435000Y187500D02*
G54D18*
D03*
X1560000Y137500D02*
G54D18*
D03*
X1535000Y187500D02*
G54D18*
D03*
X1560000Y187500D02*
G54D18*
D03*
X1510000Y187500D02*
G54D18*
D03*
X1585000Y162500D02*
G54D18*
D03*
X1585000Y137500D02*
G54D18*
D03*
X1610000Y162500D02*
G54D18*
D03*
X1635000Y162500D02*
G54D18*
D03*
X1610000Y137500D02*
G54D18*
D03*
X1635000Y137500D02*
G54D18*
D03*
X1610000Y187500D02*
G54D18*
D03*
X1635000Y187500D02*
G54D18*
D03*
X1660000Y162500D02*
G54D18*
D03*
X1660000Y137500D02*
G54D18*
D03*
X1685000Y162500D02*
G54D18*
D03*
X1710000Y162500D02*
G54D18*
D03*
X1685000Y137500D02*
G54D18*
D03*
X1585000Y187500D02*
G54D18*
D03*
X935000Y187500D02*
G54D18*
D03*
X1685000Y187500D02*
G54D18*
D03*
X1710000Y187500D02*
G54D18*
D03*
X1660000Y187500D02*
G54D18*
D03*
G36*
X747500Y550000D02*
X762500Y550000D01*
X762500Y535000D01*
X747500Y535000D01*
X747500Y550000D01*
G37*
X730000Y542500D02*
G54D19*
D03*
X755000Y517500D02*
G54D19*
D03*
X730000Y517500D02*
G54D19*
D03*
X755000Y492500D02*
G54D19*
D03*
X730000Y492500D02*
G54D19*
D03*
X755000Y467500D02*
G54D19*
D03*
X730000Y467500D02*
G54D19*
D03*
X755000Y440000D02*
G54D19*
D03*
X730000Y440000D02*
G54D19*
D03*
X755000Y415000D02*
G54D19*
D03*
X730000Y415000D02*
G54D19*
D03*
X755000Y390000D02*
G54D19*
D03*
X730000Y390000D02*
G54D19*
D03*
X755000Y365000D02*
G54D19*
D03*
X730000Y365000D02*
G54D19*
D03*
X755000Y340000D02*
G54D19*
D03*
X730000Y340000D02*
G54D19*
D03*
X755000Y315000D02*
G54D19*
D03*
X730000Y315000D02*
G54D19*
D03*
X755000Y290000D02*
G54D19*
D03*
X730000Y290000D02*
G54D19*
D03*
X755000Y262500D02*
G54D19*
D03*
X730000Y262500D02*
G54D19*
D03*
X755000Y237500D02*
G54D19*
D03*
X730000Y237500D02*
G54D19*
D03*
X755000Y212500D02*
G54D19*
D03*
X730000Y212500D02*
G54D19*
D03*
X755000Y187500D02*
G54D19*
D03*
X730000Y187500D02*
G54D19*
D03*
X755000Y162500D02*
G54D19*
D03*
X730000Y162500D02*
G54D19*
D03*
X755000Y137500D02*
G54D19*
D03*
X730000Y137500D02*
G54D19*
D03*
G36*
X373000Y719500D02*
X387000Y719500D01*
X387000Y705500D01*
X373000Y705500D01*
X373000Y719500D01*
G37*
X405000Y712500D02*
G54D16*
D03*
X430000Y712500D02*
G54D16*
D03*
G36*
X373000Y769500D02*
X387000Y769500D01*
X387000Y755500D01*
X373000Y755500D01*
X373000Y769500D01*
G37*
X405000Y762500D02*
G54D16*
D03*
X430000Y762500D02*
G54D16*
D03*
G36*
X397000Y665500D02*
X413000Y665500D01*
X413000Y649500D01*
X397000Y649500D01*
X397000Y665500D01*
G37*
X380000Y657500D02*
G54D20*
D03*
X405000Y632500D02*
G54D20*
D03*
X380000Y632500D02*
G54D20*
D03*
X405000Y607500D02*
G54D20*
D03*
X380000Y607500D02*
G54D20*
D03*
X405000Y582500D02*
G54D20*
D03*
X380000Y582500D02*
G54D20*
D03*
X405000Y557500D02*
G54D20*
D03*
X380000Y557500D02*
G54D20*
D03*
X795000Y665000D02*
G54D16*
D03*
X695000Y665000D02*
G54D16*
D03*
X1035000Y670000D02*
G54D16*
D03*
X1035000Y770000D02*
G54D16*
D03*
X1880000Y357500D02*
G54D16*
D03*
X1775000Y357500D02*
G54D16*
D03*
X1277500Y662500D02*
G54D16*
D03*
X1177500Y662500D02*
G54D16*
D03*
X1875000Y517500D02*
G54D16*
D03*
X1772500Y517500D02*
G54D16*
D03*
X1652500Y770000D02*
G54D16*
D03*
X1652500Y670000D02*
G54D16*
D03*
X1645000Y482500D02*
G54D16*
D03*
X1645000Y382500D02*
G54D16*
D03*
X1645000Y517500D02*
G54D16*
D03*
X1747500Y517500D02*
G54D16*
D03*
X1077500Y470000D02*
G54D16*
D03*
X1077500Y572500D02*
G54D16*
D03*
X1417500Y557500D02*
G54D16*
D03*
X1417500Y657500D02*
G54D16*
D03*
X1320000Y557500D02*
G54D16*
D03*
X1320000Y657500D02*
G54D16*
D03*
X835000Y665000D02*
G54D16*
D03*
X935000Y665000D02*
G54D16*
D03*
X795000Y527500D02*
G54D16*
D03*
X897500Y527500D02*
G54D16*
D03*
X930000Y527500D02*
G54D16*
D03*
X1032500Y527500D02*
G54D16*
D03*
X930000Y477500D02*
G54D16*
D03*
X1032500Y477500D02*
G54D16*
D03*
X795000Y477500D02*
G54D16*
D03*
X897500Y477500D02*
G54D16*
D03*
X-30000Y297500D02*
G54D16*
D03*
X-30000Y400000D02*
G54D16*
D03*
X25000Y567500D02*
G54D16*
D03*
X25000Y670000D02*
G54D16*
D03*
X75000Y300000D02*
G54D16*
D03*
X75000Y400000D02*
G54D16*
D03*
X332500Y225000D02*
G54D16*
D03*
X332500Y325000D02*
G54D16*
D03*
X75000Y172500D02*
G54D16*
D03*
X75000Y272500D02*
G54D16*
D03*
X22500Y427500D02*
G54D16*
D03*
X22500Y527500D02*
G54D16*
D03*
X1077500Y707500D02*
G54D16*
D03*
X1077500Y770000D02*
G54D16*
D03*
G36*
X68000Y677000D02*
X82000Y677000D01*
X82000Y663000D01*
X68000Y663000D01*
X68000Y677000D01*
G37*
X75000Y567500D02*
G54D16*
D03*
G36*
X68000Y434500D02*
X82000Y434500D01*
X82000Y420500D01*
X68000Y420500D01*
X68000Y434500D01*
G37*
X75000Y527500D02*
G54D16*
D03*
G36*
X-37000Y179500D02*
X-23000Y179500D01*
X-23000Y165500D01*
X-37000Y165500D01*
X-37000Y179500D01*
G37*
X-30000Y272500D02*
G54D16*
D03*
G36*
X325500Y484500D02*
X339500Y484500D01*
X339500Y470500D01*
X325500Y470500D01*
X325500Y484500D01*
G37*
X332500Y580000D02*
G54D16*
D03*
G36*
X325500Y357000D02*
X339500Y357000D01*
X339500Y343000D01*
X325500Y343000D01*
X325500Y357000D01*
G37*
X332500Y452500D02*
G54D16*
D03*
G54D21*
X12500Y207500D02*
X22500Y207500D01*
G54D21*
X12500Y222500D02*
X22500Y222500D01*
X722500Y760000D02*
G54D16*
D03*
X770000Y760000D02*
G54D16*
D03*
G36*
X603000Y769500D02*
X617000Y769500D01*
X617000Y755500D01*
X603000Y755500D01*
X603000Y769500D01*
G37*
X610000Y685000D02*
G54D16*
D03*
X535000Y685000D02*
G54D16*
D03*
X535000Y762500D02*
G54D16*
D03*
X-37500Y527500D02*
G54D17*
D03*
X-10000Y527500D02*
G54D17*
D03*
X680000Y175000D02*
G54D13*
D03*
X20000Y392500D02*
G54D16*
D03*
X-30000Y400000D02*
G54D16*
D03*
X75000Y400000D02*
G54D16*
D03*
X22500Y427500D02*
G54D16*
D03*
G36*
X68000Y434500D02*
X82000Y434500D01*
X82000Y420500D01*
X68000Y420500D01*
X68000Y434500D01*
G37*
G54D21*
X12500Y192500D02*
X22500Y192500D01*
X1425000Y295000D02*
G54D13*
D03*
X1422500Y310000D02*
G54D13*
D03*
X747500Y795000D02*
G54D13*
D03*
X742500Y113500D02*
G54D13*
D03*
X742500Y127500D02*
G54D13*
D03*
G54D22*
X742500Y127500D02*
X742500Y113500D01*
G54D22*
X771000Y65000D02*
X786000Y80000D01*
X1173500Y80000D01*
X1178500Y75000D01*
X1178500Y20000D01*
X1203500Y-5000D01*
G54D22*
X836000Y-130000D02*
X786000Y-80000D01*
X758500Y-80000D01*
G54D22*
X951000Y-130000D02*
X921000Y-130000D01*
X908500Y-117500D01*
X848500Y-117500D01*
X836000Y-105000D01*
G54D22*
X823500Y65000D02*
X861000Y65000D01*
G54D22*
X951000Y-80000D02*
X963500Y-67500D01*
X1128500Y-67500D01*
X1141000Y-55000D01*
G54D22*
X1368500Y-105000D02*
X1391000Y-82500D01*
X1391000Y-60000D01*
X1396000Y-55000D01*
X1436000Y-55000D01*
X1458500Y-77500D01*
X1471500Y-77500D01*
G54D22*
X951000Y-105000D02*
X966000Y-105000D01*
X978500Y-92500D01*
X1128500Y-92500D01*
X1141000Y-105000D01*
G54D22*
X758500Y-155000D02*
X771000Y-142500D01*
X861000Y-142500D01*
X873500Y-155000D01*
X933500Y-155000D01*
G54D22*
X758500Y-205000D02*
X786000Y-205000D01*
G54D22*
X1253500Y-55000D02*
X1241000Y-42500D01*
X1206000Y-42500D01*
X1158500Y5000D01*
X1158500Y27500D01*
X1141000Y45000D01*
G54D22*
X1158500Y7500D02*
X963500Y7500D01*
X951000Y20000D01*
X938500Y7500D01*
X848500Y7500D01*
X836000Y-5000D01*
G54D22*
X1368500Y-280000D02*
X1381000Y-267500D01*
X1416000Y-267500D01*
G54D22*
X1368500Y-255000D02*
X1378500Y-245000D01*
X1433500Y-245000D01*
X1456000Y-267500D01*
X1471500Y-267500D01*
G54D22*
X1368500Y-205000D02*
X1393500Y-180000D01*
X1433500Y-180000D01*
X1458500Y-205000D01*
X1471500Y-205000D01*
G54D22*
X1368500Y-155000D02*
X1378500Y-165000D01*
X1436000Y-165000D01*
X1441000Y-160000D01*
X1441000Y-142500D01*
X1446000Y-137500D01*
X1471500Y-137500D01*
G54D22*
X1416000Y-90000D02*
X1471500Y-90000D01*
G54D22*
X1471500Y-280000D02*
X1416000Y-280000D01*
G54D22*
X1471500Y-217500D02*
X1416000Y-217500D01*
G54D22*
X1503500Y-75000D02*
X1491000Y-87500D01*
X1491000Y-102500D01*
X1486000Y-107500D01*
X1421000Y-107500D01*
X1416000Y-112500D01*
X1416000Y-125000D01*
G54D22*
X988500Y-155000D02*
X950400Y-155000D01*
G54D22*
X988500Y-130000D02*
X976000Y-142500D01*
X911000Y-142500D01*
X898500Y-130000D01*
X873500Y-130000D01*
G54D22*
X988500Y-105000D02*
X976000Y-117500D01*
X933500Y-117500D01*
X921000Y-105000D01*
X873500Y-105000D01*
G54D22*
X988500Y-80000D02*
X973500Y-80000D01*
X961000Y-92500D01*
X886000Y-92500D01*
X873500Y-80000D01*
G54D22*
X873500Y-30000D02*
X921000Y-30000D01*
X933500Y-42500D01*
X976000Y-42500D01*
X988500Y-55000D01*
G54D22*
X873500Y-5000D02*
X886000Y-17500D01*
X963500Y-17500D01*
X976000Y-30000D01*
X988500Y-30000D01*
G54D22*
X936000Y-67500D02*
X911000Y-67500D01*
X898500Y-55000D01*
X873500Y-55000D01*
G54D22*
X973500Y32500D02*
X958500Y47500D01*
X821000Y47500D01*
X816000Y42500D01*
X816000Y-37500D01*
X821000Y-42500D01*
X911000Y-42500D01*
X923500Y-55000D01*
X951000Y-55000D01*
G54D22*
X1141000Y-80000D02*
X1153500Y-67500D01*
X1153500Y-22500D01*
X1148500Y-17500D01*
X978500Y-17500D01*
X966000Y-5000D01*
X951000Y-5000D01*
G54D22*
X873500Y20000D02*
X888500Y37500D01*
X953500Y37500D01*
X971000Y20000D01*
X988500Y20000D01*
G54D22*
X1013500Y-192500D02*
X898500Y-192500D01*
X886000Y-205000D01*
G54D22*
X1001000Y-167500D02*
X898500Y-167500D01*
X861000Y-205000D01*
G54D22*
X1178500Y-105000D02*
X1166000Y-117500D01*
X1116000Y-117500D01*
X1028500Y-205000D01*
X988500Y-205000D01*
G54D22*
X1178500Y-130000D02*
X1163500Y-130000D01*
X1151000Y-142500D01*
X1128500Y-142500D01*
X1041000Y-230000D01*
X988500Y-230000D01*
G54D22*
X1178500Y-205000D02*
X1165800Y-217700D01*
X1127700Y-217700D01*
X1089600Y-255800D01*
X988000Y-255800D01*
G54D22*
X1253500Y-230000D02*
X1241000Y-242500D01*
X1151000Y-242500D01*
X1138500Y-255000D01*
G54D22*
X1253500Y-102500D02*
X1231275Y-102500D01*
X1190675Y-143100D01*
X1165275Y-143100D01*
X1158250Y-150125D01*
X1158250Y-159650D01*
X1139200Y-178700D01*
G54D22*
X1368500Y-230000D02*
X1393500Y-205000D01*
X1416000Y-205000D01*
G54D22*
X1503500Y-172500D02*
X1476500Y-172500D01*
X1471500Y-177500D01*
X1471500Y-192500D01*
G54D22*
X1368500Y-55000D02*
X1381000Y-42500D01*
X1511000Y-42500D01*
X1514000Y-46000D01*
X1514000Y-118500D01*
X1511000Y-125000D01*
X1471500Y-125000D01*
G54D22*
X1368500Y-80000D02*
X1381000Y-70000D01*
X1381000Y-52500D01*
X1386000Y-47500D01*
X1466500Y-47500D01*
X1471500Y-52500D01*
X1471500Y-65000D01*
G54D22*
X1293500Y-5000D02*
X1313500Y15000D01*
X1386000Y15000D01*
X1418500Y47500D01*
G54D22*
X1293500Y-30000D02*
X1278500Y-15000D01*
X1278500Y25000D01*
X1283500Y30000D01*
X1373500Y30000D01*
X1391000Y47500D01*
G54D22*
X1178500Y-155000D02*
X1191000Y-167500D01*
X1281000Y-167500D01*
X1293500Y-180000D01*
G54D22*
X1178500Y-180000D02*
X1198500Y-180000D01*
X1236000Y-217500D01*
X1281000Y-217500D01*
X1293500Y-230000D01*
G54D22*
X1178500Y-255000D02*
X1191200Y-267700D01*
X1283275Y-267700D01*
X1295975Y-280400D01*
G54D22*
X1253500Y-255000D02*
X1294775Y-255000D01*
G54D22*
X1253500Y-180000D02*
X1266200Y-180000D01*
X1291600Y-205400D01*
G54D22*
X1253500Y-155000D02*
X1293600Y-155150D01*
X933500Y-155000D02*
G54D13*
D03*
X936000Y-67500D02*
G54D13*
D03*
X973500Y32500D02*
G54D13*
D03*
X1013500Y-192500D02*
G54D13*
D03*
X1001000Y-167500D02*
G54D13*
D03*
X1228500Y-5000D02*
G54D20*
D03*
G36*
X1195500Y3000D02*
X1211500Y3000D01*
X1211500Y-13000D01*
X1195500Y-13000D01*
X1195500Y3000D01*
G37*
G36*
X1220500Y55500D02*
X1236500Y55500D01*
X1236500Y39500D01*
X1220500Y39500D01*
X1220500Y55500D01*
G37*
X1203500Y47500D02*
G54D20*
D03*
X1493500Y47500D02*
G54D20*
D03*
X1468500Y47500D02*
G54D20*
D03*
X1443500Y47500D02*
G54D20*
D03*
X1418500Y47500D02*
G54D20*
D03*
X1391000Y47500D02*
G54D20*
D03*
X1366000Y47500D02*
G54D20*
D03*
X1341000Y47500D02*
G54D20*
D03*
X1316000Y47500D02*
G54D20*
D03*
G36*
X1283000Y55500D02*
X1299000Y55500D01*
X1299000Y39500D01*
X1283000Y39500D01*
X1283000Y55500D01*
G37*
G54D21*
X1411000Y-77500D02*
X1421000Y-77500D01*
G54D21*
X1411000Y-65000D02*
X1421000Y-65000D01*
G54D21*
X1411000Y-137500D02*
X1421000Y-137500D01*
G54D21*
X1411000Y-125000D02*
X1421000Y-125000D01*
G54D21*
X1411000Y-205000D02*
X1421000Y-205000D01*
G54D21*
X1411000Y-192500D02*
X1421000Y-192500D01*
G54D21*
X1411000Y-267500D02*
X1421000Y-267500D01*
G54D21*
X1411000Y-255000D02*
X1421000Y-255000D01*
G54D21*
X1466500Y-267500D02*
X1476500Y-267500D01*
G54D21*
X1466500Y-255000D02*
X1476500Y-255000D01*
G54D21*
X1466500Y-205000D02*
X1476500Y-205000D01*
G54D21*
X1466500Y-192500D02*
X1476500Y-192500D01*
G54D21*
X1466500Y-137500D02*
X1476500Y-137500D01*
G54D21*
X1466500Y-125000D02*
X1476500Y-125000D01*
G54D21*
X1466500Y-77500D02*
X1476500Y-77500D01*
G54D21*
X1466500Y-65000D02*
X1476500Y-65000D01*
X861000Y65000D02*
G54D23*
D03*
X963500Y65000D02*
G54D23*
D03*
X823500Y65000D02*
G54D24*
D03*
X798500Y40000D02*
G54D24*
D03*
X771000Y65000D02*
G54D24*
D03*
X1368500Y-130000D02*
G54D23*
D03*
X1293500Y-130000D02*
G54D23*
D03*
X1368500Y-180000D02*
G54D23*
D03*
X1293500Y-180000D02*
G54D23*
D03*
X1368500Y-230000D02*
G54D23*
D03*
X1293500Y-230000D02*
G54D23*
D03*
X1368500Y-280000D02*
G54D23*
D03*
X1293500Y-280000D02*
G54D23*
D03*
X1368500Y-255000D02*
G54D23*
D03*
X1293500Y-255000D02*
G54D23*
D03*
X1368500Y-205000D02*
G54D23*
D03*
X1293500Y-205000D02*
G54D23*
D03*
X1368500Y-155000D02*
G54D23*
D03*
X1293500Y-155000D02*
G54D23*
D03*
X1368500Y-105000D02*
G54D23*
D03*
X1293500Y-105000D02*
G54D23*
D03*
X1471000Y-30000D02*
G54D23*
D03*
X1393500Y-30000D02*
G54D23*
D03*
X1503500Y2500D02*
G54D23*
D03*
X1503500Y-75000D02*
G54D23*
D03*
X1503500Y-205000D02*
G54D23*
D03*
X1503500Y-280000D02*
G54D23*
D03*
X1293500Y-5000D02*
G54D23*
D03*
X1368500Y-5000D02*
G54D23*
D03*
X1293500Y-30000D02*
G54D23*
D03*
X1368500Y-30000D02*
G54D23*
D03*
X1503500Y-100000D02*
G54D23*
D03*
X1503500Y-172500D02*
G54D23*
D03*
X1293500Y-55000D02*
G54D23*
D03*
X1368500Y-55000D02*
G54D23*
D03*
X1293500Y-80000D02*
G54D23*
D03*
X1368500Y-80000D02*
G54D23*
D03*
G36*
X751000Y2500D02*
X766000Y2500D01*
X766000Y-12500D01*
X751000Y-12500D01*
X751000Y2500D01*
G37*
X758500Y-30000D02*
G54D23*
D03*
X758500Y-55000D02*
G54D23*
D03*
X758500Y-80000D02*
G54D23*
D03*
X758500Y-105000D02*
G54D23*
D03*
X758500Y-130000D02*
G54D23*
D03*
X758500Y-155000D02*
G54D23*
D03*
X836000Y-155000D02*
G54D23*
D03*
X836000Y-130000D02*
G54D23*
D03*
X836000Y-105000D02*
G54D23*
D03*
X836000Y-80000D02*
G54D23*
D03*
X836000Y-55000D02*
G54D23*
D03*
X836000Y-30000D02*
G54D23*
D03*
X836000Y-5000D02*
G54D23*
D03*
G36*
X866000Y27500D02*
X881000Y27500D01*
X881000Y12500D01*
X866000Y12500D01*
X866000Y27500D01*
G37*
X873500Y-5000D02*
G54D23*
D03*
X873500Y-30000D02*
G54D23*
D03*
X873500Y-55000D02*
G54D23*
D03*
X873500Y-80000D02*
G54D23*
D03*
X873500Y-105000D02*
G54D23*
D03*
X873500Y-130000D02*
G54D23*
D03*
X873500Y-155000D02*
G54D23*
D03*
X951000Y-155000D02*
G54D23*
D03*
X951000Y-130000D02*
G54D23*
D03*
X951000Y-105000D02*
G54D23*
D03*
X951000Y-80000D02*
G54D23*
D03*
X951000Y-55000D02*
G54D23*
D03*
X951000Y-30000D02*
G54D23*
D03*
X951000Y-5000D02*
G54D23*
D03*
X951000Y20000D02*
G54D23*
D03*
G36*
X981000Y52500D02*
X996000Y52500D01*
X996000Y37500D01*
X981000Y37500D01*
X981000Y52500D01*
G37*
X988500Y20000D02*
G54D23*
D03*
X988500Y-5000D02*
G54D23*
D03*
X988500Y-30000D02*
G54D23*
D03*
X988500Y-55000D02*
G54D23*
D03*
X988500Y-80000D02*
G54D23*
D03*
X988500Y-105000D02*
G54D23*
D03*
X988500Y-130000D02*
G54D23*
D03*
X988500Y-155000D02*
G54D23*
D03*
X988500Y-180000D02*
G54D23*
D03*
X988500Y-205000D02*
G54D23*
D03*
X988500Y-230000D02*
G54D23*
D03*
X988500Y-255000D02*
G54D23*
D03*
X988500Y-280000D02*
G54D23*
D03*
X1141000Y-280000D02*
G54D23*
D03*
X1141000Y-255000D02*
G54D23*
D03*
X1141000Y-230000D02*
G54D23*
D03*
X1141000Y-205000D02*
G54D23*
D03*
X1141000Y-180000D02*
G54D23*
D03*
X1141000Y-155000D02*
G54D23*
D03*
X1141000Y-130000D02*
G54D23*
D03*
X1141000Y-105000D02*
G54D23*
D03*
X1141000Y-80000D02*
G54D23*
D03*
X1141000Y-55000D02*
G54D23*
D03*
X1141000Y-30000D02*
G54D23*
D03*
X1141000Y-5000D02*
G54D23*
D03*
X1141000Y20000D02*
G54D23*
D03*
X1141000Y45000D02*
G54D23*
D03*
G36*
X928500Y-197500D02*
X943500Y-197500D01*
X943500Y-212500D01*
X928500Y-212500D01*
X928500Y-197500D01*
G37*
X911000Y-205000D02*
G54D23*
D03*
X886000Y-205000D02*
G54D23*
D03*
X861000Y-205000D02*
G54D23*
D03*
X836000Y-205000D02*
G54D23*
D03*
X811000Y-205000D02*
G54D23*
D03*
X786000Y-205000D02*
G54D23*
D03*
X758500Y-205000D02*
G54D23*
D03*
X758500Y-280000D02*
G54D23*
D03*
X786000Y-280000D02*
G54D23*
D03*
X811000Y-280000D02*
G54D23*
D03*
X836000Y-280000D02*
G54D23*
D03*
X861000Y-280000D02*
G54D23*
D03*
X886000Y-280000D02*
G54D23*
D03*
X911000Y-280000D02*
G54D23*
D03*
X936000Y-280000D02*
G54D23*
D03*
G36*
X1171000Y-47500D02*
X1186000Y-47500D01*
X1186000Y-62500D01*
X1171000Y-62500D01*
X1171000Y-47500D01*
G37*
X1178500Y-80000D02*
G54D23*
D03*
X1178500Y-105000D02*
G54D23*
D03*
X1178500Y-130000D02*
G54D23*
D03*
X1178500Y-155000D02*
G54D23*
D03*
X1178500Y-180000D02*
G54D23*
D03*
X1178500Y-205000D02*
G54D23*
D03*
X1178500Y-230000D02*
G54D23*
D03*
X1178500Y-255000D02*
G54D23*
D03*
X1178500Y-280000D02*
G54D23*
D03*
X1253500Y-55000D02*
G54D23*
D03*
X1253500Y-80000D02*
G54D23*
D03*
X1253500Y-105000D02*
G54D23*
D03*
X1253500Y-130000D02*
G54D23*
D03*
X1253500Y-155000D02*
G54D23*
D03*
X1253500Y-180000D02*
G54D23*
D03*
X1253500Y-205000D02*
G54D23*
D03*
X1253500Y-230000D02*
G54D23*
D03*
X1253500Y-255000D02*
G54D23*
D03*
X1253500Y-280000D02*
G54D23*
D03*
G54D21*
X1411000Y-90000D02*
X1421000Y-90000D01*
G54D21*
X1466500Y-90000D02*
X1476500Y-90000D01*
G54D21*
X1411000Y-150000D02*
X1421000Y-150000D01*
G54D21*
X1466500Y-150000D02*
X1476500Y-150000D01*
G54D21*
X1411000Y-217500D02*
X1421000Y-217500D01*
G54D21*
X1466500Y-217500D02*
X1476500Y-217500D01*
G54D21*
X1411000Y-280000D02*
X1421000Y-280000D01*
G54D21*
X1466500Y-280000D02*
X1476500Y-280000D01*
X1866397Y-117881D02*
G54D16*
D03*
X1841397Y-117881D02*
G54D16*
D03*
X1816397Y-117881D02*
G54D16*
D03*
X1866397Y-135381D02*
G54D16*
D03*
X1841397Y-135381D02*
G54D16*
D03*
X1816397Y-135381D02*
G54D16*
D03*
X1866397Y-215381D02*
G54D16*
D03*
X1841397Y-215381D02*
G54D16*
D03*
X1816397Y-215381D02*
G54D16*
D03*
G54D22*
X1816397Y-117881D02*
X1816397Y-135381D01*
G54D22*
X1841397Y-117881D02*
X1841397Y-135381D01*
G54D22*
X1866397Y-117881D02*
X1866397Y-135381D01*
G54D22*
X1816397Y-215381D02*
X1841397Y-215381D01*
X1866397Y-215381D01*
X1816397Y-235381D02*
G54D16*
D03*
X1816397Y-315381D02*
G54D16*
D03*
G54D22*
X1816397Y-215381D02*
X1816397Y-235381D01*
X1841397Y-285381D02*
G54D16*
D03*
X1841397Y-260381D02*
G54D16*
D03*
X1841397Y-235381D02*
G54D16*
D03*
X1866397Y-235381D02*
G54D16*
D03*
X1866397Y-315381D02*
G54D16*
D03*
X1841397Y-315381D02*
G54D16*
D03*
G54D22*
X1816397Y-315381D02*
X1816397Y-310381D01*
X1841397Y-285381D01*
G54D22*
X1841397Y-260381D02*
X1866397Y-235381D01*
G54D22*
X1841397Y-260381D02*
X1848897Y-260381D01*
X1853897Y-265381D01*
X1853897Y-310381D01*
X1848897Y-315381D01*
X1841397Y-315381D01*
X1891397Y-215381D02*
G54D16*
D03*
X1888897Y-315381D02*
G54D16*
D03*
G54D22*
X1891397Y-215381D02*
X1881397Y-225381D01*
X1851397Y-225381D01*
X1841397Y-235381D01*
G54D22*
X1866397Y-315381D02*
X1888897Y-315381D01*
G54D25*
X26988Y-23652D02*
X63500Y-23652D01*
G54D25*
X81756Y57310D02*
X101600Y57310D01*
X115888Y71598D01*
X264319Y71598D01*
X278606Y57310D01*
X311944Y57310D01*
G54D11*
X646112Y-16508D02*
X646112Y-159383D01*
X648494Y-161764D01*
X680244Y-161764D01*
G54D10*
X-23019Y-248577D02*
X-23019Y-260983D01*
X-19844Y-264158D01*
X58738Y-264158D01*
X75406Y-247490D01*
X126206Y-247490D01*
X141288Y-262571D01*
X294481Y-262571D01*
X296862Y-264952D01*
X296862Y-271302D01*
X311150Y-285590D01*
X332581Y-285590D01*
X381000Y-285590D01*
X387350Y-279240D01*
X451644Y-279240D01*
X457994Y-285590D01*
X477044Y-285590D01*
G54D10*
X126206Y-272890D02*
X138906Y-285590D01*
X286544Y-285590D01*
X299244Y-298290D01*
X332581Y-298290D01*
X389731Y-298290D01*
X396081Y-304640D01*
X440531Y-304640D01*
X446881Y-298290D01*
X477044Y-298290D01*
G54D10*
X477044Y-310990D02*
X456406Y-310990D01*
X450056Y-317340D01*
X374650Y-317340D01*
X368300Y-310990D01*
X332581Y-310990D01*
X234950Y-310990D01*
X222250Y-298290D01*
X126206Y-298290D01*
X109538Y-281621D01*
X-31750Y-281621D01*
X-34131Y-279240D01*
X-34131Y-209786D01*
X-23019Y-198571D01*
G54D10*
X278606Y-323690D02*
X216694Y-323690D01*
X203994Y-310990D01*
X112712Y-310990D01*
X109538Y-307814D01*
X-35719Y-307814D01*
X-38100Y-305433D01*
X-38100Y-188752D01*
X-23019Y-173671D01*
G54D10*
X570706Y-323690D02*
X554038Y-323690D01*
X547688Y-317340D01*
X461962Y-317340D01*
X455612Y-323690D01*
X426244Y-323690D01*
X350838Y-323690D01*
G54D10*
X381000Y-310990D02*
X426244Y-310990D01*
X445294Y-310990D01*
X451644Y-304640D01*
X489744Y-304640D01*
X496094Y-310990D01*
X570706Y-310990D01*
G54D10*
X278606Y-272890D02*
X286544Y-272890D01*
X305594Y-291940D01*
X404019Y-291940D01*
X410369Y-298290D01*
X426244Y-298290D01*
G54D10*
X494506Y-298290D02*
X570625Y-298290D01*
G54D10*
X525462Y-337577D02*
X525462Y-341846D01*
X523775Y-343533D01*
X-43656Y-343533D01*
X-46038Y-341152D01*
X-46038Y-122077D01*
X-23019Y-99058D01*
X-11112Y-110964D01*
X-10319Y-257808D01*
X-7938Y-260190D01*
X42069Y-260190D01*
X65088Y-237171D01*
X141288Y-237171D01*
X151606Y-247490D01*
X278606Y-247490D01*
G54D10*
X570706Y-285590D02*
X530225Y-285590D01*
X525462Y-290352D01*
X523875Y-291940D01*
X449262Y-291940D01*
X442912Y-285590D01*
X426244Y-285590D01*
G54D10*
X510381Y-272890D02*
X570325Y-272890D01*
G54D10*
X410369Y-272890D02*
X425869Y-272890D01*
G54D10*
X278606Y-222090D02*
X184570Y-222090D01*
G54D10*
X50006Y-232408D02*
X164306Y-232408D01*
G54D10*
X2088Y-248577D02*
X14288Y-236377D01*
X34131Y-236377D01*
X48419Y-222090D01*
X125412Y-222090D01*
X168275Y-222090D01*
X183356Y-237171D01*
X286544Y-237171D01*
X303212Y-253840D01*
X350838Y-253840D01*
X353219Y-256221D01*
X353219Y-266540D01*
X451644Y-266540D01*
X457994Y-272890D01*
X476250Y-272890D01*
G54D10*
X353219Y-266540D02*
X353219Y-270508D01*
X350838Y-272890D01*
X332581Y-272890D01*
G54D10*
X369094Y-279240D02*
X316706Y-279240D01*
X314325Y-276858D01*
X314325Y-268921D01*
X314325Y-262571D01*
X316706Y-260190D01*
X332581Y-260190D01*
G54D10*
X126206Y-196690D02*
X110331Y-196690D01*
X96044Y-210977D01*
X14684Y-210977D01*
X2088Y-223677D01*
G54D10*
X494506Y-283208D02*
X494506Y-262571D01*
X492125Y-260190D01*
X476250Y-260190D01*
G54D10*
X126206Y-171290D02*
X111125Y-171290D01*
X104775Y-177640D01*
X58738Y-177640D01*
X50006Y-186371D01*
X14288Y-186371D01*
X2088Y-198571D01*
G54D10*
X477044Y-247490D02*
X449262Y-247490D01*
X442912Y-241140D01*
X402431Y-241140D01*
X396081Y-247490D01*
X332581Y-247490D01*
X308769Y-247490D01*
X293688Y-232408D01*
X265112Y-232408D01*
X262731Y-230027D01*
X192881Y-230027D01*
G54D10*
X125412Y-145890D02*
X61119Y-145890D01*
X45244Y-161764D01*
X13891Y-161764D01*
X2088Y-173671D01*
G54D10*
X477044Y-234790D02*
X451644Y-234790D01*
X445294Y-228440D01*
X372269Y-228440D01*
X365919Y-234790D01*
X332581Y-234790D01*
X313531Y-234790D01*
X311944Y-237171D01*
G54D10*
X126206Y-120490D02*
X57150Y-120490D01*
X41275Y-136364D01*
X14288Y-136364D01*
X2088Y-148564D01*
G54D10*
X400844Y-222090D02*
X332581Y-222090D01*
X309562Y-222090D01*
X296862Y-209390D01*
X222250Y-209390D01*
G54D10*
X494506Y-222090D02*
X477044Y-222090D01*
G54D10*
X2088Y-123664D02*
X14684Y-110964D01*
X52388Y-110964D01*
X68262Y-95090D01*
X126206Y-95090D01*
X138906Y-107790D01*
X298450Y-107790D01*
X300831Y-110171D01*
X300831Y-175258D01*
X303212Y-177640D01*
X346075Y-177640D01*
X348456Y-175258D01*
X348456Y-164940D01*
X350838Y-162558D01*
X371475Y-162558D01*
X377825Y-168908D01*
X377825Y-213358D01*
X380206Y-215740D01*
X449262Y-215740D01*
X455612Y-209390D01*
X477044Y-209390D01*
G54D10*
X377825Y-209390D02*
X332581Y-209390D01*
G54D10*
X126206Y-69690D02*
X106362Y-69690D01*
X96838Y-79214D01*
X51594Y-79214D01*
X44450Y-86358D01*
X14288Y-86358D01*
X2088Y-99058D01*
G54D10*
X368300Y-196690D02*
X332581Y-196690D01*
X292100Y-196690D01*
X289719Y-194308D01*
X289719Y-160971D01*
X287338Y-158590D01*
X241300Y-158590D01*
G54D10*
X444500Y-196690D02*
X445000Y-196190D01*
X477082Y-196190D01*
G54D10*
X126206Y-44290D02*
X64294Y-44290D01*
X46831Y-61752D01*
G54D10*
X355600Y-118108D02*
X449262Y-118108D01*
X451644Y-120490D01*
X451644Y-181608D01*
X454025Y-183990D01*
X477044Y-183990D01*
G54D10*
X355600Y-172877D02*
X355600Y-181608D01*
X353219Y-183990D01*
X331788Y-183990D01*
G54D10*
X278606Y-69690D02*
X312762Y-35534D01*
X345300Y-35534D01*
X362738Y-18889D01*
G54D10*
X426244Y-196690D02*
X434181Y-196690D01*
X440531Y-190340D01*
X515938Y-190340D01*
X521494Y-196690D01*
X570706Y-196690D01*
G54D10*
X426244Y-196690D02*
X388938Y-196690D01*
X386556Y-194308D01*
X386556Y-166527D01*
X363538Y-143508D01*
G54D10*
X570706Y-209390D02*
X513556Y-209390D01*
X511175Y-207008D01*
X511175Y-203040D01*
X450850Y-203040D01*
X444500Y-209390D01*
X426244Y-209390D01*
G54D10*
X444500Y-161764D02*
X441325Y-164940D01*
X415131Y-164940D01*
X404019Y-176052D01*
G54D10*
X259556Y-199864D02*
X194469Y-199864D01*
X182562Y-210977D01*
X111125Y-210977D01*
X105569Y-216533D01*
X34131Y-216533D01*
X27006Y-223458D01*
G54D10*
X278606Y-171290D02*
X265112Y-184783D01*
X107950Y-184783D01*
X88900Y-203833D01*
X31750Y-203333D01*
X26988Y-198571D01*
G54D10*
X407194Y-247490D02*
X426244Y-247490D01*
G54D10*
X502444Y-247490D02*
X570444Y-247490D01*
G54D10*
X368300Y-186371D02*
X364331Y-190340D01*
X297656Y-190340D01*
X295275Y-187958D01*
X295275Y-137158D01*
X278606Y-120490D01*
X186531Y-120490D01*
X148431Y-158590D01*
X109538Y-158590D01*
X96838Y-171290D01*
X46831Y-171290D01*
X44847Y-173274D01*
X27006Y-173458D01*
G54D10*
X570706Y-222090D02*
X536575Y-222090D01*
X530225Y-215740D01*
X460375Y-215740D01*
X454025Y-222090D01*
X426244Y-222090D01*
G54D10*
X438944Y-1427D02*
X438944Y57310D01*
G54D10*
X536575Y-104614D02*
X536575Y-140333D01*
G54D10*
X477044Y-171290D02*
X489744Y-171290D01*
X507206Y-153827D01*
X507206Y-59371D01*
X504825Y-56990D01*
X308769Y-56990D01*
X306388Y-59371D01*
X306388Y-168908D01*
X308769Y-171290D01*
X332581Y-171290D01*
G54D10*
X126206Y-18890D02*
X139700Y-32383D01*
X250031Y-32383D01*
X255588Y-26827D01*
G54D10*
X444500Y-183990D02*
X426244Y-183990D01*
X396081Y-183990D01*
X393700Y-181608D01*
X393700Y-126840D01*
X391319Y-124458D01*
X325438Y-124458D01*
G54D10*
X232569Y-44290D02*
X219288Y-57571D01*
X102066Y-57571D01*
X85974Y-73663D01*
X41054Y-73663D01*
G54D10*
X570706Y-183990D02*
X494506Y-183990D01*
G54D10*
X278606Y-18890D02*
X260350Y-37146D01*
X215106Y-82390D01*
X111125Y-82390D01*
X105569Y-87946D01*
X59531Y-87946D01*
X48419Y-99058D01*
X26988Y-99058D01*
G54D10*
X332581Y-158590D02*
X314325Y-158590D01*
X311944Y-156208D01*
X311944Y-86358D01*
X315119Y-83183D01*
X316706Y-81596D01*
X488156Y-82390D01*
X500856Y-95090D01*
X500856Y-147477D01*
X489744Y-158590D01*
X477044Y-158590D01*
G54D10*
X26988Y-73658D02*
X14288Y-60561D01*
X14288Y4129D01*
X16669Y6510D01*
X126206Y6510D01*
G54D10*
X444500Y-145890D02*
X426050Y-145890D01*
G54D10*
X14288Y72392D02*
X20638Y78742D01*
X448469Y78742D01*
X450850Y76360D01*
X450850Y-29208D01*
X453231Y-31590D01*
X603250Y-31590D01*
X607219Y-35558D01*
X607219Y-159383D01*
X609600Y-161764D01*
X626269Y-161764D01*
G54D10*
X426244Y-260190D02*
X451644Y-260190D01*
X457994Y-253840D01*
X498475Y-253840D01*
X500856Y-256221D01*
X500856Y-276858D01*
X503238Y-279240D01*
X588169Y-279240D01*
X590550Y-281621D01*
X590550Y-327658D01*
X592931Y-330040D01*
X655638Y-330040D01*
X661988Y-336390D01*
X680244Y-336390D01*
G54D10*
X626269Y-323690D02*
X599281Y-323690D01*
X596900Y-321308D01*
X596900Y-262571D01*
X594519Y-260190D01*
X570706Y-260190D01*
G54D10*
X653256Y-183990D02*
X653256Y-177452D01*
X650050Y-174246D01*
X626269Y-174246D01*
G54D10*
X337344Y-18890D02*
X300831Y19210D01*
X138906Y19210D01*
X126206Y31910D01*
G54D10*
X347662Y-145890D02*
X332162Y-145890D01*
G54D10*
X347662Y-112552D02*
X348456Y-111758D01*
X492125Y-111758D01*
X494506Y-114140D01*
X494506Y-141127D01*
X488950Y-145890D01*
X477044Y-145890D01*
G54D10*
X81756Y-6190D02*
X295275Y-6190D01*
X297656Y-8571D01*
X297656Y-26827D01*
X300831Y-30002D01*
X342900Y-30002D01*
X350838Y-22064D01*
X350838Y-6983D01*
X353219Y-4602D01*
X399256Y-4602D01*
X413544Y-18890D01*
X413544Y-48258D01*
X415925Y-50640D01*
X512762Y-50640D01*
X515144Y-53021D01*
X515144Y-154621D01*
X519112Y-158590D01*
X570706Y-158590D01*
G54D10*
X410369Y-158590D02*
X425869Y-158590D01*
G54D10*
X451247Y-103821D02*
X435769Y-103821D01*
X434181Y-105408D01*
X319881Y-105408D01*
X317500Y-107790D01*
X317500Y-130808D01*
X319881Y-133190D01*
X331788Y-133190D01*
G54D10*
X458788Y-133190D02*
X477006Y-133190D01*
G54D10*
X697706Y-310990D02*
X679450Y-310990D01*
X651669Y-310990D01*
X642938Y-302258D01*
X642938Y-272890D01*
X626269Y-272890D01*
G54D10*
X642938Y-272890D02*
X642938Y-262571D01*
X640556Y-260190D01*
X626269Y-260190D01*
G54D11*
X489744Y-18890D02*
X624681Y-18890D01*
X627856Y-15714D01*
X627856Y2542D01*
X528885Y72746D01*
G54D25*
X-23019Y-23652D02*
X-23416Y20798D01*
X-12700Y31514D01*
X81756Y31910D01*
G54D11*
X626269Y-336390D02*
X626269Y-344327D01*
G54D11*
X326231Y-95090D02*
X392906Y-95090D01*
X469900Y-95090D01*
G54D25*
X126206Y-323690D02*
X106362Y-323690D01*
X102394Y-319721D01*
X81756Y-319721D01*
G54D11*
X610394Y-237964D02*
X625894Y-237964D01*
G54D10*
X413544Y57310D02*
X413544Y46198D01*
X423862Y35879D01*
X423862Y-42702D01*
X426244Y-45083D01*
X522288Y-45083D01*
X524669Y-47464D01*
X524669Y-123664D01*
G54D10*
X665162Y-251458D02*
X665162Y-282946D01*
X667575Y-285358D01*
X679605Y-285358D01*
G54D10*
X554831Y-234790D02*
X570332Y-234790D01*
G54D10*
X393700Y-236377D02*
X395288Y-234790D01*
X426244Y-234790D01*
G54D10*
X553244Y24767D02*
X536575Y41436D01*
X461962Y41436D01*
G54D10*
X680244Y-187164D02*
X691356Y-187164D01*
X693738Y-184783D01*
X693738Y-176846D01*
X691356Y-174464D01*
X666750Y-174464D01*
G54D10*
X642938Y-180814D02*
X594519Y-180814D01*
X592138Y-178433D01*
X592138Y-141921D01*
X590550Y-139540D01*
X555625Y-139540D01*
X553244Y-137158D01*
X553244Y-104614D01*
G54D10*
X570706Y-133190D02*
X588169Y-133190D01*
X597694Y-133190D01*
X600075Y-135571D01*
X600075Y-165733D01*
X602456Y-168114D01*
X658019Y-168114D01*
X660400Y-170496D01*
X660400Y-203833D01*
X662781Y-206214D01*
X691356Y-206214D01*
X693738Y-208596D01*
X693738Y-257808D01*
X691356Y-260190D01*
X680244Y-260190D01*
G54D10*
X392906Y-69690D02*
X469900Y-69690D01*
G54D10*
X403225Y-133190D02*
X425900Y-133190D01*
G54D10*
X444500Y-171290D02*
X426244Y-171290D01*
G54D10*
X504031Y-171290D02*
X570706Y-171290D01*
X583406Y-171290D01*
X585788Y-173671D01*
X585788Y-213358D01*
X591344Y-218914D01*
X644525Y-218914D01*
X648494Y-222883D01*
X648494Y-295908D01*
X650875Y-298290D01*
X679450Y-298290D01*
G54D10*
X680244Y-212564D02*
X613966Y-212564D01*
X611584Y-210183D01*
X611584Y-189546D01*
X613966Y-187164D01*
X626269Y-187164D01*
G54D10*
X666750Y-212564D02*
X666750Y-222883D01*
X669131Y-225264D01*
X682625Y-225264D01*
G54D10*
X611584Y-199864D02*
X626269Y-199864D01*
G54D10*
X626269Y-285590D02*
X615156Y-285590D01*
X612775Y-287971D01*
X612775Y-295908D01*
X615156Y-298290D01*
X626269Y-298290D01*
G54D10*
X626269Y-225264D02*
X605631Y-225264D01*
X603250Y-227646D01*
X603250Y-308608D01*
X605631Y-310990D01*
X626269Y-310990D01*
X639762Y-310990D01*
X642144Y-313371D01*
X642144Y-321308D01*
X644525Y-323690D01*
X680244Y-323690D01*
G54D10*
X656431Y-268127D02*
X656431Y-239552D01*
X658812Y-237171D01*
X679450Y-237171D01*
G54D10*
X680244Y-272890D02*
X695325Y-272890D01*
X697706Y-270508D01*
X697706Y-202246D01*
X695325Y-199864D01*
X680244Y-199864D01*
X63500Y-23652D02*
G54D14*
D03*
X646115Y-16512D02*
G54D14*
D03*
X350838Y-323690D02*
G54D13*
D03*
X188912Y-327658D02*
G54D13*
D03*
X381000Y-310990D02*
G54D13*
D03*
X494506Y-298290D02*
G54D13*
D03*
X410369Y-298290D02*
G54D13*
D03*
X525462Y-337577D02*
G54D13*
D03*
X525462Y-290352D02*
G54D13*
D03*
X510381Y-272890D02*
G54D13*
D03*
X410369Y-272890D02*
G54D13*
D03*
X184150Y-222090D02*
G54D13*
D03*
X164306Y-232408D02*
G54D13*
D03*
X50006Y-232408D02*
G54D13*
D03*
X314325Y-268921D02*
G54D13*
D03*
X494506Y-283208D02*
G54D13*
D03*
X369094Y-279240D02*
G54D13*
D03*
X192881Y-230027D02*
G54D13*
D03*
X311150Y-237171D02*
G54D13*
D03*
X222250Y-209390D02*
G54D13*
D03*
X400844Y-222090D02*
G54D13*
D03*
X494506Y-222090D02*
G54D13*
D03*
X241300Y-158590D02*
G54D13*
D03*
X368300Y-196690D02*
G54D13*
D03*
X444500Y-196690D02*
G54D13*
D03*
X46831Y-61752D02*
G54D13*
D03*
X355600Y-118108D02*
G54D13*
D03*
X355600Y-172877D02*
G54D13*
D03*
X363538Y-143508D02*
G54D13*
D03*
X404019Y-176052D02*
G54D13*
D03*
X444500Y-161764D02*
G54D13*
D03*
X511175Y-203040D02*
G54D13*
D03*
X259556Y-199864D02*
G54D13*
D03*
X407194Y-247490D02*
G54D13*
D03*
X502444Y-247490D02*
G54D13*
D03*
X438944Y-1427D02*
G54D13*
D03*
X536575Y-222090D02*
G54D13*
D03*
X536575Y-140333D02*
G54D13*
D03*
X536575Y-104614D02*
G54D13*
D03*
X368300Y-186371D02*
G54D13*
D03*
X308769Y-56990D02*
G54D13*
D03*
X255588Y-26827D02*
G54D13*
D03*
X325438Y-124458D02*
G54D13*
D03*
X41275Y-73658D02*
G54D13*
D03*
X232569Y-44290D02*
G54D13*
D03*
X444500Y-183990D02*
G54D13*
D03*
X494506Y-183990D02*
G54D13*
D03*
X315119Y-83183D02*
G54D13*
D03*
X444500Y-145890D02*
G54D13*
D03*
X444500Y-37940D02*
G54D13*
D03*
X14288Y72392D02*
G54D13*
D03*
X653256Y-183990D02*
G54D13*
D03*
X347662Y-145890D02*
G54D13*
D03*
X347662Y-112552D02*
G54D13*
D03*
X410369Y-158590D02*
G54D13*
D03*
X458788Y-133190D02*
G54D13*
D03*
X451247Y-103821D02*
G54D13*
D03*
X697706Y-310990D02*
G54D13*
D03*
X627856Y2542D02*
G54D13*
D03*
X697705Y-330042D02*
G54D14*
D03*
X610394Y-237964D02*
G54D13*
D03*
X524669Y-123664D02*
G54D13*
D03*
X665162Y-251458D02*
G54D13*
D03*
X554831Y-234790D02*
G54D13*
D03*
X393700Y-236377D02*
G54D13*
D03*
X461962Y41436D02*
G54D13*
D03*
X553244Y24767D02*
G54D13*
D03*
X553244Y-104614D02*
G54D13*
D03*
X642938Y-180814D02*
G54D13*
D03*
X666750Y-174464D02*
G54D13*
D03*
X588169Y-133190D02*
G54D13*
D03*
X403225Y-133190D02*
G54D13*
D03*
X444500Y-171290D02*
G54D13*
D03*
X504031Y-171290D02*
G54D13*
D03*
X656431Y-268127D02*
G54D13*
D03*
G36*
X319231Y-62690D02*
X333231Y-62690D01*
X333231Y-76690D01*
X319231Y-76690D01*
X319231Y-62690D01*
G37*
X326231Y-95090D02*
G54D17*
D03*
G36*
X73756Y65310D02*
X89756Y65310D01*
X89756Y49310D01*
X73756Y49310D01*
X73756Y65310D01*
G37*
X81756Y31910D02*
G54D18*
D03*
X392906Y-69690D02*
G54D17*
D03*
X392906Y-95090D02*
G54D17*
D03*
X469900Y-69690D02*
G54D17*
D03*
X469900Y-95090D02*
G54D17*
D03*
G36*
X119206Y64310D02*
X133206Y64310D01*
X133206Y50310D01*
X119206Y50310D01*
X119206Y64310D01*
G37*
X126206Y31910D02*
G54D17*
D03*
X126206Y6510D02*
G54D17*
D03*
X126206Y-18890D02*
G54D17*
D03*
X126206Y-44290D02*
G54D17*
D03*
X126206Y-69690D02*
G54D17*
D03*
X126206Y-95090D02*
G54D17*
D03*
X126206Y-120490D02*
G54D17*
D03*
X126206Y-145890D02*
G54D17*
D03*
X126206Y-171290D02*
G54D17*
D03*
X126206Y-196690D02*
G54D17*
D03*
X126206Y-222090D02*
G54D17*
D03*
X126206Y-247490D02*
G54D17*
D03*
X126206Y-272890D02*
G54D17*
D03*
X126206Y-298290D02*
G54D17*
D03*
X126206Y-323690D02*
G54D17*
D03*
X278606Y-323690D02*
G54D17*
D03*
X278606Y-298290D02*
G54D17*
D03*
X278606Y-272890D02*
G54D17*
D03*
X278606Y-247490D02*
G54D17*
D03*
X278606Y-222090D02*
G54D17*
D03*
X278606Y-196690D02*
G54D17*
D03*
X278606Y-171290D02*
G54D17*
D03*
X278606Y-145890D02*
G54D17*
D03*
X278606Y-120490D02*
G54D17*
D03*
X278606Y-95090D02*
G54D17*
D03*
X278606Y-69690D02*
G54D17*
D03*
X278606Y-44290D02*
G54D17*
D03*
X278606Y-18890D02*
G54D17*
D03*
X278606Y6510D02*
G54D17*
D03*
X278606Y31910D02*
G54D17*
D03*
X278606Y57310D02*
G54D17*
D03*
X332581Y-133190D02*
G54D26*
D03*
X332581Y-145890D02*
G54D26*
D03*
X332581Y-158590D02*
G54D26*
D03*
X332581Y-171290D02*
G54D26*
D03*
X332581Y-183990D02*
G54D26*
D03*
X332581Y-196690D02*
G54D26*
D03*
X332581Y-209390D02*
G54D26*
D03*
X332581Y-222090D02*
G54D26*
D03*
X332581Y-234790D02*
G54D26*
D03*
X332581Y-247490D02*
G54D26*
D03*
X332581Y-260190D02*
G54D26*
D03*
X332581Y-272890D02*
G54D26*
D03*
X332581Y-285590D02*
G54D26*
D03*
X332581Y-298290D02*
G54D26*
D03*
X332581Y-310990D02*
G54D26*
D03*
X332581Y-323690D02*
G54D26*
D03*
X426244Y-323690D02*
G54D26*
D03*
X426244Y-310990D02*
G54D26*
D03*
X426244Y-298290D02*
G54D26*
D03*
X426244Y-285590D02*
G54D26*
D03*
X426244Y-272890D02*
G54D26*
D03*
X426244Y-260190D02*
G54D26*
D03*
X426244Y-247490D02*
G54D26*
D03*
X426244Y-234790D02*
G54D26*
D03*
X426244Y-222090D02*
G54D26*
D03*
X426244Y-209390D02*
G54D26*
D03*
X426244Y-196690D02*
G54D26*
D03*
X426244Y-183990D02*
G54D26*
D03*
X426244Y-171290D02*
G54D26*
D03*
X426244Y-158590D02*
G54D26*
D03*
X426244Y-145890D02*
G54D26*
D03*
X426244Y-133190D02*
G54D26*
D03*
X477044Y-133190D02*
G54D26*
D03*
X477044Y-145890D02*
G54D26*
D03*
X477044Y-158590D02*
G54D26*
D03*
X477044Y-171290D02*
G54D26*
D03*
X477044Y-183990D02*
G54D26*
D03*
X477044Y-196690D02*
G54D26*
D03*
X477044Y-209390D02*
G54D26*
D03*
X477044Y-222090D02*
G54D26*
D03*
X477044Y-234790D02*
G54D26*
D03*
X477044Y-247490D02*
G54D26*
D03*
X477044Y-260190D02*
G54D26*
D03*
X477044Y-272890D02*
G54D26*
D03*
X477044Y-285590D02*
G54D26*
D03*
X477044Y-298290D02*
G54D26*
D03*
X477044Y-310990D02*
G54D26*
D03*
X477044Y-323690D02*
G54D26*
D03*
X570706Y-323690D02*
G54D26*
D03*
X570706Y-310990D02*
G54D26*
D03*
X570706Y-298290D02*
G54D26*
D03*
X570706Y-285590D02*
G54D26*
D03*
X570706Y-272890D02*
G54D26*
D03*
X570706Y-260190D02*
G54D26*
D03*
X570706Y-247490D02*
G54D26*
D03*
X570706Y-234790D02*
G54D26*
D03*
X570706Y-222090D02*
G54D26*
D03*
X570706Y-209390D02*
G54D26*
D03*
X570706Y-196690D02*
G54D26*
D03*
X570706Y-183990D02*
G54D26*
D03*
X570706Y-171290D02*
G54D26*
D03*
X570706Y-158590D02*
G54D26*
D03*
X570706Y-145890D02*
G54D26*
D03*
X570706Y-133190D02*
G54D26*
D03*
G36*
X304944Y-11890D02*
X318944Y-11890D01*
X318944Y-25890D01*
X304944Y-25890D01*
X304944Y-11890D01*
G37*
X337344Y-18890D02*
G54D17*
D03*
X362744Y-18890D02*
G54D17*
D03*
X388144Y-18890D02*
G54D17*
D03*
X413544Y-18890D02*
G54D17*
D03*
X438944Y-18890D02*
G54D17*
D03*
X464344Y-18890D02*
G54D17*
D03*
X489744Y-18890D02*
G54D17*
D03*
X489744Y57310D02*
G54D17*
D03*
X464344Y57310D02*
G54D17*
D03*
X438944Y57310D02*
G54D17*
D03*
X413544Y57310D02*
G54D17*
D03*
X388144Y57310D02*
G54D17*
D03*
X362744Y57310D02*
G54D17*
D03*
X337344Y57310D02*
G54D17*
D03*
X311944Y57310D02*
G54D17*
D03*
X626269Y-260190D02*
G54D26*
D03*
X626269Y-272890D02*
G54D26*
D03*
X626269Y-285590D02*
G54D26*
D03*
X626269Y-298290D02*
G54D26*
D03*
X626269Y-310990D02*
G54D26*
D03*
X626269Y-323690D02*
G54D26*
D03*
X626269Y-336390D02*
G54D26*
D03*
X680244Y-336390D02*
G54D26*
D03*
X680244Y-323690D02*
G54D26*
D03*
X680244Y-310990D02*
G54D26*
D03*
X680244Y-298290D02*
G54D26*
D03*
X680244Y-285590D02*
G54D26*
D03*
X680244Y-272890D02*
G54D26*
D03*
X680244Y-260190D02*
G54D26*
D03*
X626269Y-161764D02*
G54D26*
D03*
X626269Y-174464D02*
G54D26*
D03*
X626269Y-187164D02*
G54D26*
D03*
X626269Y-199864D02*
G54D26*
D03*
X626269Y-212564D02*
G54D26*
D03*
X626269Y-225264D02*
G54D26*
D03*
X626269Y-237964D02*
G54D26*
D03*
X680244Y-237964D02*
G54D26*
D03*
X680244Y-225264D02*
G54D26*
D03*
X680244Y-212564D02*
G54D26*
D03*
X680244Y-199864D02*
G54D26*
D03*
X680244Y-187164D02*
G54D26*
D03*
X680244Y-174464D02*
G54D26*
D03*
X680244Y-161764D02*
G54D26*
D03*
X81756Y-107790D02*
G54D17*
D03*
X81756Y-133190D02*
G54D17*
D03*
X81756Y-158590D02*
G54D17*
D03*
X81756Y-6190D02*
G54D17*
D03*
X81756Y-31590D02*
G54D17*
D03*
X81756Y-56990D02*
G54D17*
D03*
X81756Y-294321D02*
G54D17*
D03*
X81756Y-319721D02*
G54D17*
D03*
G36*
X-30994Y-240458D02*
X-14994Y-240458D01*
X-14994Y-256458D01*
X-30994Y-256458D01*
X-30994Y-240458D01*
G37*
X2006Y-23458D02*
G54D20*
D03*
X-22994Y-23458D02*
G54D20*
D03*
X27006Y-23458D02*
G54D20*
D03*
X2006Y-48458D02*
G54D20*
D03*
X-22994Y-48458D02*
G54D20*
D03*
X2006Y-73458D02*
G54D20*
D03*
X2006Y-98958D02*
G54D20*
D03*
X-22994Y-73458D02*
G54D20*
D03*
X-22994Y-98958D02*
G54D20*
D03*
X27006Y-73458D02*
G54D20*
D03*
X27006Y-98958D02*
G54D20*
D03*
X27006Y-48458D02*
G54D20*
D03*
X2006Y-123458D02*
G54D20*
D03*
X-22994Y-123458D02*
G54D20*
D03*
X2006Y-148458D02*
G54D20*
D03*
X2006Y-173458D02*
G54D20*
D03*
X-22994Y-148458D02*
G54D20*
D03*
X-22994Y-173458D02*
G54D20*
D03*
X27006Y-148458D02*
G54D20*
D03*
X27006Y-173458D02*
G54D20*
D03*
X2006Y-198458D02*
G54D20*
D03*
X-22994Y-198458D02*
G54D20*
D03*
X2006Y-223458D02*
G54D20*
D03*
X2006Y-248458D02*
G54D20*
D03*
X-22994Y-223458D02*
G54D20*
D03*
X27006Y-123458D02*
G54D20*
D03*
X27006Y-223458D02*
G54D20*
D03*
X27006Y-248458D02*
G54D20*
D03*
X27006Y-198458D02*
G54D20*
D03*
X81756Y-270508D02*
G54D17*
D03*
X81756Y-190340D02*
G54D17*
D03*
G54D10*
X570706Y-145890D02*
X547688Y-145890D01*
X545306Y-143508D01*
X545306Y-40321D01*
X542925Y-37940D01*
X444500Y-37940D01*
X430212Y-37940D01*
X427831Y-35558D01*
X427831Y66042D01*
X425450Y68423D01*
X373856Y68423D01*
X362744Y57310D01*
X350044Y44610D01*
X111919Y44610D01*
X109538Y42229D01*
X109538Y6510D01*
G54D11*
X477044Y-323690D02*
X477044Y-336396D01*
G54D11*
X697706Y-330040D02*
X697706Y-341152D01*
X694531Y-344327D01*
X554831Y-344327D01*
X540544Y-330040D01*
X508000Y-330040D01*
X501650Y-336390D01*
X337344Y-336390D01*
X332581Y-331627D01*
X332581Y-323690D01*
X260350Y-37146D02*
G54D13*
D03*
G54D10*
X188912Y-327658D02*
X161131Y-327658D01*
X153194Y-335596D01*
X-39688Y-335596D01*
X-42069Y-333214D01*
X-42069Y-167636D01*
X-22994Y-148458D01*
X332581Y-331627D02*
G54D13*
D03*
X673838Y-72206D02*
G54D15*
D03*
X528888Y72744D02*
G54D15*
D03*
X477044Y-336396D02*
G54D13*
D03*
X1549147Y-231631D02*
G54D24*
D03*
X1574147Y-231631D02*
G54D24*
D03*
X1599147Y-231631D02*
G54D24*
D03*
X1624147Y-231631D02*
G54D24*
D03*
X1649147Y-231631D02*
G54D24*
D03*
X1674147Y-231631D02*
G54D24*
D03*
X1699147Y-231631D02*
G54D24*
D03*
X1724147Y-231631D02*
G54D24*
D03*
X1749147Y-231631D02*
G54D24*
D03*
X1774147Y-231631D02*
G54D24*
D03*
X1549147Y-256631D02*
G54D24*
D03*
X1574147Y-256631D02*
G54D24*
D03*
X1599147Y-256631D02*
G54D24*
D03*
X1624147Y-256631D02*
G54D24*
D03*
X1649147Y-256631D02*
G54D24*
D03*
X1674147Y-256631D02*
G54D24*
D03*
X1699147Y-256631D02*
G54D24*
D03*
X1724147Y-256631D02*
G54D24*
D03*
X1749147Y-256631D02*
G54D24*
D03*
X1774147Y-256631D02*
G54D24*
D03*
X1549147Y-281631D02*
G54D24*
D03*
X1574147Y-281631D02*
G54D24*
D03*
X1599147Y-281631D02*
G54D24*
D03*
X1624147Y-281631D02*
G54D24*
D03*
X1649147Y-281631D02*
G54D24*
D03*
X1674147Y-281631D02*
G54D24*
D03*
X1699147Y-281631D02*
G54D24*
D03*
X1724147Y-281631D02*
G54D24*
D03*
X1749147Y-281631D02*
G54D24*
D03*
X1774147Y-281631D02*
G54D24*
D03*
X1724147Y-201631D02*
G54D16*
D03*
X1724147Y-116631D02*
G54D16*
D03*
X1749147Y-201631D02*
G54D16*
D03*
X1749147Y-116631D02*
G54D16*
D03*
X1774147Y-201631D02*
G54D16*
D03*
X1774147Y-116631D02*
G54D16*
D03*
X1699147Y-201631D02*
G54D16*
D03*
X1699147Y-116631D02*
G54D16*
D03*
X1674147Y-201631D02*
G54D16*
D03*
X1674147Y-116631D02*
G54D16*
D03*
X1649147Y-201631D02*
G54D16*
D03*
X1649147Y-116631D02*
G54D16*
D03*
X1624147Y-201631D02*
G54D16*
D03*
X1624147Y-116631D02*
G54D16*
D03*
X1599147Y-201631D02*
G54D16*
D03*
X1599147Y-116631D02*
G54D16*
D03*
X1574147Y-201631D02*
G54D16*
D03*
X1574147Y-116631D02*
G54D16*
D03*
G54D22*
X1649147Y-231631D02*
X1649147Y-201631D01*
X1674147Y-201631D01*
X1699147Y-201631D01*
G54D22*
X1699147Y-116631D02*
X1724147Y-116631D01*
G54D22*
X1674147Y-116631D02*
X1686647Y-129131D01*
X1736647Y-129131D01*
X1749147Y-116631D01*
G54D22*
X1649147Y-116631D02*
X1669147Y-136631D01*
X1754147Y-136631D01*
X1774147Y-116631D01*
G54D22*
X1624147Y-231631D02*
X1624147Y-201631D01*
G54D22*
X1674147Y-231631D02*
X1661647Y-244131D01*
X1614147Y-244131D01*
X1611647Y-241631D01*
X1611647Y-214131D01*
X1599147Y-201631D01*
G54D22*
X1699147Y-231631D02*
X1686647Y-244131D01*
X1686647Y-266631D01*
X1684147Y-269131D01*
X1589147Y-269131D01*
X1586647Y-266631D01*
X1586647Y-214131D01*
X1574147Y-201631D01*
G54D22*
X1624147Y-116631D02*
X1651647Y-144131D01*
X1769147Y-144131D01*
X1774147Y-149131D01*
X1774147Y-201631D01*
G54D22*
X1599147Y-116631D02*
X1634147Y-151631D01*
X1744147Y-151631D01*
X1749147Y-156631D01*
X1749147Y-201631D01*
G54D22*
X1574147Y-116631D02*
X1616647Y-159131D01*
X1719147Y-159131D01*
X1724147Y-164131D01*
X1724147Y-201631D01*
X1724147Y-311631D02*
G54D24*
D03*
X1749147Y-311631D02*
G54D24*
D03*
X1774147Y-311631D02*
G54D24*
D03*
G54D22*
X1774147Y-201631D02*
X1761647Y-214131D01*
X1761647Y-299132D01*
X1774146Y-311631D01*
G54D22*
X1749147Y-201631D02*
X1736647Y-214131D01*
X1736647Y-299132D01*
X1749146Y-311631D01*
G54D22*
X1724147Y-201631D02*
X1711647Y-214131D01*
X1711647Y-299132D01*
X1724146Y-311631D01*
X1549147Y-201631D02*
G54D16*
D03*
X1549147Y-116631D02*
G54D16*
D03*
X1674147Y-311631D02*
G54D24*
D03*
X1699147Y-311631D02*
G54D24*
D03*
G54D22*
X1674147Y-311631D02*
X1554147Y-311631D01*
X1549147Y-306631D01*
X1549147Y-281632D01*
G54D22*
X1549147Y-231631D02*
X1549147Y-201631D01*
G54D22*
X1549147Y-116631D02*
X1561647Y-129131D01*
X1561647Y-289131D01*
X1566647Y-294131D01*
X1681646Y-294131D01*
X1699146Y-311631D01*
X1649147Y-311631D02*
G54D24*
D03*
X1624147Y-311631D02*
G54D24*
D03*
X1599147Y-311631D02*
G54D24*
D03*
X1535503Y-88103D02*
G54D17*
D03*
X1711503Y-88203D02*
G54D17*
D03*
X1535503Y-11903D02*
G54D17*
D03*
X1637103Y-88103D02*
G54D17*
D03*
X1609603Y-11903D02*
G54D27*
D03*
X1584603Y-11903D02*
G54D27*
D03*
X1559603Y-11903D02*
G54D27*
D03*
X1609603Y-88103D02*
G54D27*
D03*
X1584603Y-88103D02*
G54D27*
D03*
X1559603Y-88103D02*
G54D27*
D03*
G54D12*
X1535503Y-88103D02*
X1559603Y-88103D01*
X1535603Y-34903D02*
G54D28*
D03*
X1535103Y-65403D02*
G54D28*
D03*
G54D12*
X1535503Y-9903D02*
X1535453Y-34983D01*
G54D12*
X1584603Y-88103D02*
X1584603Y-79403D01*
X1570603Y-65403D01*
X1535103Y-65403D01*
X1693603Y-49903D02*
G54D29*
D03*
X1693603Y-74903D02*
G54D29*
D03*
X1693603Y-24403D02*
G54D29*
D03*
X1637103Y-69803D02*
G54D28*
D03*
X1636953Y-39823D02*
G54D28*
D03*
G54D30*
X1693603Y-24403D02*
X1681103Y-9903D01*
X1609603Y-9903D01*
G54D30*
X1637203Y-88203D02*
X1637103Y-69803D01*
G54D31*
X1637253Y-88386D02*
X1656203Y-88403D01*
X1674503Y-50103D01*
X1693403Y-50103D01*
G54D30*
X1559603Y-9903D02*
X1587403Y-39703D01*
X1636903Y-39703D01*
G54D31*
X1693603Y-74903D02*
X1711503Y-88503D01*
X1711503Y-35403D02*
G54D28*
D03*
X1711503Y-65403D02*
G54D28*
D03*
G54D30*
X1712003Y-35403D02*
X1693603Y-24403D01*
G54D30*
X1693603Y-74903D02*
X1711503Y-65403D01*
X1535503Y11697D02*
G54D17*
D03*
X1711503Y11597D02*
G54D17*
D03*
X1535503Y87897D02*
G54D17*
D03*
X1637103Y11697D02*
G54D17*
D03*
X1609603Y87897D02*
G54D27*
D03*
X1584603Y87897D02*
G54D27*
D03*
X1559603Y87897D02*
G54D27*
D03*
X1609603Y11697D02*
G54D27*
D03*
X1584603Y11697D02*
G54D27*
D03*
X1559603Y11697D02*
G54D27*
D03*
G54D12*
X1535503Y11697D02*
X1559603Y11697D01*
X1535603Y64897D02*
G54D28*
D03*
X1535103Y34397D02*
G54D28*
D03*
G54D12*
X1535503Y87897D02*
X1535453Y64817D01*
G54D12*
X1584603Y11697D02*
X1584603Y20397D01*
X1570603Y34397D01*
X1535103Y34397D01*
X1693603Y49897D02*
G54D29*
D03*
X1693603Y24897D02*
G54D29*
D03*
X1693603Y75397D02*
G54D29*
D03*
X1637103Y29997D02*
G54D28*
D03*
X1636953Y59977D02*
G54D28*
D03*
G54D30*
X1693603Y75397D02*
X1681103Y87897D01*
X1609603Y87897D01*
G54D30*
X1637203Y11597D02*
X1637103Y29997D01*
G54D31*
X1637253Y11414D02*
X1656203Y11397D01*
X1674503Y49697D01*
X1693403Y49697D01*
G54D30*
X1559603Y87897D02*
X1587403Y60097D01*
X1636903Y60097D01*
G54D31*
X1693603Y24897D02*
X1711503Y11297D01*
X1711503Y64397D02*
G54D28*
D03*
X1711503Y34397D02*
G54D28*
D03*
G54D30*
X1712003Y64397D02*
X1693603Y75397D01*
G54D30*
X1693603Y24897D02*
X1711503Y34397D01*
X1738709Y87312D02*
G54D24*
D03*
X1764109Y87312D02*
G54D24*
D03*
X1789509Y87312D02*
G54D24*
D03*
X1814909Y87312D02*
G54D24*
D03*
X1738709Y61912D02*
G54D24*
D03*
X1764109Y61912D02*
G54D24*
D03*
X1789509Y61912D02*
G54D24*
D03*
X1814909Y61912D02*
G54D24*
D03*
X1738709Y36512D02*
G54D24*
D03*
X1764109Y36512D02*
G54D24*
D03*
X1789509Y36512D02*
G54D24*
D03*
X1814909Y36512D02*
G54D24*
D03*
X1738709Y11112D02*
G54D24*
D03*
X1764109Y11112D02*
G54D24*
D03*
X1789509Y11112D02*
G54D24*
D03*
X1814909Y11112D02*
G54D24*
D03*
X1738709Y-14288D02*
G54D24*
D03*
X1764109Y-14288D02*
G54D24*
D03*
X1789509Y-14288D02*
G54D24*
D03*
X1814909Y-14288D02*
G54D24*
D03*
X1738709Y-39688D02*
G54D24*
D03*
X1764109Y-39688D02*
G54D24*
D03*
X1789509Y-39688D02*
G54D24*
D03*
X1814909Y-39688D02*
G54D24*
D03*
X1840309Y87312D02*
G54D24*
D03*
X1865709Y87312D02*
G54D24*
D03*
X1840309Y61912D02*
G54D24*
D03*
X1865709Y61912D02*
G54D24*
D03*
X1840309Y36512D02*
G54D24*
D03*
X1865709Y36512D02*
G54D24*
D03*
X1840309Y11112D02*
G54D24*
D03*
X1865709Y11112D02*
G54D24*
D03*
X1840309Y-14288D02*
G54D24*
D03*
X1865709Y-14288D02*
G54D24*
D03*
X1840309Y-39688D02*
G54D24*
D03*
X1865709Y-39688D02*
G54D24*
D03*
X1738709Y-65088D02*
G54D24*
D03*
X1764109Y-65088D02*
G54D24*
D03*
X1789509Y-65088D02*
G54D24*
D03*
X1814909Y-65088D02*
G54D24*
D03*
X1738709Y-90488D02*
G54D24*
D03*
X1764109Y-90488D02*
G54D24*
D03*
X1789509Y-90488D02*
G54D24*
D03*
X1814909Y-90488D02*
G54D24*
D03*
X1840309Y-65088D02*
G54D24*
D03*
X1865709Y-65088D02*
G54D24*
D03*
X1840309Y-90488D02*
G54D24*
D03*
X1865709Y-90488D02*
G54D24*
D03*
M02*
