%FSLAX34Y34*%
%MOMM*%
%LNSOLDERMASK_TOP*%
G71*
G01*
%ADD10C, 1.90*%
%ADD11C, 1.40*%
%ADD12C, 1.40*%
%ADD13C, 1.60*%
%ADD14C, 1.50*%
%ADD15C, 1.60*%
%ADD16C, 1.00*%
%ADD17C, 1.50*%
%ADD18C, 1.60*%
%ADD19C, 0.70*%
%ADD20R, 2.00X0.60*%
%ADD21C, 1.30*%
%ADD22R, 1.50X1.50*%
%ADD23C, 1.80*%
%LPD*%
G36*
X295500Y714500D02*
X314500Y714500D01*
X314500Y695500D01*
X295500Y695500D01*
X295500Y714500D01*
G37*
X100000Y705000D02*
G54D10*
D03*
X785000Y707500D02*
G54D11*
D03*
X710000Y707500D02*
G54D11*
D03*
X1752500Y357500D02*
G54D11*
D03*
X1675000Y357500D02*
G54D11*
D03*
X1350000Y772500D02*
G54D11*
D03*
X1385000Y772500D02*
G54D11*
D03*
X1367500Y632500D02*
G54D11*
D03*
X1367500Y562500D02*
G54D11*
D03*
X1077500Y675000D02*
G54D11*
D03*
X1077500Y597500D02*
G54D11*
D03*
X1077500Y435000D02*
G54D11*
D03*
X1077500Y360000D02*
G54D11*
D03*
X380000Y502500D02*
G54D11*
D03*
X380000Y452500D02*
G54D11*
D03*
X420000Y502500D02*
G54D11*
D03*
X420000Y452500D02*
G54D11*
D03*
X457500Y502500D02*
G54D11*
D03*
X457500Y452500D02*
G54D11*
D03*
X397500Y172500D02*
G54D11*
D03*
X445000Y172500D02*
G54D11*
D03*
X457500Y607500D02*
G54D11*
D03*
X457500Y557500D02*
G54D11*
D03*
X20000Y720000D02*
G54D11*
D03*
G36*
X60500Y727000D02*
X74500Y727000D01*
X74500Y713000D01*
X60500Y713000D01*
X60500Y727000D01*
G37*
X-22500Y655000D02*
G54D11*
D03*
G36*
X-29500Y707000D02*
X-15500Y707000D01*
X-15500Y693000D01*
X-29500Y693000D01*
X-29500Y707000D01*
G37*
X-25000Y565000D02*
G54D11*
D03*
G36*
X-32000Y619500D02*
X-18000Y619500D01*
X-18000Y605500D01*
X-32000Y605500D01*
X-32000Y619500D01*
G37*
X312500Y172500D02*
G54D11*
D03*
G36*
X353000Y179500D02*
X367000Y179500D01*
X367000Y165500D01*
X353000Y165500D01*
X353000Y179500D01*
G37*
X17500Y272500D02*
G54D11*
D03*
G36*
X10500Y327000D02*
X24500Y327000D01*
X24500Y313000D01*
X10500Y313000D01*
X10500Y327000D01*
G37*
G36*
X13000Y374500D02*
X27000Y374500D01*
X27000Y360500D01*
X13000Y360500D01*
X13000Y374500D01*
G37*
X20000Y392500D02*
G54D11*
D03*
G36*
X978000Y704500D02*
X992000Y704500D01*
X992000Y690500D01*
X978000Y690500D01*
X978000Y704500D01*
G37*
X960000Y697500D02*
G54D12*
D03*
X935000Y697500D02*
G54D12*
D03*
X910000Y697500D02*
G54D12*
D03*
X885000Y697500D02*
G54D12*
D03*
X860000Y697500D02*
G54D12*
D03*
X835000Y697500D02*
G54D12*
D03*
X835000Y772500D02*
G54D12*
D03*
X860000Y772500D02*
G54D12*
D03*
X885000Y772500D02*
G54D12*
D03*
X910000Y772500D02*
G54D12*
D03*
X935000Y772500D02*
G54D12*
D03*
X960000Y772500D02*
G54D12*
D03*
X985000Y772500D02*
G54D12*
D03*
G36*
X978000Y564500D02*
X992000Y564500D01*
X992000Y550500D01*
X978000Y550500D01*
X978000Y564500D01*
G37*
X960000Y557500D02*
G54D12*
D03*
X935000Y557500D02*
G54D12*
D03*
X910000Y557500D02*
G54D12*
D03*
X885000Y557500D02*
G54D12*
D03*
X860000Y557500D02*
G54D12*
D03*
X835000Y557500D02*
G54D12*
D03*
X835000Y632500D02*
G54D12*
D03*
X860000Y632500D02*
G54D12*
D03*
X885000Y632500D02*
G54D12*
D03*
X910000Y632500D02*
G54D12*
D03*
X935000Y632500D02*
G54D12*
D03*
X960000Y632500D02*
G54D12*
D03*
X985000Y632500D02*
G54D12*
D03*
G36*
X1843000Y249500D02*
X1857000Y249500D01*
X1857000Y235500D01*
X1843000Y235500D01*
X1843000Y249500D01*
G37*
X1825000Y242500D02*
G54D12*
D03*
X1800000Y242500D02*
G54D12*
D03*
X1775000Y242500D02*
G54D12*
D03*
X1750000Y242500D02*
G54D12*
D03*
X1725000Y242500D02*
G54D12*
D03*
X1700000Y242500D02*
G54D12*
D03*
X1675000Y242500D02*
G54D12*
D03*
X1675000Y317500D02*
G54D12*
D03*
X1700000Y317500D02*
G54D12*
D03*
X1725000Y317500D02*
G54D12*
D03*
X1750000Y317500D02*
G54D12*
D03*
X1775000Y317500D02*
G54D12*
D03*
X1800000Y317500D02*
G54D12*
D03*
X1825000Y317500D02*
G54D12*
D03*
X1850000Y317500D02*
G54D12*
D03*
G36*
X1843000Y404500D02*
X1857000Y404500D01*
X1857000Y390500D01*
X1843000Y390500D01*
X1843000Y404500D01*
G37*
X1825000Y397500D02*
G54D12*
D03*
X1800000Y397500D02*
G54D12*
D03*
X1775000Y397500D02*
G54D12*
D03*
X1750000Y397500D02*
G54D12*
D03*
X1725000Y397500D02*
G54D12*
D03*
X1700000Y397500D02*
G54D12*
D03*
X1700000Y472500D02*
G54D12*
D03*
X1725000Y472500D02*
G54D12*
D03*
X1750000Y472500D02*
G54D12*
D03*
X1775000Y472500D02*
G54D12*
D03*
X1800000Y472500D02*
G54D12*
D03*
X1825000Y472500D02*
G54D12*
D03*
X1850000Y472500D02*
G54D12*
D03*
G36*
X1843000Y564500D02*
X1857000Y564500D01*
X1857000Y550500D01*
X1843000Y550500D01*
X1843000Y564500D01*
G37*
X1825000Y557500D02*
G54D12*
D03*
X1800000Y557500D02*
G54D12*
D03*
X1775000Y557500D02*
G54D12*
D03*
X1750000Y557500D02*
G54D12*
D03*
X1725000Y557500D02*
G54D12*
D03*
X1700000Y557500D02*
G54D12*
D03*
X1675000Y557500D02*
G54D12*
D03*
X1675000Y632500D02*
G54D12*
D03*
X1700000Y632500D02*
G54D12*
D03*
X1725000Y632500D02*
G54D12*
D03*
X1750000Y632500D02*
G54D12*
D03*
X1775000Y632500D02*
G54D12*
D03*
X1800000Y632500D02*
G54D12*
D03*
X1825000Y632500D02*
G54D12*
D03*
X1850000Y632500D02*
G54D12*
D03*
G36*
X1270500Y704500D02*
X1284500Y704500D01*
X1284500Y690500D01*
X1270500Y690500D01*
X1270500Y704500D01*
G37*
X1252500Y697500D02*
G54D12*
D03*
X1227500Y697500D02*
G54D12*
D03*
X1202500Y697500D02*
G54D12*
D03*
X1177500Y697500D02*
G54D12*
D03*
X1152500Y697500D02*
G54D12*
D03*
X1127500Y697500D02*
G54D12*
D03*
X1127500Y772500D02*
G54D12*
D03*
X1152500Y772500D02*
G54D12*
D03*
X1177500Y772500D02*
G54D12*
D03*
X1202500Y772500D02*
G54D12*
D03*
X1227500Y772500D02*
G54D12*
D03*
X1252500Y772500D02*
G54D12*
D03*
X1277500Y772500D02*
G54D12*
D03*
G36*
X1603000Y704500D02*
X1617000Y704500D01*
X1617000Y690500D01*
X1603000Y690500D01*
X1603000Y704500D01*
G37*
X1585000Y697500D02*
G54D12*
D03*
X1560000Y697500D02*
G54D12*
D03*
X1535000Y697500D02*
G54D12*
D03*
X1510000Y697500D02*
G54D12*
D03*
X1485000Y697500D02*
G54D12*
D03*
X1460000Y697500D02*
G54D12*
D03*
X1460000Y772500D02*
G54D12*
D03*
X1485000Y772500D02*
G54D12*
D03*
X1510000Y772500D02*
G54D12*
D03*
X1535000Y772500D02*
G54D12*
D03*
X1560000Y772500D02*
G54D12*
D03*
X1585000Y772500D02*
G54D12*
D03*
X1610000Y772500D02*
G54D12*
D03*
G36*
X1843000Y704500D02*
X1857000Y704500D01*
X1857000Y690500D01*
X1843000Y690500D01*
X1843000Y704500D01*
G37*
X1825000Y697500D02*
G54D12*
D03*
X1800000Y697500D02*
G54D12*
D03*
X1775000Y697500D02*
G54D12*
D03*
X1750000Y697500D02*
G54D12*
D03*
X1725000Y697500D02*
G54D12*
D03*
X1700000Y697500D02*
G54D12*
D03*
X1700000Y772500D02*
G54D12*
D03*
X1725000Y772500D02*
G54D12*
D03*
X1750000Y772500D02*
G54D12*
D03*
X1775000Y772500D02*
G54D12*
D03*
X1800000Y772500D02*
G54D12*
D03*
X1825000Y772500D02*
G54D12*
D03*
X1850000Y772500D02*
G54D12*
D03*
G36*
X1315500Y249500D02*
X1329500Y249500D01*
X1329500Y235500D01*
X1315500Y235500D01*
X1315500Y249500D01*
G37*
X1297500Y242500D02*
G54D12*
D03*
X1272500Y242500D02*
G54D12*
D03*
X1247500Y242500D02*
G54D12*
D03*
X1222500Y242500D02*
G54D12*
D03*
X1197500Y242500D02*
G54D12*
D03*
X1172500Y242500D02*
G54D12*
D03*
X1147500Y242500D02*
G54D12*
D03*
X1122500Y242500D02*
G54D12*
D03*
X1097500Y242500D02*
G54D12*
D03*
X1072500Y242500D02*
G54D12*
D03*
X1047500Y242500D02*
G54D12*
D03*
X1047500Y317500D02*
G54D12*
D03*
X1072500Y317500D02*
G54D12*
D03*
X1097500Y317500D02*
G54D12*
D03*
X1122500Y317500D02*
G54D12*
D03*
X1147500Y317500D02*
G54D12*
D03*
X1172500Y317500D02*
G54D12*
D03*
X1197500Y317500D02*
G54D12*
D03*
X1222500Y317500D02*
G54D12*
D03*
X1247500Y317500D02*
G54D12*
D03*
X1272500Y317500D02*
G54D12*
D03*
X1297500Y317500D02*
G54D12*
D03*
X1322500Y317500D02*
G54D12*
D03*
G36*
X1270500Y564500D02*
X1284500Y564500D01*
X1284500Y550500D01*
X1270500Y550500D01*
X1270500Y564500D01*
G37*
X1252500Y557500D02*
G54D12*
D03*
X1227500Y557500D02*
G54D12*
D03*
X1202500Y557500D02*
G54D12*
D03*
X1177500Y557500D02*
G54D12*
D03*
X1152500Y557500D02*
G54D12*
D03*
X1127500Y557500D02*
G54D12*
D03*
X1127500Y632500D02*
G54D12*
D03*
X1152500Y632500D02*
G54D12*
D03*
X1177500Y632500D02*
G54D12*
D03*
X1202500Y632500D02*
G54D12*
D03*
X1227500Y632500D02*
G54D12*
D03*
X1252500Y632500D02*
G54D12*
D03*
X1277500Y632500D02*
G54D12*
D03*
G36*
X653000Y564500D02*
X667000Y564500D01*
X667000Y550500D01*
X653000Y550500D01*
X653000Y564500D01*
G37*
X635000Y557500D02*
G54D12*
D03*
X610000Y557500D02*
G54D12*
D03*
X585000Y557500D02*
G54D12*
D03*
X560000Y557500D02*
G54D12*
D03*
X535000Y557500D02*
G54D12*
D03*
X510000Y557500D02*
G54D12*
D03*
X510000Y632500D02*
G54D12*
D03*
X535000Y632500D02*
G54D12*
D03*
X560000Y632500D02*
G54D12*
D03*
X585000Y632500D02*
G54D12*
D03*
X610000Y632500D02*
G54D12*
D03*
X635000Y632500D02*
G54D12*
D03*
X660000Y632500D02*
G54D12*
D03*
G36*
X273000Y512000D02*
X287000Y512000D01*
X287000Y498000D01*
X273000Y498000D01*
X273000Y512000D01*
G37*
X255000Y505000D02*
G54D12*
D03*
X230000Y505000D02*
G54D12*
D03*
X205000Y505000D02*
G54D12*
D03*
X180000Y505000D02*
G54D12*
D03*
X155000Y505000D02*
G54D12*
D03*
X130000Y505000D02*
G54D12*
D03*
X130000Y580000D02*
G54D12*
D03*
X155000Y580000D02*
G54D12*
D03*
X180000Y580000D02*
G54D12*
D03*
X205000Y580000D02*
G54D12*
D03*
X230000Y580000D02*
G54D12*
D03*
X255000Y580000D02*
G54D12*
D03*
X280000Y580000D02*
G54D12*
D03*
G36*
X1603000Y367000D02*
X1617000Y367000D01*
X1617000Y353000D01*
X1603000Y353000D01*
X1603000Y367000D01*
G37*
X1585000Y360000D02*
G54D11*
D03*
X1560000Y360000D02*
G54D11*
D03*
X1535000Y360000D02*
G54D11*
D03*
X1507500Y360000D02*
G54D11*
D03*
X1482500Y360000D02*
G54D11*
D03*
X1457500Y360000D02*
G54D11*
D03*
X1432500Y360000D02*
G54D11*
D03*
X1407500Y360000D02*
G54D11*
D03*
X1382500Y360000D02*
G54D11*
D03*
X1355000Y360000D02*
G54D11*
D03*
X1330000Y360000D02*
G54D11*
D03*
X1305000Y360000D02*
G54D11*
D03*
X1280000Y360000D02*
G54D11*
D03*
X1255000Y360000D02*
G54D11*
D03*
X1230000Y360000D02*
G54D11*
D03*
X1202500Y360000D02*
G54D11*
D03*
X1177500Y360000D02*
G54D11*
D03*
X1152500Y360000D02*
G54D11*
D03*
X1127500Y360000D02*
G54D11*
D03*
X1127500Y512500D02*
G54D11*
D03*
X1152500Y512500D02*
G54D11*
D03*
X1177500Y512500D02*
G54D11*
D03*
X1202500Y512500D02*
G54D11*
D03*
X1230000Y512500D02*
G54D11*
D03*
X1255000Y512500D02*
G54D11*
D03*
X1280000Y512500D02*
G54D11*
D03*
X1305000Y512500D02*
G54D11*
D03*
X1330000Y512500D02*
G54D11*
D03*
X1355000Y512500D02*
G54D11*
D03*
X1382500Y512500D02*
G54D11*
D03*
X1407500Y512500D02*
G54D11*
D03*
X1432500Y512500D02*
G54D11*
D03*
X1457500Y512500D02*
G54D11*
D03*
X1482500Y512500D02*
G54D11*
D03*
X1507500Y512500D02*
G54D11*
D03*
X1535000Y512500D02*
G54D11*
D03*
X1560000Y512500D02*
G54D11*
D03*
X1585000Y512500D02*
G54D11*
D03*
X1610000Y512500D02*
G54D11*
D03*
G36*
X978000Y367000D02*
X992000Y367000D01*
X992000Y353000D01*
X978000Y353000D01*
X978000Y367000D01*
G37*
X960000Y360000D02*
G54D12*
D03*
X935000Y360000D02*
G54D12*
D03*
X910000Y360000D02*
G54D12*
D03*
X885000Y360000D02*
G54D12*
D03*
X860000Y360000D02*
G54D12*
D03*
X835000Y360000D02*
G54D12*
D03*
X810000Y360000D02*
G54D12*
D03*
X810000Y435000D02*
G54D12*
D03*
X835000Y435000D02*
G54D12*
D03*
X860000Y435000D02*
G54D12*
D03*
X885000Y435000D02*
G54D12*
D03*
X910000Y435000D02*
G54D12*
D03*
X935000Y435000D02*
G54D12*
D03*
X960000Y435000D02*
G54D12*
D03*
X985000Y435000D02*
G54D12*
D03*
G36*
X1603000Y249500D02*
X1617000Y249500D01*
X1617000Y235500D01*
X1603000Y235500D01*
X1603000Y249500D01*
G37*
X1585000Y242500D02*
G54D12*
D03*
X1560000Y242500D02*
G54D12*
D03*
X1535000Y242500D02*
G54D12*
D03*
X1510000Y242500D02*
G54D12*
D03*
X1485000Y242500D02*
G54D12*
D03*
X1460000Y242500D02*
G54D12*
D03*
X1435000Y242500D02*
G54D12*
D03*
X1410000Y242500D02*
G54D12*
D03*
X1385000Y242500D02*
G54D12*
D03*
X1385000Y317500D02*
G54D12*
D03*
X1410000Y317500D02*
G54D12*
D03*
X1435000Y317500D02*
G54D12*
D03*
X1460000Y317500D02*
G54D12*
D03*
X1485000Y317500D02*
G54D12*
D03*
X1510000Y317500D02*
G54D12*
D03*
X1535000Y317500D02*
G54D12*
D03*
X1560000Y317500D02*
G54D12*
D03*
X1585000Y317500D02*
G54D12*
D03*
X1610000Y317500D02*
G54D12*
D03*
G36*
X978000Y249500D02*
X992000Y249500D01*
X992000Y235500D01*
X978000Y235500D01*
X978000Y249500D01*
G37*
X960000Y242500D02*
G54D12*
D03*
X935000Y242500D02*
G54D12*
D03*
X910000Y242500D02*
G54D12*
D03*
X885000Y242500D02*
G54D12*
D03*
X860000Y242500D02*
G54D12*
D03*
X835000Y242500D02*
G54D12*
D03*
X810000Y242500D02*
G54D12*
D03*
X810000Y317500D02*
G54D12*
D03*
X835000Y317500D02*
G54D12*
D03*
X860000Y317500D02*
G54D12*
D03*
X885000Y317500D02*
G54D12*
D03*
X910000Y317500D02*
G54D12*
D03*
X935000Y317500D02*
G54D12*
D03*
X960000Y317500D02*
G54D12*
D03*
X985000Y317500D02*
G54D12*
D03*
G36*
X1603000Y564500D02*
X1617000Y564500D01*
X1617000Y550500D01*
X1603000Y550500D01*
X1603000Y564500D01*
G37*
X1585000Y557500D02*
G54D12*
D03*
X1560000Y557500D02*
G54D12*
D03*
X1535000Y557500D02*
G54D12*
D03*
X1510000Y557500D02*
G54D12*
D03*
X1485000Y557500D02*
G54D12*
D03*
X1460000Y557500D02*
G54D12*
D03*
X1460000Y632500D02*
G54D12*
D03*
X1485000Y632500D02*
G54D12*
D03*
X1510000Y632500D02*
G54D12*
D03*
X1535000Y632500D02*
G54D12*
D03*
X1560000Y632500D02*
G54D12*
D03*
X1585000Y632500D02*
G54D12*
D03*
X1610000Y632500D02*
G54D12*
D03*
G36*
X655500Y509500D02*
X669500Y509500D01*
X669500Y495500D01*
X655500Y495500D01*
X655500Y509500D01*
G37*
X662500Y477500D02*
G54D11*
D03*
X662500Y452500D02*
G54D11*
D03*
X662500Y425000D02*
G54D11*
D03*
X662500Y400000D02*
G54D11*
D03*
X662500Y375000D02*
G54D11*
D03*
X662500Y350000D02*
G54D11*
D03*
X662500Y325000D02*
G54D11*
D03*
X662500Y300000D02*
G54D11*
D03*
X662500Y275000D02*
G54D11*
D03*
X662500Y250000D02*
G54D11*
D03*
X662500Y225000D02*
G54D11*
D03*
X662500Y200000D02*
G54D11*
D03*
X662500Y175000D02*
G54D11*
D03*
X510000Y175000D02*
G54D11*
D03*
X510000Y200000D02*
G54D11*
D03*
X510000Y225000D02*
G54D11*
D03*
X510000Y250000D02*
G54D11*
D03*
X510000Y275000D02*
G54D11*
D03*
X510000Y300000D02*
G54D11*
D03*
X510000Y325000D02*
G54D11*
D03*
X510000Y350000D02*
G54D11*
D03*
X510000Y375000D02*
G54D11*
D03*
X510000Y400000D02*
G54D11*
D03*
X510000Y425000D02*
G54D11*
D03*
X510000Y452500D02*
G54D11*
D03*
X510000Y477500D02*
G54D11*
D03*
X510000Y502500D02*
G54D11*
D03*
G36*
X450500Y407000D02*
X464500Y407000D01*
X464500Y393000D01*
X450500Y393000D01*
X450500Y407000D01*
G37*
X457500Y375000D02*
G54D11*
D03*
X457500Y350000D02*
G54D11*
D03*
X457500Y325000D02*
G54D11*
D03*
X457500Y300000D02*
G54D11*
D03*
X457500Y275000D02*
G54D11*
D03*
X457500Y250000D02*
G54D11*
D03*
X457500Y225000D02*
G54D11*
D03*
X380000Y225000D02*
G54D11*
D03*
X380000Y250000D02*
G54D11*
D03*
X380000Y275000D02*
G54D11*
D03*
X380000Y300000D02*
G54D11*
D03*
X380000Y325000D02*
G54D11*
D03*
X380000Y350000D02*
G54D11*
D03*
X380000Y375000D02*
G54D11*
D03*
X380000Y400000D02*
G54D11*
D03*
G36*
X275500Y457000D02*
X289500Y457000D01*
X289500Y443000D01*
X275500Y443000D01*
X275500Y457000D01*
G37*
X282500Y425000D02*
G54D11*
D03*
X282500Y400000D02*
G54D11*
D03*
X282500Y375000D02*
G54D11*
D03*
X282500Y350000D02*
G54D11*
D03*
X282500Y325000D02*
G54D11*
D03*
X282500Y300000D02*
G54D11*
D03*
X282500Y275000D02*
G54D11*
D03*
X282500Y250000D02*
G54D11*
D03*
X282500Y225000D02*
G54D11*
D03*
X282500Y200000D02*
G54D11*
D03*
X282500Y175000D02*
G54D11*
D03*
X130000Y175000D02*
G54D11*
D03*
X130000Y200000D02*
G54D11*
D03*
X130000Y225000D02*
G54D11*
D03*
X130000Y250000D02*
G54D11*
D03*
X130000Y275000D02*
G54D11*
D03*
X130000Y300000D02*
G54D11*
D03*
X130000Y325000D02*
G54D11*
D03*
X130000Y350000D02*
G54D11*
D03*
X130000Y375000D02*
G54D11*
D03*
X130000Y400000D02*
G54D11*
D03*
X130000Y425000D02*
G54D11*
D03*
X130000Y450000D02*
G54D11*
D03*
G36*
X713000Y619500D02*
X727000Y619500D01*
X727000Y605500D01*
X713000Y605500D01*
X713000Y619500D01*
G37*
X745000Y612500D02*
G54D11*
D03*
X770000Y612500D02*
G54D11*
D03*
X935000Y162500D02*
G54D13*
D03*
X960000Y162500D02*
G54D13*
D03*
X935000Y137500D02*
G54D13*
D03*
X960000Y137500D02*
G54D13*
D03*
X985000Y162500D02*
G54D13*
D03*
X1010000Y162500D02*
G54D13*
D03*
X985000Y137500D02*
G54D13*
D03*
X1010000Y137500D02*
G54D13*
D03*
X985000Y187500D02*
G54D13*
D03*
X1010000Y187500D02*
G54D13*
D03*
X1035000Y162500D02*
G54D13*
D03*
X1035000Y137500D02*
G54D13*
D03*
X1060000Y162500D02*
G54D13*
D03*
X1085000Y162500D02*
G54D13*
D03*
X1060000Y137500D02*
G54D13*
D03*
G36*
X1702000Y145500D02*
X1718000Y145500D01*
X1718000Y129500D01*
X1702000Y129500D01*
X1702000Y145500D01*
G37*
X960000Y187500D02*
G54D13*
D03*
X1085000Y137500D02*
G54D13*
D03*
X1060000Y187500D02*
G54D13*
D03*
X1085000Y187500D02*
G54D13*
D03*
X1035000Y187500D02*
G54D13*
D03*
X1110000Y162500D02*
G54D13*
D03*
X1110000Y137500D02*
G54D13*
D03*
X1135000Y162500D02*
G54D13*
D03*
X1160000Y162500D02*
G54D13*
D03*
X1135000Y137500D02*
G54D13*
D03*
X1160000Y137500D02*
G54D13*
D03*
X1135000Y187500D02*
G54D13*
D03*
X1160000Y187500D02*
G54D13*
D03*
X1185000Y162500D02*
G54D13*
D03*
X1185000Y137500D02*
G54D13*
D03*
X1210000Y162500D02*
G54D13*
D03*
X1235000Y162500D02*
G54D13*
D03*
X1210000Y137500D02*
G54D13*
D03*
X1110000Y187500D02*
G54D13*
D03*
X1235000Y137500D02*
G54D13*
D03*
X1210000Y187500D02*
G54D13*
D03*
X1235000Y187500D02*
G54D13*
D03*
X1185000Y187500D02*
G54D13*
D03*
X1260000Y162500D02*
G54D13*
D03*
X1285000Y162500D02*
G54D13*
D03*
X1260000Y137500D02*
G54D13*
D03*
X1285000Y137500D02*
G54D13*
D03*
X1310000Y162500D02*
G54D13*
D03*
X1335000Y162500D02*
G54D13*
D03*
X1310000Y137500D02*
G54D13*
D03*
X1335000Y137500D02*
G54D13*
D03*
X1310000Y187500D02*
G54D13*
D03*
X1335000Y187500D02*
G54D13*
D03*
X1360000Y162500D02*
G54D13*
D03*
X1360000Y137500D02*
G54D13*
D03*
X1385000Y162500D02*
G54D13*
D03*
X1410000Y162500D02*
G54D13*
D03*
X1385000Y137500D02*
G54D13*
D03*
X1260000Y187500D02*
G54D13*
D03*
X1285000Y187500D02*
G54D13*
D03*
X1410000Y137500D02*
G54D13*
D03*
X1385000Y187500D02*
G54D13*
D03*
X1410000Y187500D02*
G54D13*
D03*
X1360000Y187500D02*
G54D13*
D03*
X1435000Y162500D02*
G54D13*
D03*
X1435000Y137500D02*
G54D13*
D03*
X1460000Y162500D02*
G54D13*
D03*
X1485000Y162500D02*
G54D13*
D03*
X1460000Y137500D02*
G54D13*
D03*
X1485000Y137500D02*
G54D13*
D03*
X1460000Y187500D02*
G54D13*
D03*
X1485000Y187500D02*
G54D13*
D03*
X1510000Y162500D02*
G54D13*
D03*
X1510000Y137500D02*
G54D13*
D03*
X1535000Y162500D02*
G54D13*
D03*
X1560000Y162500D02*
G54D13*
D03*
X1535000Y137500D02*
G54D13*
D03*
X1435000Y187500D02*
G54D13*
D03*
X1560000Y137500D02*
G54D13*
D03*
X1535000Y187500D02*
G54D13*
D03*
X1560000Y187500D02*
G54D13*
D03*
X1510000Y187500D02*
G54D13*
D03*
X1585000Y162500D02*
G54D13*
D03*
X1585000Y137500D02*
G54D13*
D03*
X1610000Y162500D02*
G54D13*
D03*
X1635000Y162500D02*
G54D13*
D03*
X1610000Y137500D02*
G54D13*
D03*
X1635000Y137500D02*
G54D13*
D03*
X1610000Y187500D02*
G54D13*
D03*
X1635000Y187500D02*
G54D13*
D03*
X1660000Y162500D02*
G54D13*
D03*
X1660000Y137500D02*
G54D13*
D03*
X1685000Y162500D02*
G54D13*
D03*
X1710000Y162500D02*
G54D13*
D03*
X1685000Y137500D02*
G54D13*
D03*
X1585000Y187500D02*
G54D13*
D03*
X935000Y187500D02*
G54D13*
D03*
X1685000Y187500D02*
G54D13*
D03*
X1710000Y187500D02*
G54D13*
D03*
X1660000Y187500D02*
G54D13*
D03*
G36*
X747500Y550000D02*
X762500Y550000D01*
X762500Y535000D01*
X747500Y535000D01*
X747500Y550000D01*
G37*
X730000Y542500D02*
G54D14*
D03*
X755000Y517500D02*
G54D14*
D03*
X730000Y517500D02*
G54D14*
D03*
X755000Y492500D02*
G54D14*
D03*
X730000Y492500D02*
G54D14*
D03*
X755000Y467500D02*
G54D14*
D03*
X730000Y467500D02*
G54D14*
D03*
X755000Y440000D02*
G54D14*
D03*
X730000Y440000D02*
G54D14*
D03*
X755000Y415000D02*
G54D14*
D03*
X730000Y415000D02*
G54D14*
D03*
X755000Y390000D02*
G54D14*
D03*
X730000Y390000D02*
G54D14*
D03*
X755000Y365000D02*
G54D14*
D03*
X730000Y365000D02*
G54D14*
D03*
X755000Y340000D02*
G54D14*
D03*
X730000Y340000D02*
G54D14*
D03*
X755000Y315000D02*
G54D14*
D03*
X730000Y315000D02*
G54D14*
D03*
X755000Y290000D02*
G54D14*
D03*
X730000Y290000D02*
G54D14*
D03*
X755000Y262500D02*
G54D14*
D03*
X730000Y262500D02*
G54D14*
D03*
X755000Y237500D02*
G54D14*
D03*
X730000Y237500D02*
G54D14*
D03*
X755000Y212500D02*
G54D14*
D03*
X730000Y212500D02*
G54D14*
D03*
X755000Y187500D02*
G54D14*
D03*
X730000Y187500D02*
G54D14*
D03*
X755000Y162500D02*
G54D14*
D03*
X730000Y162500D02*
G54D14*
D03*
X755000Y137500D02*
G54D14*
D03*
X730000Y137500D02*
G54D14*
D03*
G36*
X373000Y719500D02*
X387000Y719500D01*
X387000Y705500D01*
X373000Y705500D01*
X373000Y719500D01*
G37*
X405000Y712500D02*
G54D11*
D03*
X430000Y712500D02*
G54D11*
D03*
G36*
X373000Y769500D02*
X387000Y769500D01*
X387000Y755500D01*
X373000Y755500D01*
X373000Y769500D01*
G37*
X405000Y762500D02*
G54D11*
D03*
X430000Y762500D02*
G54D11*
D03*
G36*
X397000Y665500D02*
X413000Y665500D01*
X413000Y649500D01*
X397000Y649500D01*
X397000Y665500D01*
G37*
X380000Y657500D02*
G54D15*
D03*
X405000Y632500D02*
G54D15*
D03*
X380000Y632500D02*
G54D15*
D03*
X405000Y607500D02*
G54D15*
D03*
X380000Y607500D02*
G54D15*
D03*
X405000Y582500D02*
G54D15*
D03*
X380000Y582500D02*
G54D15*
D03*
X405000Y557500D02*
G54D15*
D03*
X380000Y557500D02*
G54D15*
D03*
X795000Y665000D02*
G54D11*
D03*
X695000Y665000D02*
G54D11*
D03*
X1035000Y670000D02*
G54D11*
D03*
X1035000Y770000D02*
G54D11*
D03*
X1880000Y357500D02*
G54D11*
D03*
X1775000Y357500D02*
G54D11*
D03*
X1277500Y662500D02*
G54D11*
D03*
X1177500Y662500D02*
G54D11*
D03*
X1875000Y517500D02*
G54D11*
D03*
X1772500Y517500D02*
G54D11*
D03*
X1652500Y770000D02*
G54D11*
D03*
X1652500Y670000D02*
G54D11*
D03*
X1645000Y482500D02*
G54D11*
D03*
X1645000Y382500D02*
G54D11*
D03*
X1645000Y517500D02*
G54D11*
D03*
X1747500Y517500D02*
G54D11*
D03*
X1077500Y470000D02*
G54D11*
D03*
X1077500Y572500D02*
G54D11*
D03*
X1417500Y557500D02*
G54D11*
D03*
X1417500Y657500D02*
G54D11*
D03*
X1320000Y557500D02*
G54D11*
D03*
X1320000Y657500D02*
G54D11*
D03*
X835000Y665000D02*
G54D11*
D03*
X935000Y665000D02*
G54D11*
D03*
X795000Y527500D02*
G54D11*
D03*
X897500Y527500D02*
G54D11*
D03*
X930000Y527500D02*
G54D11*
D03*
X1032500Y527500D02*
G54D11*
D03*
X930000Y477500D02*
G54D11*
D03*
X1032500Y477500D02*
G54D11*
D03*
X795000Y477500D02*
G54D11*
D03*
X897500Y477500D02*
G54D11*
D03*
X-30000Y297500D02*
G54D11*
D03*
X-30000Y400000D02*
G54D11*
D03*
X25000Y567500D02*
G54D11*
D03*
X25000Y670000D02*
G54D11*
D03*
X75000Y300000D02*
G54D11*
D03*
X75000Y400000D02*
G54D11*
D03*
X332500Y225000D02*
G54D11*
D03*
X332500Y325000D02*
G54D11*
D03*
X75000Y172500D02*
G54D11*
D03*
X75000Y272500D02*
G54D11*
D03*
X22500Y427500D02*
G54D11*
D03*
X22500Y527500D02*
G54D11*
D03*
X1077500Y707500D02*
G54D11*
D03*
X1077500Y770000D02*
G54D11*
D03*
G36*
X68000Y677000D02*
X82000Y677000D01*
X82000Y663000D01*
X68000Y663000D01*
X68000Y677000D01*
G37*
X75000Y567500D02*
G54D11*
D03*
G36*
X68000Y434500D02*
X82000Y434500D01*
X82000Y420500D01*
X68000Y420500D01*
X68000Y434500D01*
G37*
X75000Y527500D02*
G54D11*
D03*
G36*
X-37000Y179500D02*
X-23000Y179500D01*
X-23000Y165500D01*
X-37000Y165500D01*
X-37000Y179500D01*
G37*
X-30000Y272500D02*
G54D11*
D03*
G36*
X325500Y484500D02*
X339500Y484500D01*
X339500Y470500D01*
X325500Y470500D01*
X325500Y484500D01*
G37*
X332500Y580000D02*
G54D11*
D03*
G36*
X325500Y357000D02*
X339500Y357000D01*
X339500Y343000D01*
X325500Y343000D01*
X325500Y357000D01*
G37*
X332500Y452500D02*
G54D11*
D03*
G54D16*
X12500Y207500D02*
X22500Y207500D01*
G54D16*
X12500Y222500D02*
X22500Y222500D01*
X722500Y760000D02*
G54D11*
D03*
X770000Y760000D02*
G54D11*
D03*
G36*
X603000Y769500D02*
X617000Y769500D01*
X617000Y755500D01*
X603000Y755500D01*
X603000Y769500D01*
G37*
X610000Y685000D02*
G54D11*
D03*
X535000Y685000D02*
G54D11*
D03*
X535000Y762500D02*
G54D11*
D03*
X-37500Y527500D02*
G54D12*
D03*
X-10000Y527500D02*
G54D12*
D03*
X20000Y392500D02*
G54D11*
D03*
X-30000Y400000D02*
G54D11*
D03*
X75000Y400000D02*
G54D11*
D03*
X22500Y427500D02*
G54D11*
D03*
G36*
X68000Y434500D02*
X82000Y434500D01*
X82000Y420500D01*
X68000Y420500D01*
X68000Y434500D01*
G37*
G54D16*
X12500Y192500D02*
X22500Y192500D01*
X1228500Y-5000D02*
G54D15*
D03*
G36*
X1195500Y3000D02*
X1211500Y3000D01*
X1211500Y-13000D01*
X1195500Y-13000D01*
X1195500Y3000D01*
G37*
G36*
X1220500Y55500D02*
X1236500Y55500D01*
X1236500Y39500D01*
X1220500Y39500D01*
X1220500Y55500D01*
G37*
X1203500Y47500D02*
G54D15*
D03*
X1493500Y47500D02*
G54D15*
D03*
X1468500Y47500D02*
G54D15*
D03*
X1443500Y47500D02*
G54D15*
D03*
X1418500Y47500D02*
G54D15*
D03*
X1391000Y47500D02*
G54D15*
D03*
X1366000Y47500D02*
G54D15*
D03*
X1341000Y47500D02*
G54D15*
D03*
X1316000Y47500D02*
G54D15*
D03*
G36*
X1283000Y55500D02*
X1299000Y55500D01*
X1299000Y39500D01*
X1283000Y39500D01*
X1283000Y55500D01*
G37*
G54D16*
X1411000Y-77500D02*
X1421000Y-77500D01*
G54D16*
X1411000Y-65000D02*
X1421000Y-65000D01*
G54D16*
X1411000Y-137500D02*
X1421000Y-137500D01*
G54D16*
X1411000Y-125000D02*
X1421000Y-125000D01*
G54D16*
X1411000Y-205000D02*
X1421000Y-205000D01*
G54D16*
X1411000Y-192500D02*
X1421000Y-192500D01*
G54D16*
X1411000Y-267500D02*
X1421000Y-267500D01*
G54D16*
X1411000Y-255000D02*
X1421000Y-255000D01*
G54D16*
X1466500Y-267500D02*
X1476500Y-267500D01*
G54D16*
X1466500Y-255000D02*
X1476500Y-255000D01*
G54D16*
X1466500Y-205000D02*
X1476500Y-205000D01*
G54D16*
X1466500Y-192500D02*
X1476500Y-192500D01*
G54D16*
X1466500Y-137500D02*
X1476500Y-137500D01*
G54D16*
X1466500Y-125000D02*
X1476500Y-125000D01*
G54D16*
X1466500Y-77500D02*
X1476500Y-77500D01*
G54D16*
X1466500Y-65000D02*
X1476500Y-65000D01*
X861000Y65000D02*
G54D17*
D03*
X963500Y65000D02*
G54D17*
D03*
X823500Y65000D02*
G54D18*
D03*
X798500Y40000D02*
G54D18*
D03*
X771000Y65000D02*
G54D18*
D03*
X1368500Y-130000D02*
G54D17*
D03*
X1293500Y-130000D02*
G54D17*
D03*
X1368500Y-180000D02*
G54D17*
D03*
X1293500Y-180000D02*
G54D17*
D03*
X1368500Y-230000D02*
G54D17*
D03*
X1293500Y-230000D02*
G54D17*
D03*
X1368500Y-280000D02*
G54D17*
D03*
X1293500Y-280000D02*
G54D17*
D03*
X1368500Y-255000D02*
G54D17*
D03*
X1293500Y-255000D02*
G54D17*
D03*
X1368500Y-205000D02*
G54D17*
D03*
X1293500Y-205000D02*
G54D17*
D03*
X1368500Y-155000D02*
G54D17*
D03*
X1293500Y-155000D02*
G54D17*
D03*
X1368500Y-105000D02*
G54D17*
D03*
X1293500Y-105000D02*
G54D17*
D03*
X1471000Y-30000D02*
G54D17*
D03*
X1393500Y-30000D02*
G54D17*
D03*
X1503500Y2500D02*
G54D17*
D03*
X1503500Y-75000D02*
G54D17*
D03*
X1503500Y-205000D02*
G54D17*
D03*
X1503500Y-280000D02*
G54D17*
D03*
X1293500Y-5000D02*
G54D17*
D03*
X1368500Y-5000D02*
G54D17*
D03*
X1293500Y-30000D02*
G54D17*
D03*
X1368500Y-30000D02*
G54D17*
D03*
X1503500Y-100000D02*
G54D17*
D03*
X1503500Y-172500D02*
G54D17*
D03*
X1293500Y-55000D02*
G54D17*
D03*
X1368500Y-55000D02*
G54D17*
D03*
X1293500Y-80000D02*
G54D17*
D03*
X1368500Y-80000D02*
G54D17*
D03*
G36*
X751000Y2500D02*
X766000Y2500D01*
X766000Y-12500D01*
X751000Y-12500D01*
X751000Y2500D01*
G37*
X758500Y-30000D02*
G54D17*
D03*
X758500Y-55000D02*
G54D17*
D03*
X758500Y-80000D02*
G54D17*
D03*
X758500Y-105000D02*
G54D17*
D03*
X758500Y-130000D02*
G54D17*
D03*
X758500Y-155000D02*
G54D17*
D03*
X836000Y-155000D02*
G54D17*
D03*
X836000Y-130000D02*
G54D17*
D03*
X836000Y-105000D02*
G54D17*
D03*
X836000Y-80000D02*
G54D17*
D03*
X836000Y-55000D02*
G54D17*
D03*
X836000Y-30000D02*
G54D17*
D03*
X836000Y-5000D02*
G54D17*
D03*
G36*
X866000Y27500D02*
X881000Y27500D01*
X881000Y12500D01*
X866000Y12500D01*
X866000Y27500D01*
G37*
X873500Y-5000D02*
G54D17*
D03*
X873500Y-30000D02*
G54D17*
D03*
X873500Y-55000D02*
G54D17*
D03*
X873500Y-80000D02*
G54D17*
D03*
X873500Y-105000D02*
G54D17*
D03*
X873500Y-130000D02*
G54D17*
D03*
X873500Y-155000D02*
G54D17*
D03*
X951000Y-155000D02*
G54D17*
D03*
X951000Y-130000D02*
G54D17*
D03*
X951000Y-105000D02*
G54D17*
D03*
X951000Y-80000D02*
G54D17*
D03*
X951000Y-55000D02*
G54D17*
D03*
X951000Y-30000D02*
G54D17*
D03*
X951000Y-5000D02*
G54D17*
D03*
X951000Y20000D02*
G54D17*
D03*
G36*
X981000Y52500D02*
X996000Y52500D01*
X996000Y37500D01*
X981000Y37500D01*
X981000Y52500D01*
G37*
X988500Y20000D02*
G54D17*
D03*
X988500Y-5000D02*
G54D17*
D03*
X988500Y-30000D02*
G54D17*
D03*
X988500Y-55000D02*
G54D17*
D03*
X988500Y-80000D02*
G54D17*
D03*
X988500Y-105000D02*
G54D17*
D03*
X988500Y-130000D02*
G54D17*
D03*
X988500Y-155000D02*
G54D17*
D03*
X988500Y-180000D02*
G54D17*
D03*
X988500Y-205000D02*
G54D17*
D03*
X988500Y-230000D02*
G54D17*
D03*
X988500Y-255000D02*
G54D17*
D03*
X988500Y-280000D02*
G54D17*
D03*
X1141000Y-280000D02*
G54D17*
D03*
X1141000Y-255000D02*
G54D17*
D03*
X1141000Y-230000D02*
G54D17*
D03*
X1141000Y-205000D02*
G54D17*
D03*
X1141000Y-180000D02*
G54D17*
D03*
X1141000Y-155000D02*
G54D17*
D03*
X1141000Y-130000D02*
G54D17*
D03*
X1141000Y-105000D02*
G54D17*
D03*
X1141000Y-80000D02*
G54D17*
D03*
X1141000Y-55000D02*
G54D17*
D03*
X1141000Y-30000D02*
G54D17*
D03*
X1141000Y-5000D02*
G54D17*
D03*
X1141000Y20000D02*
G54D17*
D03*
X1141000Y45000D02*
G54D17*
D03*
G36*
X928500Y-197500D02*
X943500Y-197500D01*
X943500Y-212500D01*
X928500Y-212500D01*
X928500Y-197500D01*
G37*
X911000Y-205000D02*
G54D17*
D03*
X886000Y-205000D02*
G54D17*
D03*
X861000Y-205000D02*
G54D17*
D03*
X836000Y-205000D02*
G54D17*
D03*
X811000Y-205000D02*
G54D17*
D03*
X786000Y-205000D02*
G54D17*
D03*
X758500Y-205000D02*
G54D17*
D03*
X758500Y-280000D02*
G54D17*
D03*
X786000Y-280000D02*
G54D17*
D03*
X811000Y-280000D02*
G54D17*
D03*
X836000Y-280000D02*
G54D17*
D03*
X861000Y-280000D02*
G54D17*
D03*
X886000Y-280000D02*
G54D17*
D03*
X911000Y-280000D02*
G54D17*
D03*
X936000Y-280000D02*
G54D17*
D03*
G36*
X1171000Y-47500D02*
X1186000Y-47500D01*
X1186000Y-62500D01*
X1171000Y-62500D01*
X1171000Y-47500D01*
G37*
X1178500Y-80000D02*
G54D17*
D03*
X1178500Y-105000D02*
G54D17*
D03*
X1178500Y-130000D02*
G54D17*
D03*
X1178500Y-155000D02*
G54D17*
D03*
X1178500Y-180000D02*
G54D17*
D03*
X1178500Y-205000D02*
G54D17*
D03*
X1178500Y-230000D02*
G54D17*
D03*
X1178500Y-255000D02*
G54D17*
D03*
X1178500Y-280000D02*
G54D17*
D03*
X1253500Y-55000D02*
G54D17*
D03*
X1253500Y-80000D02*
G54D17*
D03*
X1253500Y-105000D02*
G54D17*
D03*
X1253500Y-130000D02*
G54D17*
D03*
X1253500Y-155000D02*
G54D17*
D03*
X1253500Y-180000D02*
G54D17*
D03*
X1253500Y-205000D02*
G54D17*
D03*
X1253500Y-230000D02*
G54D17*
D03*
X1253500Y-255000D02*
G54D17*
D03*
X1253500Y-280000D02*
G54D17*
D03*
G54D16*
X1411000Y-90000D02*
X1421000Y-90000D01*
G54D16*
X1466500Y-90000D02*
X1476500Y-90000D01*
G54D16*
X1411000Y-150000D02*
X1421000Y-150000D01*
G54D16*
X1466500Y-150000D02*
X1476500Y-150000D01*
G54D16*
X1411000Y-217500D02*
X1421000Y-217500D01*
G54D16*
X1466500Y-217500D02*
X1476500Y-217500D01*
G54D16*
X1411000Y-280000D02*
X1421000Y-280000D01*
G54D16*
X1466500Y-280000D02*
X1476500Y-280000D01*
X1866397Y-117881D02*
G54D11*
D03*
X1841397Y-117881D02*
G54D11*
D03*
X1816397Y-117881D02*
G54D11*
D03*
X1866397Y-135381D02*
G54D11*
D03*
X1841397Y-135381D02*
G54D11*
D03*
X1816397Y-135381D02*
G54D11*
D03*
X1866397Y-215381D02*
G54D11*
D03*
X1841397Y-215381D02*
G54D11*
D03*
X1816397Y-215381D02*
G54D11*
D03*
X1816397Y-235381D02*
G54D11*
D03*
X1816397Y-315381D02*
G54D11*
D03*
X1841397Y-285381D02*
G54D11*
D03*
X1841397Y-260381D02*
G54D11*
D03*
X1841397Y-235381D02*
G54D11*
D03*
X1866397Y-235381D02*
G54D11*
D03*
X1866397Y-315381D02*
G54D11*
D03*
X1841397Y-315381D02*
G54D11*
D03*
X1891397Y-215381D02*
G54D11*
D03*
X1888897Y-315381D02*
G54D11*
D03*
X403225Y-133190D02*
G54D19*
D03*
G36*
X319231Y-62690D02*
X333231Y-62690D01*
X333231Y-76690D01*
X319231Y-76690D01*
X319231Y-62690D01*
G37*
X326231Y-95090D02*
G54D12*
D03*
G36*
X73756Y65310D02*
X89756Y65310D01*
X89756Y49310D01*
X73756Y49310D01*
X73756Y65310D01*
G37*
X81756Y31910D02*
G54D13*
D03*
X392906Y-69690D02*
G54D12*
D03*
X392906Y-95090D02*
G54D12*
D03*
X469900Y-69690D02*
G54D12*
D03*
X469900Y-95090D02*
G54D12*
D03*
G36*
X119206Y64310D02*
X133206Y64310D01*
X133206Y50310D01*
X119206Y50310D01*
X119206Y64310D01*
G37*
X126206Y31910D02*
G54D12*
D03*
X126206Y6510D02*
G54D12*
D03*
X126206Y-18890D02*
G54D12*
D03*
X126206Y-44290D02*
G54D12*
D03*
X126206Y-69690D02*
G54D12*
D03*
X126206Y-95090D02*
G54D12*
D03*
X126206Y-120490D02*
G54D12*
D03*
X126206Y-145890D02*
G54D12*
D03*
X126206Y-171290D02*
G54D12*
D03*
X126206Y-196690D02*
G54D12*
D03*
X126206Y-222090D02*
G54D12*
D03*
X126206Y-247490D02*
G54D12*
D03*
X126206Y-272890D02*
G54D12*
D03*
X126206Y-298290D02*
G54D12*
D03*
X126206Y-323690D02*
G54D12*
D03*
X278606Y-323690D02*
G54D12*
D03*
X278606Y-298290D02*
G54D12*
D03*
X278606Y-272890D02*
G54D12*
D03*
X278606Y-247490D02*
G54D12*
D03*
X278606Y-222090D02*
G54D12*
D03*
X278606Y-196690D02*
G54D12*
D03*
X278606Y-171290D02*
G54D12*
D03*
X278606Y-145890D02*
G54D12*
D03*
X278606Y-120490D02*
G54D12*
D03*
X278606Y-95090D02*
G54D12*
D03*
X278606Y-69690D02*
G54D12*
D03*
X278606Y-44290D02*
G54D12*
D03*
X278606Y-18890D02*
G54D12*
D03*
X278606Y6510D02*
G54D12*
D03*
X278606Y31910D02*
G54D12*
D03*
X278606Y57310D02*
G54D12*
D03*
X332581Y-133190D02*
G54D20*
D03*
X332581Y-145890D02*
G54D20*
D03*
X332581Y-158590D02*
G54D20*
D03*
X332581Y-171290D02*
G54D20*
D03*
X332581Y-183990D02*
G54D20*
D03*
X332581Y-196690D02*
G54D20*
D03*
X332581Y-209390D02*
G54D20*
D03*
X332581Y-222090D02*
G54D20*
D03*
X332581Y-234790D02*
G54D20*
D03*
X332581Y-247490D02*
G54D20*
D03*
X332581Y-260190D02*
G54D20*
D03*
X332581Y-272890D02*
G54D20*
D03*
X332581Y-285590D02*
G54D20*
D03*
X332581Y-298290D02*
G54D20*
D03*
X332581Y-310990D02*
G54D20*
D03*
X332581Y-323690D02*
G54D20*
D03*
X426244Y-323690D02*
G54D20*
D03*
X426244Y-310990D02*
G54D20*
D03*
X426244Y-298290D02*
G54D20*
D03*
X426244Y-285590D02*
G54D20*
D03*
X426244Y-272890D02*
G54D20*
D03*
X426244Y-260190D02*
G54D20*
D03*
X426244Y-247490D02*
G54D20*
D03*
X426244Y-234790D02*
G54D20*
D03*
X426244Y-222090D02*
G54D20*
D03*
X426244Y-209390D02*
G54D20*
D03*
X426244Y-196690D02*
G54D20*
D03*
X426244Y-183990D02*
G54D20*
D03*
X426244Y-171290D02*
G54D20*
D03*
X426244Y-158590D02*
G54D20*
D03*
X426244Y-145890D02*
G54D20*
D03*
X426244Y-133190D02*
G54D20*
D03*
X477044Y-133190D02*
G54D20*
D03*
X477044Y-145890D02*
G54D20*
D03*
X477044Y-158590D02*
G54D20*
D03*
X477044Y-171290D02*
G54D20*
D03*
X477044Y-183990D02*
G54D20*
D03*
X477044Y-196690D02*
G54D20*
D03*
X477044Y-209390D02*
G54D20*
D03*
X477044Y-222090D02*
G54D20*
D03*
X477044Y-234790D02*
G54D20*
D03*
X477044Y-247490D02*
G54D20*
D03*
X477044Y-260190D02*
G54D20*
D03*
X477044Y-272890D02*
G54D20*
D03*
X477044Y-285590D02*
G54D20*
D03*
X477044Y-298290D02*
G54D20*
D03*
X477044Y-310990D02*
G54D20*
D03*
X477044Y-323690D02*
G54D20*
D03*
X570706Y-323690D02*
G54D20*
D03*
X570706Y-310990D02*
G54D20*
D03*
X570706Y-298290D02*
G54D20*
D03*
X570706Y-285590D02*
G54D20*
D03*
X570706Y-272890D02*
G54D20*
D03*
X570706Y-260190D02*
G54D20*
D03*
X570706Y-247490D02*
G54D20*
D03*
X570706Y-234790D02*
G54D20*
D03*
X570706Y-222090D02*
G54D20*
D03*
X570706Y-209390D02*
G54D20*
D03*
X570706Y-196690D02*
G54D20*
D03*
X570706Y-183990D02*
G54D20*
D03*
X570706Y-171290D02*
G54D20*
D03*
X570706Y-158590D02*
G54D20*
D03*
X570706Y-145890D02*
G54D20*
D03*
X570706Y-133190D02*
G54D20*
D03*
G36*
X304944Y-11890D02*
X318944Y-11890D01*
X318944Y-25890D01*
X304944Y-25890D01*
X304944Y-11890D01*
G37*
X337344Y-18890D02*
G54D12*
D03*
X362744Y-18890D02*
G54D12*
D03*
X388144Y-18890D02*
G54D12*
D03*
X413544Y-18890D02*
G54D12*
D03*
X438944Y-18890D02*
G54D12*
D03*
X464344Y-18890D02*
G54D12*
D03*
X489744Y-18890D02*
G54D12*
D03*
X489744Y57310D02*
G54D12*
D03*
X464344Y57310D02*
G54D12*
D03*
X438944Y57310D02*
G54D12*
D03*
X413544Y57310D02*
G54D12*
D03*
X388144Y57310D02*
G54D12*
D03*
X362744Y57310D02*
G54D12*
D03*
X337344Y57310D02*
G54D12*
D03*
X311944Y57310D02*
G54D12*
D03*
X626269Y-260190D02*
G54D20*
D03*
X626269Y-272890D02*
G54D20*
D03*
X626269Y-285590D02*
G54D20*
D03*
X626269Y-298290D02*
G54D20*
D03*
X626269Y-310990D02*
G54D20*
D03*
X626269Y-323690D02*
G54D20*
D03*
X626269Y-336390D02*
G54D20*
D03*
X680244Y-336390D02*
G54D20*
D03*
X680244Y-323690D02*
G54D20*
D03*
X680244Y-310990D02*
G54D20*
D03*
X680244Y-298290D02*
G54D20*
D03*
X680244Y-285590D02*
G54D20*
D03*
X680244Y-272890D02*
G54D20*
D03*
X680244Y-260190D02*
G54D20*
D03*
X626269Y-161764D02*
G54D20*
D03*
X626269Y-174464D02*
G54D20*
D03*
X626269Y-187164D02*
G54D20*
D03*
X626269Y-199864D02*
G54D20*
D03*
X626269Y-212564D02*
G54D20*
D03*
X626269Y-225264D02*
G54D20*
D03*
X626269Y-237964D02*
G54D20*
D03*
X680244Y-237964D02*
G54D20*
D03*
X680244Y-225264D02*
G54D20*
D03*
X680244Y-212564D02*
G54D20*
D03*
X680244Y-199864D02*
G54D20*
D03*
X680244Y-187164D02*
G54D20*
D03*
X680244Y-174464D02*
G54D20*
D03*
X680244Y-161764D02*
G54D20*
D03*
X81756Y-107790D02*
G54D12*
D03*
X81756Y-133190D02*
G54D12*
D03*
X81756Y-158590D02*
G54D12*
D03*
X81756Y-6190D02*
G54D12*
D03*
X81756Y-31590D02*
G54D12*
D03*
X81756Y-56990D02*
G54D12*
D03*
X81756Y-294321D02*
G54D12*
D03*
X81756Y-319721D02*
G54D12*
D03*
G36*
X-30994Y-240458D02*
X-14994Y-240458D01*
X-14994Y-256458D01*
X-30994Y-256458D01*
X-30994Y-240458D01*
G37*
X2006Y-23458D02*
G54D15*
D03*
X-22994Y-23458D02*
G54D15*
D03*
X27006Y-23458D02*
G54D15*
D03*
X2006Y-48458D02*
G54D15*
D03*
X-22994Y-48458D02*
G54D15*
D03*
X2006Y-73458D02*
G54D15*
D03*
X2006Y-98958D02*
G54D15*
D03*
X-22994Y-73458D02*
G54D15*
D03*
X-22994Y-98958D02*
G54D15*
D03*
X27006Y-73458D02*
G54D15*
D03*
X27006Y-98958D02*
G54D15*
D03*
X27006Y-48458D02*
G54D15*
D03*
X2006Y-123458D02*
G54D15*
D03*
X-22994Y-123458D02*
G54D15*
D03*
X2006Y-148458D02*
G54D15*
D03*
X2006Y-173458D02*
G54D15*
D03*
X-22994Y-148458D02*
G54D15*
D03*
X-22994Y-173458D02*
G54D15*
D03*
X27006Y-148458D02*
G54D15*
D03*
X27006Y-173458D02*
G54D15*
D03*
X2006Y-198458D02*
G54D15*
D03*
X-22994Y-198458D02*
G54D15*
D03*
X2006Y-223458D02*
G54D15*
D03*
X2006Y-248458D02*
G54D15*
D03*
X-22994Y-223458D02*
G54D15*
D03*
X27006Y-123458D02*
G54D15*
D03*
X27006Y-223458D02*
G54D15*
D03*
X27006Y-248458D02*
G54D15*
D03*
X27006Y-198458D02*
G54D15*
D03*
X81756Y-270508D02*
G54D12*
D03*
X81756Y-190340D02*
G54D12*
D03*
X332581Y-331627D02*
G54D19*
D03*
X673838Y-72206D02*
G54D10*
D03*
X528888Y72744D02*
G54D10*
D03*
X477044Y-336396D02*
G54D19*
D03*
X1549147Y-231631D02*
G54D18*
D03*
X1574147Y-231631D02*
G54D18*
D03*
X1599147Y-231631D02*
G54D18*
D03*
X1624147Y-231631D02*
G54D18*
D03*
X1649147Y-231631D02*
G54D18*
D03*
X1674147Y-231631D02*
G54D18*
D03*
X1699147Y-231631D02*
G54D18*
D03*
X1724147Y-231631D02*
G54D18*
D03*
X1749147Y-231631D02*
G54D18*
D03*
X1774147Y-231631D02*
G54D18*
D03*
X1549147Y-256631D02*
G54D18*
D03*
X1574147Y-256631D02*
G54D18*
D03*
X1599147Y-256631D02*
G54D18*
D03*
X1624147Y-256631D02*
G54D18*
D03*
X1649147Y-256631D02*
G54D18*
D03*
X1674147Y-256631D02*
G54D18*
D03*
X1699147Y-256631D02*
G54D18*
D03*
X1724147Y-256631D02*
G54D18*
D03*
X1749147Y-256631D02*
G54D18*
D03*
X1774147Y-256631D02*
G54D18*
D03*
X1549147Y-281631D02*
G54D18*
D03*
X1574147Y-281631D02*
G54D18*
D03*
X1599147Y-281631D02*
G54D18*
D03*
X1624147Y-281631D02*
G54D18*
D03*
X1649147Y-281631D02*
G54D18*
D03*
X1674147Y-281631D02*
G54D18*
D03*
X1699147Y-281631D02*
G54D18*
D03*
X1724147Y-281631D02*
G54D18*
D03*
X1749147Y-281631D02*
G54D18*
D03*
X1774147Y-281631D02*
G54D18*
D03*
X1724147Y-201631D02*
G54D11*
D03*
X1724147Y-116631D02*
G54D11*
D03*
X1749147Y-201631D02*
G54D11*
D03*
X1749147Y-116631D02*
G54D11*
D03*
X1774147Y-201631D02*
G54D11*
D03*
X1774147Y-116631D02*
G54D11*
D03*
X1699147Y-201631D02*
G54D11*
D03*
X1699147Y-116631D02*
G54D11*
D03*
X1674147Y-201631D02*
G54D11*
D03*
X1674147Y-116631D02*
G54D11*
D03*
X1649147Y-201631D02*
G54D11*
D03*
X1649147Y-116631D02*
G54D11*
D03*
X1624147Y-201631D02*
G54D11*
D03*
X1624147Y-116631D02*
G54D11*
D03*
X1599147Y-201631D02*
G54D11*
D03*
X1599147Y-116631D02*
G54D11*
D03*
X1574147Y-201631D02*
G54D11*
D03*
X1574147Y-116631D02*
G54D11*
D03*
X1724147Y-311631D02*
G54D18*
D03*
X1749147Y-311631D02*
G54D18*
D03*
X1774147Y-311631D02*
G54D18*
D03*
X1549147Y-201631D02*
G54D11*
D03*
X1549147Y-116631D02*
G54D11*
D03*
X1674147Y-311631D02*
G54D18*
D03*
X1699147Y-311631D02*
G54D18*
D03*
X1649147Y-311631D02*
G54D18*
D03*
X1624147Y-311631D02*
G54D18*
D03*
X1599147Y-311631D02*
G54D18*
D03*
X1535503Y-88103D02*
G54D12*
D03*
X1711503Y-88203D02*
G54D12*
D03*
X1535503Y-11903D02*
G54D12*
D03*
X1637103Y-88103D02*
G54D12*
D03*
X1609603Y-11903D02*
G54D21*
D03*
X1584603Y-11903D02*
G54D21*
D03*
X1559603Y-11903D02*
G54D21*
D03*
X1609603Y-88103D02*
G54D21*
D03*
X1584603Y-88103D02*
G54D21*
D03*
X1559603Y-88103D02*
G54D21*
D03*
X1535603Y-34903D02*
G54D22*
D03*
X1535103Y-65403D02*
G54D22*
D03*
X1693603Y-49903D02*
G54D23*
D03*
X1693603Y-74903D02*
G54D23*
D03*
X1693603Y-24403D02*
G54D23*
D03*
X1637103Y-69803D02*
G54D22*
D03*
X1636953Y-39823D02*
G54D22*
D03*
X1711503Y-35403D02*
G54D22*
D03*
X1711503Y-65403D02*
G54D22*
D03*
X1535503Y11697D02*
G54D12*
D03*
X1711503Y11597D02*
G54D12*
D03*
X1535503Y87897D02*
G54D12*
D03*
X1637103Y11697D02*
G54D12*
D03*
X1609603Y87897D02*
G54D21*
D03*
X1584603Y87897D02*
G54D21*
D03*
X1559603Y87897D02*
G54D21*
D03*
X1609603Y11697D02*
G54D21*
D03*
X1584603Y11697D02*
G54D21*
D03*
X1559603Y11697D02*
G54D21*
D03*
X1535603Y64897D02*
G54D22*
D03*
X1535103Y34397D02*
G54D22*
D03*
X1693603Y49897D02*
G54D23*
D03*
X1693603Y24897D02*
G54D23*
D03*
X1693603Y75397D02*
G54D23*
D03*
X1637103Y29997D02*
G54D22*
D03*
X1636953Y59977D02*
G54D22*
D03*
X1711503Y64397D02*
G54D22*
D03*
X1711503Y34397D02*
G54D22*
D03*
X1738709Y87312D02*
G54D18*
D03*
X1764109Y87312D02*
G54D18*
D03*
X1789509Y87312D02*
G54D18*
D03*
X1814909Y87312D02*
G54D18*
D03*
X1738709Y61912D02*
G54D18*
D03*
X1764109Y61912D02*
G54D18*
D03*
X1789509Y61912D02*
G54D18*
D03*
X1814909Y61912D02*
G54D18*
D03*
X1738709Y36512D02*
G54D18*
D03*
X1764109Y36512D02*
G54D18*
D03*
X1789509Y36512D02*
G54D18*
D03*
X1814909Y36512D02*
G54D18*
D03*
X1738709Y11112D02*
G54D18*
D03*
X1764109Y11112D02*
G54D18*
D03*
X1789509Y11112D02*
G54D18*
D03*
X1814909Y11112D02*
G54D18*
D03*
X1738709Y-14288D02*
G54D18*
D03*
X1764109Y-14288D02*
G54D18*
D03*
X1789509Y-14288D02*
G54D18*
D03*
X1814909Y-14288D02*
G54D18*
D03*
X1738709Y-39688D02*
G54D18*
D03*
X1764109Y-39688D02*
G54D18*
D03*
X1789509Y-39688D02*
G54D18*
D03*
X1814909Y-39688D02*
G54D18*
D03*
X1840309Y87312D02*
G54D18*
D03*
X1865709Y87312D02*
G54D18*
D03*
X1840309Y61912D02*
G54D18*
D03*
X1865709Y61912D02*
G54D18*
D03*
X1840309Y36512D02*
G54D18*
D03*
X1865709Y36512D02*
G54D18*
D03*
X1840309Y11112D02*
G54D18*
D03*
X1865709Y11112D02*
G54D18*
D03*
X1840309Y-14288D02*
G54D18*
D03*
X1865709Y-14288D02*
G54D18*
D03*
X1840309Y-39688D02*
G54D18*
D03*
X1865709Y-39688D02*
G54D18*
D03*
X1738709Y-65088D02*
G54D18*
D03*
X1764109Y-65088D02*
G54D18*
D03*
X1789509Y-65088D02*
G54D18*
D03*
X1814909Y-65088D02*
G54D18*
D03*
X1738709Y-90488D02*
G54D18*
D03*
X1764109Y-90488D02*
G54D18*
D03*
X1789509Y-90488D02*
G54D18*
D03*
X1814909Y-90488D02*
G54D18*
D03*
X1840309Y-65088D02*
G54D18*
D03*
X1865709Y-65088D02*
G54D18*
D03*
X1840309Y-90488D02*
G54D18*
D03*
X1865709Y-90488D02*
G54D18*
D03*
M02*
