%FSLAX34Y34*%
%MOMM*%
%LNSILK_BOTTOM*%
G71*
G01*
%ADD10C, 0.25*%
%ADD11C, 0.00*%
%ADD12C, 0.17*%
%ADD13C, 0.24*%
%ADD14C, 0.20*%
%ADD15C, 0.33*%
%ADD16C, 0.23*%
%LPD*%
G54D10*
G75*
G01X1410767Y771366D02*
G03X1410767Y771366I-42500J0D01*
G01*
G54D10*
X1400000Y777500D02*
X1400000Y767500D01*
G54D10*
X1395000Y772500D02*
X1405000Y772500D01*
G54D10*
X16765Y346270D02*
X22769Y346270D01*
G54D10*
X19767Y343268D02*
X19767Y349266D01*
G54D10*
X-5571Y377496D02*
X-5633Y379267D01*
X-5571Y381038D01*
X-5386Y382800D01*
X-5078Y384546D01*
X-4649Y386266D01*
X-4101Y387951D01*
X-3437Y389594D01*
X-2660Y391187D01*
X-1773Y392722D01*
X-782Y394191D01*
X310Y395588D01*
X1496Y396905D01*
X2771Y398136D01*
X4129Y399275D01*
X5564Y400317D01*
X7067Y401256D01*
X8632Y402088D01*
X10252Y402809D01*
X11918Y403415D01*
X13622Y403904D01*
X15356Y404272D01*
X17112Y404519D01*
X18881Y404642D01*
X20653Y404642D01*
X22422Y404519D01*
X24178Y404272D01*
X25912Y403904D01*
X27616Y403415D01*
X29282Y402809D01*
X30902Y402088D01*
X32467Y401256D01*
X33970Y400317D01*
X35405Y399275D01*
X36763Y398136D01*
X38038Y396905D01*
X39224Y395588D01*
X40316Y394191D01*
X41307Y392722D01*
X42194Y391187D01*
X42971Y389594D01*
X43635Y387951D01*
X44183Y386266D01*
X44612Y384546D01*
X44920Y382800D01*
X45105Y381038D01*
X45167Y379267D01*
X45105Y377496D01*
X44920Y375733D01*
X44612Y373988D01*
X44183Y372268D01*
X43635Y370582D01*
X42971Y368939D01*
X42194Y367346D01*
X41307Y365812D01*
X40316Y364342D01*
X39224Y362946D01*
X38038Y361629D01*
X36763Y360398D01*
X35405Y359258D01*
X33970Y358217D01*
X32467Y357278D01*
X30902Y356446D01*
X29282Y355724D01*
X27616Y355118D01*
X25912Y354630D01*
X24178Y354262D01*
X22422Y354015D01*
X20653Y353891D01*
X18881Y353891D01*
X17112Y354015D01*
X15356Y354262D01*
X13622Y354630D01*
X11918Y355118D01*
X10252Y355724D01*
X8632Y356446D01*
X7067Y357278D01*
X5564Y358217D01*
X4129Y359258D01*
X2771Y360398D01*
X1496Y361629D01*
X310Y362946D01*
X-782Y364342D01*
X-1773Y365812D01*
X-2660Y367346D01*
X-3437Y368939D01*
X-4101Y370582D01*
X-4649Y372268D01*
X-5078Y373988D01*
X-5386Y375733D01*
X-5571Y377496D01*
G54D10*
X1860000Y272500D02*
X1860000Y252500D01*
X1665000Y252500D01*
X1665000Y307500D01*
X1860000Y307500D01*
X1860000Y287500D01*
G54D10*
G75*
G01X1860000Y287500D02*
G03X1860000Y272500I0J-7500D01*
G01*
G54D10*
X1860000Y427500D02*
X1860000Y407500D01*
X1690000Y407500D01*
X1690000Y462500D01*
X1860000Y462500D01*
X1860000Y442500D01*
G54D10*
G75*
G01X1860000Y442500D02*
G03X1860000Y427500I0J-7500D01*
G01*
G54D10*
X1860000Y587500D02*
X1860000Y567500D01*
X1665000Y567500D01*
X1665000Y622500D01*
X1860000Y622500D01*
X1860000Y602500D01*
G54D10*
G75*
G01X1860000Y602500D02*
G03X1860000Y587500I0J-7500D01*
G01*
G54D10*
X1332500Y272500D02*
X1332500Y252500D01*
X1037500Y252500D01*
X1037500Y307500D01*
X1332500Y307500D01*
X1332500Y287500D01*
G54D10*
G75*
G01X1332500Y287500D02*
G03X1332500Y272500I0J-7500D01*
G01*
G54D10*
X1620000Y272500D02*
X1620000Y252500D01*
X1375000Y252500D01*
X1375000Y307500D01*
X1620000Y307500D01*
X1620000Y287500D01*
G54D10*
G75*
G01X1620000Y287500D02*
G03X1620000Y272500I0J-7500D01*
G01*
G54D10*
X577500Y512500D02*
X522500Y512500D01*
X522500Y162500D01*
X650000Y162500D01*
X650000Y512500D01*
X592500Y512500D01*
G54D10*
G75*
G01X577500Y512500D02*
G03X592500Y512500I7500J0D01*
G01*
G54D10*
X783367Y626066D02*
X707167Y626066D01*
X707167Y600666D01*
X783367Y600666D01*
X783367Y626066D01*
G54D10*
X768467Y123666D02*
X717667Y123666D01*
X717667Y555466D01*
X768467Y555466D01*
X768467Y123666D01*
G54D10*
X443267Y725066D02*
X367067Y725066D01*
X367067Y699666D01*
X443267Y699666D01*
X443267Y725066D01*
G54D10*
X443467Y775066D02*
X367267Y775066D01*
X367267Y749666D01*
X443467Y749666D01*
X443467Y775066D01*
G54D10*
X418467Y543666D02*
X367667Y543666D01*
X367667Y670666D01*
X418467Y670666D01*
X418467Y543666D01*
G54D10*
G75*
G01X1889Y189353D02*
G03X1889Y227979I16788J19313D01*
G01*
G54D10*
X1769Y227874D02*
X1769Y189458D01*
G54D10*
X710162Y785956D02*
X781112Y785956D01*
G54D10*
X710162Y738776D02*
X781112Y738776D01*
G54D10*
G75*
G01X710185Y785958D02*
G03X710185Y738774I2064J-23592D01*
G01*
G54D10*
G75*
G01X781089Y738774D02*
G03X781089Y785958I-2064J23592D01*
G01*
G54D10*
X518533Y790306D02*
X637907Y790306D01*
X637907Y670932D01*
G54D10*
X625201Y658226D02*
X518533Y658226D01*
G54D10*
X505827Y670932D02*
X505827Y777600D01*
G54D10*
G75*
G01X625190Y658226D02*
G03X637907Y670943I0J12717D01*
G01*
G54D10*
G75*
G01X505827Y670943D02*
G03X518544Y658226I12717J0D01*
G01*
G54D10*
G75*
G01X518544Y790306D02*
G03X505827Y777589I0J-12717D01*
G01*
G54D10*
X-34095Y453434D02*
X-34095Y508048D01*
X-32823Y508048D01*
X-32823Y511854D01*
X-15043Y511854D01*
X-15043Y508048D01*
X-13771Y508048D01*
X-13771Y453434D01*
G54D10*
G75*
G01X-16310Y450896D02*
G03X-13771Y453435I0J2539D01*
G01*
G54D10*
G75*
G01X-34095Y453435D02*
G03X-31556Y450896I2539J0D01*
G01*
G54D10*
X-31551Y450896D02*
X-16315Y450896D01*
G36*
X-20885Y518206D02*
X-16820Y518206D01*
X-16820Y512363D01*
X-20885Y512363D01*
X-20885Y518206D01*
G37*
G54D11*
X-20885Y518206D02*
X-16820Y518206D01*
X-16820Y512363D01*
X-20885Y512363D01*
X-20885Y518206D01*
G36*
X-31046Y518206D02*
X-26981Y518206D01*
X-26981Y512363D01*
X-31046Y512363D01*
X-31046Y518206D01*
G37*
G54D11*
X-31046Y518206D02*
X-26981Y518206D01*
X-26981Y512363D01*
X-31046Y512363D01*
X-31046Y518206D01*
G54D10*
X-18854Y520752D02*
X-18854Y516938D01*
G54D10*
X-29012Y520752D02*
X-29012Y515669D01*
G54D10*
X-18933Y520869D02*
X-16932Y522363D01*
G54D10*
X-28933Y520869D02*
X-30934Y522363D01*
G54D10*
X-15043Y508048D02*
X-32823Y508048D01*
G54D10*
X1710000Y357500D02*
X1687500Y357500D01*
G54D10*
X1710000Y347500D02*
X1710000Y367500D01*
G54D10*
X1717500Y347500D02*
X1717500Y367500D01*
G54D10*
X1740000Y357500D02*
X1717500Y357500D01*
G54D12*
X1697275Y367222D02*
X1697942Y365556D01*
X1699275Y364722D01*
X1700608Y364722D01*
X1701942Y365556D01*
X1702608Y367222D01*
X1702608Y375556D01*
X1701942Y377222D01*
X1700608Y378056D01*
X1699275Y378056D01*
X1697942Y377222D01*
X1697275Y375556D01*
G54D12*
X1688275Y364722D02*
X1693608Y364722D01*
X1693608Y365556D01*
X1692942Y367222D01*
X1688942Y372222D01*
X1688275Y373889D01*
X1688275Y375556D01*
X1688942Y377222D01*
X1690275Y378056D01*
X1691608Y378056D01*
X1692942Y377222D01*
X1693608Y375556D01*
G54D10*
X1816775Y367318D02*
X1816775Y347318D01*
X1859275Y347318D01*
X1859275Y367318D01*
X1816775Y367318D01*
G54D12*
X1808377Y358353D02*
X1806377Y356686D01*
X1805710Y355020D01*
X1805710Y351686D01*
G54D12*
X1811044Y351686D02*
X1811044Y365020D01*
X1807710Y365020D01*
X1806377Y364186D01*
X1805710Y362520D01*
X1805710Y360853D01*
X1806377Y359186D01*
X1807710Y358353D01*
X1811044Y358353D01*
G54D12*
X1802044Y362520D02*
X1801377Y364186D01*
X1800044Y365020D01*
X1798710Y365020D01*
X1797377Y364186D01*
X1796710Y362520D01*
X1796710Y360853D01*
X1797377Y359186D01*
X1798710Y358353D01*
X1797377Y357520D01*
X1796710Y355853D01*
X1796710Y354186D01*
X1797377Y352520D01*
X1798710Y351686D01*
X1800044Y351686D01*
X1801377Y352520D01*
X1802044Y354186D01*
G54D10*
X1859275Y357318D02*
X1866775Y357318D01*
G54D10*
X1786775Y357318D02*
X1794275Y357318D01*
G54D10*
X1860000Y727500D02*
X1860000Y707500D01*
X1690000Y707500D01*
X1690000Y762500D01*
X1860000Y762500D01*
X1860000Y742500D01*
G54D10*
G75*
G01X1860000Y742500D02*
G03X1860000Y727500I0J-7500D01*
G01*
G54D10*
X1620000Y727500D02*
X1620000Y707500D01*
X1450000Y707500D01*
X1450000Y762500D01*
X1620000Y762500D01*
X1620000Y742500D01*
G54D10*
G75*
G01X1620000Y742500D02*
G03X1620000Y727500I0J-7500D01*
G01*
G54D10*
X1287500Y727500D02*
X1287500Y707500D01*
X1117500Y707500D01*
X1117500Y762500D01*
X1287500Y762500D01*
X1287500Y742500D01*
G54D10*
G75*
G01X1287500Y742500D02*
G03X1287500Y727500I0J-7500D01*
G01*
G54D10*
X1620000Y587500D02*
X1620000Y567500D01*
X1450000Y567500D01*
X1450000Y622500D01*
X1620000Y622500D01*
X1620000Y602500D01*
G54D10*
G75*
G01X1620000Y602500D02*
G03X1620000Y587500I0J-7500D01*
G01*
G54D10*
X997500Y272500D02*
X997500Y252500D01*
X802500Y252500D01*
X802500Y307500D01*
X997500Y307500D01*
X997500Y287500D01*
G54D10*
X995000Y390000D02*
X995000Y370000D01*
X800000Y370000D01*
X800000Y425000D01*
X995000Y425000D01*
X995000Y405000D01*
G54D10*
X995000Y587500D02*
X995000Y567500D01*
X825000Y567500D01*
X825000Y622500D01*
X995000Y622500D01*
X995000Y602500D01*
G54D10*
G75*
G01X995000Y602500D02*
G03X995000Y587500I0J-7500D01*
G01*
G54D10*
G75*
G01X995000Y405000D02*
G03X995000Y390000I0J-7500D01*
G01*
G54D10*
X995000Y727500D02*
X995000Y707500D01*
X825000Y707500D01*
X825000Y762500D01*
X995000Y762500D01*
X995000Y742500D01*
G54D10*
G75*
G01X995000Y742500D02*
G03X995000Y727500I0J-7500D01*
G01*
G54D10*
X670000Y587500D02*
X670000Y567500D01*
X500000Y567500D01*
X500000Y622500D01*
X670000Y622500D01*
X670000Y602500D01*
G54D10*
G75*
G01X670000Y602500D02*
G03X670000Y587500I0J-7500D01*
G01*
G54D10*
G75*
G01X997500Y287500D02*
G03X997500Y272500I0J-7500D01*
G01*
G54D10*
X1290000Y587500D02*
X1290000Y567500D01*
X1120000Y567500D01*
X1120000Y622500D01*
X1290000Y622500D01*
X1290000Y602500D01*
G54D10*
G75*
G01X1290000Y602500D02*
G03X1290000Y587500I0J-7500D01*
G01*
G54D10*
X290000Y535000D02*
X290000Y515000D01*
X120000Y515000D01*
X120000Y570000D01*
X290000Y570000D01*
X290000Y550000D01*
G54D10*
G75*
G01X290000Y550000D02*
G03X290000Y535000I0J-7500D01*
G01*
G54D10*
X427500Y410000D02*
X447500Y410000D01*
X447500Y212500D01*
X392500Y212500D01*
X392500Y410000D01*
X412500Y410000D01*
G54D10*
G75*
G01X412500Y410000D02*
G03X427500Y410000I7500J0D01*
G01*
G54D10*
X1620000Y445000D02*
X1620000Y500000D01*
X1117500Y500000D01*
X1117500Y372500D01*
X1620000Y372500D01*
X1620000Y430000D01*
G54D10*
G75*
G01X1620000Y445000D02*
G03X1620000Y430000I0J-7500D01*
G01*
G54D12*
X1648480Y267514D02*
X1661814Y267514D01*
X1661814Y270848D01*
X1660980Y272181D01*
X1659314Y272848D01*
X1650980Y272848D01*
X1649314Y272181D01*
X1648480Y270848D01*
X1648480Y267514D01*
G54D12*
X1648480Y276514D02*
X1661814Y276514D01*
X1661814Y279848D01*
X1660980Y281181D01*
X1659314Y281848D01*
X1650980Y281848D01*
X1649314Y281181D01*
X1648480Y279848D01*
X1648480Y276514D01*
G54D12*
X1659314Y285514D02*
X1660980Y286181D01*
X1661814Y287514D01*
X1661814Y288848D01*
X1660980Y290181D01*
X1659314Y290848D01*
X1657647Y290848D01*
X1655980Y290181D01*
X1655147Y288848D01*
X1654314Y290181D01*
X1652647Y290848D01*
X1650980Y290848D01*
X1649314Y290181D01*
X1648480Y288848D01*
X1648480Y287514D01*
X1649314Y286181D01*
X1650980Y285514D01*
G54D12*
X1673480Y422503D02*
X1686814Y422503D01*
X1686814Y425837D01*
X1685980Y427170D01*
X1684314Y427837D01*
X1675980Y427837D01*
X1674314Y427170D01*
X1673480Y425837D01*
X1673480Y422503D01*
G54D12*
X1673480Y431503D02*
X1686814Y431503D01*
X1686814Y434837D01*
X1685980Y436170D01*
X1684314Y436837D01*
X1675980Y436837D01*
X1674314Y436170D01*
X1673480Y434837D01*
X1673480Y431503D01*
G54D12*
X1673480Y444503D02*
X1686814Y444503D01*
X1678480Y440503D01*
X1676814Y440503D01*
X1676814Y445837D01*
G54D12*
X1648480Y582514D02*
X1661814Y582514D01*
X1661814Y585848D01*
X1660980Y587181D01*
X1659314Y587848D01*
X1650980Y587848D01*
X1649314Y587181D01*
X1648480Y585848D01*
X1648480Y582514D01*
G54D12*
X1648480Y591514D02*
X1661814Y591514D01*
X1661814Y594848D01*
X1660980Y596181D01*
X1659314Y596848D01*
X1650980Y596848D01*
X1649314Y596181D01*
X1648480Y594848D01*
X1648480Y591514D01*
G54D12*
X1661814Y605848D02*
X1661814Y600514D01*
X1655980Y600514D01*
X1655980Y601181D01*
X1656814Y602514D01*
X1656814Y603848D01*
X1655980Y605181D01*
X1654314Y605848D01*
X1650980Y605848D01*
X1649314Y605181D01*
X1648480Y603848D01*
X1648480Y602514D01*
X1649314Y601181D01*
X1650980Y600514D01*
G54D12*
X1673480Y722514D02*
X1686814Y722514D01*
X1686814Y725848D01*
X1685980Y727181D01*
X1684314Y727848D01*
X1675980Y727848D01*
X1674314Y727181D01*
X1673480Y725848D01*
X1673480Y722514D01*
G54D12*
X1673480Y731514D02*
X1686814Y731514D01*
X1686814Y734848D01*
X1685980Y736181D01*
X1684314Y736848D01*
X1675980Y736848D01*
X1674314Y736181D01*
X1673480Y734848D01*
X1673480Y731514D01*
G54D12*
X1680147Y743848D02*
X1680147Y742514D01*
X1680980Y741181D01*
X1682647Y740514D01*
X1684314Y740514D01*
X1685980Y741181D01*
X1686814Y742514D01*
X1686814Y743848D01*
X1685980Y745181D01*
X1684314Y745848D01*
X1682647Y745848D01*
X1680980Y745181D01*
X1680147Y743848D01*
X1679314Y745181D01*
X1677647Y745848D01*
X1675980Y745848D01*
X1674314Y745181D01*
X1673480Y743848D01*
X1673480Y742514D01*
X1674314Y741181D01*
X1675980Y740514D01*
X1677647Y740514D01*
X1679314Y741181D01*
X1680147Y742514D01*
G54D12*
X1358480Y267844D02*
X1371814Y267844D01*
X1371814Y271178D01*
X1370980Y272511D01*
X1369314Y273178D01*
X1360980Y273178D01*
X1359314Y272511D01*
X1358480Y271178D01*
X1358480Y267844D01*
G54D12*
X1358480Y276844D02*
X1371814Y276844D01*
X1371814Y280178D01*
X1370980Y281511D01*
X1369314Y282178D01*
X1360980Y282178D01*
X1359314Y281511D01*
X1358480Y280178D01*
X1358480Y276844D01*
G54D12*
X1366814Y285844D02*
X1371814Y289178D01*
X1358480Y289178D01*
G54D12*
X1366814Y292844D02*
X1371814Y296178D01*
X1358480Y296178D01*
G54D12*
X1020980Y265477D02*
X1034314Y265477D01*
X1034314Y268811D01*
X1033480Y270144D01*
X1031814Y270811D01*
X1023480Y270811D01*
X1021814Y270144D01*
X1020980Y268811D01*
X1020980Y265477D01*
G54D12*
X1020980Y274477D02*
X1034314Y274477D01*
X1034314Y277811D01*
X1033480Y279144D01*
X1031814Y279811D01*
X1023480Y279811D01*
X1021814Y279144D01*
X1020980Y277811D01*
X1020980Y274477D01*
G54D12*
X1029314Y283477D02*
X1034314Y286811D01*
X1020980Y286811D01*
G54D12*
X1031814Y290477D02*
X1033480Y291144D01*
X1034314Y292477D01*
X1034314Y293811D01*
X1033480Y295144D01*
X1031814Y295811D01*
X1030147Y295811D01*
X1028480Y295144D01*
X1027647Y293811D01*
X1026814Y295144D01*
X1025147Y295811D01*
X1023480Y295811D01*
X1021814Y295144D01*
X1020980Y293811D01*
X1020980Y292477D01*
X1021814Y291144D01*
X1023480Y290477D01*
G54D12*
X785980Y265477D02*
X799314Y265477D01*
X799314Y268810D01*
X798480Y270144D01*
X796814Y270810D01*
X788480Y270810D01*
X786814Y270144D01*
X785980Y268810D01*
X785980Y265477D01*
G54D12*
X785980Y274477D02*
X799314Y274477D01*
X799314Y277810D01*
X798480Y279144D01*
X796814Y279810D01*
X788480Y279810D01*
X786814Y279144D01*
X785980Y277810D01*
X785980Y274477D01*
G54D12*
X794314Y283477D02*
X799314Y286810D01*
X785980Y286810D01*
G54D12*
X785980Y295810D02*
X785980Y290477D01*
X786814Y290477D01*
X788480Y291144D01*
X793480Y295144D01*
X795147Y295810D01*
X796814Y295810D01*
X798480Y295144D01*
X799314Y293810D01*
X799314Y292477D01*
X798480Y291144D01*
X796814Y290477D01*
G54D12*
X1100980Y427014D02*
X1114314Y427014D01*
X1114314Y430348D01*
X1113480Y431681D01*
X1111814Y432348D01*
X1103480Y432348D01*
X1101814Y431681D01*
X1100980Y430348D01*
X1100980Y427014D01*
G54D12*
X1100980Y436014D02*
X1114314Y436014D01*
X1114314Y439348D01*
X1113480Y440681D01*
X1111814Y441348D01*
X1103480Y441348D01*
X1101814Y440681D01*
X1100980Y439348D01*
X1100980Y436014D01*
G54D12*
X1103480Y445014D02*
X1101814Y445681D01*
X1100980Y447014D01*
X1100980Y448348D01*
X1101814Y449681D01*
X1103480Y450348D01*
X1107647Y450348D01*
X1108480Y450348D01*
X1106814Y448348D01*
X1106814Y447014D01*
X1107647Y445681D01*
X1109314Y445014D01*
X1111814Y445014D01*
X1113480Y445681D01*
X1114314Y447014D01*
X1114314Y448348D01*
X1113480Y449681D01*
X1111814Y450348D01*
X1107647Y450348D01*
G54D12*
X1433480Y582973D02*
X1446814Y582973D01*
X1446814Y586306D01*
X1445980Y587639D01*
X1444314Y588306D01*
X1435980Y588306D01*
X1434314Y587639D01*
X1433480Y586306D01*
X1433480Y582973D01*
G54D12*
X1433480Y591973D02*
X1446814Y591973D01*
X1446814Y595306D01*
X1445980Y596639D01*
X1444314Y597306D01*
X1435980Y597306D01*
X1434314Y596639D01*
X1433480Y595306D01*
X1433480Y591973D01*
G54D12*
X1441814Y600973D02*
X1446814Y604306D01*
X1433480Y604306D01*
G54D12*
X1433480Y611973D02*
X1446814Y611973D01*
X1438480Y607973D01*
X1436814Y607973D01*
X1436814Y613306D01*
G54D12*
X1103480Y585477D02*
X1116814Y585477D01*
X1116814Y588811D01*
X1115980Y590144D01*
X1114314Y590811D01*
X1105980Y590811D01*
X1104314Y590144D01*
X1103480Y588811D01*
X1103480Y585477D01*
G54D12*
X1103480Y594477D02*
X1116814Y594477D01*
X1116814Y597811D01*
X1115980Y599144D01*
X1114314Y599811D01*
X1105980Y599811D01*
X1104314Y599144D01*
X1103480Y597811D01*
X1103480Y594477D01*
G54D12*
X1111814Y603477D02*
X1116814Y606811D01*
X1103480Y606811D01*
G54D12*
X1116814Y615811D02*
X1116814Y610477D01*
X1110980Y610477D01*
X1110980Y611144D01*
X1111814Y612477D01*
X1111814Y613811D01*
X1110980Y615144D01*
X1109314Y615811D01*
X1105980Y615811D01*
X1104314Y615144D01*
X1103480Y613811D01*
X1103480Y612477D01*
X1104314Y611144D01*
X1105980Y610477D01*
G54D12*
X808480Y582514D02*
X821814Y582514D01*
X821814Y585848D01*
X820980Y587181D01*
X819314Y587848D01*
X810980Y587848D01*
X809314Y587181D01*
X808480Y585848D01*
X808480Y582514D01*
G54D12*
X808480Y591514D02*
X821814Y591514D01*
X821814Y594848D01*
X820980Y596181D01*
X819314Y596848D01*
X810980Y596848D01*
X809314Y596181D01*
X808480Y594848D01*
X808480Y591514D01*
G54D12*
X808480Y605848D02*
X808480Y600514D01*
X809314Y600514D01*
X810980Y601181D01*
X815980Y605181D01*
X817647Y605848D01*
X819314Y605848D01*
X820980Y605181D01*
X821814Y603848D01*
X821814Y602514D01*
X820980Y601181D01*
X819314Y600514D01*
G54D12*
X1433480Y722508D02*
X1446814Y722508D01*
X1446814Y725841D01*
X1445980Y727174D01*
X1444314Y727841D01*
X1435980Y727841D01*
X1434314Y727174D01*
X1433480Y725841D01*
X1433480Y722508D01*
G54D12*
X1433480Y731508D02*
X1446814Y731508D01*
X1446814Y734841D01*
X1445980Y736174D01*
X1444314Y736841D01*
X1435980Y736841D01*
X1434314Y736174D01*
X1433480Y734841D01*
X1433480Y731508D01*
G54D12*
X1446814Y740508D02*
X1446814Y745841D01*
X1445147Y745174D01*
X1442647Y743841D01*
X1439314Y742508D01*
X1436814Y741841D01*
X1433480Y741841D01*
G54D12*
X1100980Y722514D02*
X1114314Y722514D01*
X1114314Y725848D01*
X1113480Y727181D01*
X1111814Y727848D01*
X1103480Y727848D01*
X1101814Y727181D01*
X1100980Y725848D01*
X1100980Y722514D01*
G54D12*
X1100980Y731514D02*
X1114314Y731514D01*
X1114314Y734848D01*
X1113480Y736181D01*
X1111814Y736848D01*
X1103480Y736848D01*
X1101814Y736181D01*
X1100980Y734848D01*
X1100980Y731514D01*
G54D12*
X1111814Y745848D02*
X1113480Y745181D01*
X1114314Y743848D01*
X1114314Y742514D01*
X1113480Y741181D01*
X1111814Y740514D01*
X1107647Y740514D01*
X1106814Y740514D01*
X1108480Y742514D01*
X1108480Y743848D01*
X1107647Y745181D01*
X1105980Y745848D01*
X1103480Y745848D01*
X1101814Y745181D01*
X1100980Y743848D01*
X1100980Y742514D01*
X1101814Y741181D01*
X1103480Y740514D01*
X1107647Y740514D01*
G54D12*
X808478Y722377D02*
X821812Y722377D01*
X821812Y725710D01*
X820978Y727043D01*
X819312Y727710D01*
X810978Y727710D01*
X809312Y727043D01*
X808478Y725710D01*
X808478Y722377D01*
G54D12*
X808478Y731377D02*
X821812Y731377D01*
X821812Y734710D01*
X820978Y736043D01*
X819312Y736710D01*
X810978Y736710D01*
X809312Y736043D01*
X808478Y734710D01*
X808478Y731377D01*
G54D12*
X816812Y740377D02*
X821812Y743710D01*
X808478Y743710D01*
G54D10*
X1655159Y442684D02*
X1635159Y442684D01*
X1635159Y400184D01*
X1655159Y400184D01*
X1655159Y442684D01*
G54D12*
X1646194Y451080D02*
X1644527Y453080D01*
X1642860Y453747D01*
X1639527Y453747D01*
G54D12*
X1639527Y448413D02*
X1652860Y448413D01*
X1652860Y451747D01*
X1652027Y453080D01*
X1650360Y453747D01*
X1648694Y453747D01*
X1647027Y453080D01*
X1646194Y451747D01*
X1646194Y448413D01*
G54D12*
X1652860Y457413D02*
X1652860Y462747D01*
X1651194Y462080D01*
X1648694Y460747D01*
X1645360Y459413D01*
X1642860Y458747D01*
X1639527Y458747D01*
G54D10*
X1645159Y400184D02*
X1645159Y392684D01*
G54D10*
X1645159Y472684D02*
X1645159Y465184D01*
G54D10*
X1686775Y527318D02*
X1686775Y507318D01*
X1729275Y507318D01*
X1729275Y527318D01*
X1686775Y527318D01*
G54D12*
X1678377Y518353D02*
X1676377Y516686D01*
X1675710Y515020D01*
X1675710Y511686D01*
G54D12*
X1681044Y511686D02*
X1681044Y525020D01*
X1677710Y525020D01*
X1676377Y524186D01*
X1675710Y522520D01*
X1675710Y520853D01*
X1676377Y519186D01*
X1677710Y518353D01*
X1681044Y518353D01*
G54D12*
X1668710Y518353D02*
X1670044Y518353D01*
X1671377Y519186D01*
X1672044Y520853D01*
X1672044Y522520D01*
X1671377Y524186D01*
X1670044Y525020D01*
X1668710Y525020D01*
X1667377Y524186D01*
X1666710Y522520D01*
X1666710Y520853D01*
X1667377Y519186D01*
X1668710Y518353D01*
X1667377Y517520D01*
X1666710Y515853D01*
X1666710Y514186D01*
X1667377Y512520D01*
X1668710Y511686D01*
X1670044Y511686D01*
X1671377Y512520D01*
X1672044Y514186D01*
X1672044Y515853D01*
X1671377Y517520D01*
X1670044Y518353D01*
G54D10*
X1729275Y517318D02*
X1736775Y517318D01*
G54D10*
X1656775Y517318D02*
X1664275Y517318D01*
G54D10*
X1814275Y527318D02*
X1814275Y507318D01*
X1856775Y507318D01*
X1856775Y527318D01*
X1814275Y527318D01*
G54D12*
X1805877Y518353D02*
X1803877Y516686D01*
X1803210Y515020D01*
X1803210Y511686D01*
G54D12*
X1808544Y511686D02*
X1808544Y525020D01*
X1805210Y525020D01*
X1803877Y524186D01*
X1803210Y522520D01*
X1803210Y520853D01*
X1803877Y519186D01*
X1805210Y518353D01*
X1808544Y518353D01*
G54D12*
X1794210Y525020D02*
X1799544Y525020D01*
X1799544Y519186D01*
X1798877Y519186D01*
X1797544Y520020D01*
X1796210Y520020D01*
X1794877Y519186D01*
X1794210Y517520D01*
X1794210Y514186D01*
X1794877Y512520D01*
X1796210Y511686D01*
X1797544Y511686D01*
X1798877Y512520D01*
X1799544Y514186D01*
G54D10*
X1856775Y517318D02*
X1864275Y517318D01*
G54D10*
X1784275Y517318D02*
X1791775Y517318D01*
G54D10*
X1662659Y730184D02*
X1642659Y730184D01*
X1642659Y687684D01*
X1662659Y687684D01*
X1662659Y730184D01*
G54D12*
X1653694Y738581D02*
X1652027Y740581D01*
X1650360Y741248D01*
X1647027Y741248D01*
G54D12*
X1647027Y735914D02*
X1660360Y735914D01*
X1660360Y739248D01*
X1659527Y740581D01*
X1657860Y741248D01*
X1656194Y741248D01*
X1654527Y740581D01*
X1653694Y739248D01*
X1653694Y735914D01*
G54D12*
X1657860Y750248D02*
X1659527Y749581D01*
X1660360Y748248D01*
X1660360Y746914D01*
X1659527Y745581D01*
X1657860Y744914D01*
X1653694Y744914D01*
X1652860Y744914D01*
X1654527Y746914D01*
X1654527Y748248D01*
X1653694Y749581D01*
X1652027Y750248D01*
X1649527Y750248D01*
X1647860Y749581D01*
X1647027Y748248D01*
X1647027Y746914D01*
X1647860Y745581D01*
X1649527Y744914D01*
X1653694Y744914D01*
G54D10*
X1652659Y687684D02*
X1652659Y680184D01*
G54D10*
X1652659Y760184D02*
X1652659Y752684D01*
G54D10*
X1427659Y617684D02*
X1407659Y617684D01*
X1407659Y575184D01*
X1427659Y575184D01*
X1427659Y617684D01*
G54D12*
X1418694Y626078D02*
X1417027Y628078D01*
X1415360Y628745D01*
X1412027Y628745D01*
G54D12*
X1412027Y623412D02*
X1425360Y623412D01*
X1425360Y626745D01*
X1424527Y628078D01*
X1422860Y628745D01*
X1421194Y628745D01*
X1419527Y628078D01*
X1418694Y626745D01*
X1418694Y623412D01*
G54D12*
X1420360Y632412D02*
X1425360Y635745D01*
X1412027Y635745D01*
G54D12*
X1422860Y644745D02*
X1414527Y644745D01*
X1412860Y644078D01*
X1412027Y642745D01*
X1412027Y641412D01*
X1412860Y640078D01*
X1414527Y639412D01*
X1422860Y639412D01*
X1424527Y640078D01*
X1425360Y641412D01*
X1425360Y642745D01*
X1424527Y644078D01*
X1422860Y644745D01*
G54D10*
X1417659Y575184D02*
X1417659Y567684D01*
G54D10*
X1330159Y617684D02*
X1310159Y617684D01*
X1310159Y575184D01*
X1330159Y575184D01*
X1330159Y617684D01*
G54D12*
X1321194Y626079D02*
X1319527Y628079D01*
X1317860Y628746D01*
X1314527Y628746D01*
G54D12*
X1314527Y623412D02*
X1327860Y623412D01*
X1327860Y626746D01*
X1327027Y628079D01*
X1325360Y628746D01*
X1323694Y628746D01*
X1322027Y628079D01*
X1321194Y626746D01*
X1321194Y623412D01*
G54D12*
X1322860Y632412D02*
X1327860Y635746D01*
X1314527Y635746D01*
G54D12*
X1322860Y639412D02*
X1327860Y642746D01*
X1314527Y642746D01*
G54D10*
X1320159Y575184D02*
X1320159Y567684D01*
G54D10*
X1367500Y600000D02*
X1367500Y622500D01*
G54D10*
X1357500Y600000D02*
X1377500Y600000D01*
G54D10*
X1357500Y592500D02*
X1377500Y592500D01*
G54D10*
X1367500Y572500D02*
X1367500Y592500D01*
G54D12*
X1377222Y612704D02*
X1375555Y612037D01*
X1374722Y610704D01*
X1374722Y609370D01*
X1375555Y608037D01*
X1377222Y607370D01*
X1385555Y607370D01*
X1387222Y608037D01*
X1388055Y609370D01*
X1388055Y610704D01*
X1387222Y612037D01*
X1385555Y612704D01*
G54D12*
X1374722Y620370D02*
X1388055Y620370D01*
X1379722Y616370D01*
X1378055Y616370D01*
X1378055Y621704D01*
G54D12*
X1309722Y770225D02*
X1308055Y769558D01*
X1307222Y768225D01*
X1307222Y766892D01*
X1308055Y765558D01*
X1309722Y764892D01*
X1318055Y764892D01*
X1319722Y765558D01*
X1320555Y766892D01*
X1320555Y768225D01*
X1319722Y769558D01*
X1318055Y770225D01*
G54D12*
X1318055Y773892D02*
X1319722Y774558D01*
X1320555Y775892D01*
X1320555Y777225D01*
X1319722Y778558D01*
X1318055Y779225D01*
X1316388Y779225D01*
X1314722Y778558D01*
X1313888Y777225D01*
X1313055Y778558D01*
X1311388Y779225D01*
X1309722Y779225D01*
X1308055Y778558D01*
X1307222Y777225D01*
X1307222Y775892D01*
X1308055Y774558D01*
X1309722Y773892D01*
G54D10*
X1216775Y672318D02*
X1216775Y652318D01*
X1259275Y652318D01*
X1259275Y672318D01*
X1216775Y672318D01*
G54D12*
X1208380Y663354D02*
X1206380Y661687D01*
X1205713Y660021D01*
X1205713Y656687D01*
G54D12*
X1211046Y656687D02*
X1211046Y670021D01*
X1207713Y670021D01*
X1206380Y669187D01*
X1205713Y667521D01*
X1205713Y665854D01*
X1206380Y664187D01*
X1207713Y663354D01*
X1211046Y663354D01*
G54D12*
X1198046Y656687D02*
X1198046Y670021D01*
X1202046Y661687D01*
X1202046Y660021D01*
X1196713Y660021D01*
G54D10*
X1259275Y662318D02*
X1266775Y662318D01*
G54D10*
X1186775Y662318D02*
X1194275Y662318D01*
G54D10*
X1077500Y757500D02*
X1077500Y717500D01*
G54D10*
X1067500Y730000D02*
X1087500Y730000D01*
G54D10*
X1067500Y747500D02*
X1087500Y747500D01*
X1077500Y730000D01*
X1067500Y747500D01*
G54D12*
X1090000Y793333D02*
X1086667Y780000D01*
X1083334Y793333D01*
G54D12*
X1079666Y780000D02*
X1079666Y793333D01*
X1076333Y793333D01*
X1075000Y792500D01*
X1074333Y790833D01*
X1074333Y782500D01*
X1075000Y780833D01*
X1076333Y780000D01*
X1079666Y780000D01*
G54D12*
X1070666Y788333D02*
X1067333Y793333D01*
X1067333Y780000D01*
G54D10*
X1045159Y730184D02*
X1025159Y730184D01*
X1025159Y687684D01*
X1045159Y687684D01*
X1045159Y730184D01*
G54D12*
X1036194Y738581D02*
X1034527Y740581D01*
X1032860Y741248D01*
X1029527Y741248D01*
G54D12*
X1029527Y735914D02*
X1042860Y735914D01*
X1042860Y739248D01*
X1042027Y740581D01*
X1040360Y741248D01*
X1038694Y741248D01*
X1037027Y740581D01*
X1036194Y739248D01*
X1036194Y735914D01*
G54D12*
X1029527Y750248D02*
X1029527Y744914D01*
X1030360Y744914D01*
X1032027Y745581D01*
X1037027Y749581D01*
X1038694Y750248D01*
X1040360Y750248D01*
X1042027Y749581D01*
X1042860Y748248D01*
X1042860Y746914D01*
X1042027Y745581D01*
X1040360Y744914D01*
G54D10*
X1035159Y687684D02*
X1035159Y680184D01*
G54D10*
X1035159Y760184D02*
X1035159Y755184D01*
G54D10*
X1077500Y637500D02*
X1077500Y660000D01*
G54D10*
X1067500Y637500D02*
X1087500Y637500D01*
G54D10*
X1067500Y630000D02*
X1087500Y630000D01*
G54D10*
X1077500Y610000D02*
X1077500Y630000D01*
G54D12*
X1084724Y647725D02*
X1083057Y647058D01*
X1082224Y645725D01*
X1082224Y644392D01*
X1083057Y643058D01*
X1084724Y642392D01*
X1093057Y642392D01*
X1094724Y643058D01*
X1095557Y644392D01*
X1095557Y645725D01*
X1094724Y647058D01*
X1093057Y647725D01*
G54D12*
X1095557Y656725D02*
X1095557Y651392D01*
X1089724Y651392D01*
X1089724Y652058D01*
X1090557Y653392D01*
X1090557Y654725D01*
X1089724Y656058D01*
X1088057Y656725D01*
X1084724Y656725D01*
X1083057Y656058D01*
X1082224Y654725D01*
X1082224Y653392D01*
X1083057Y652058D01*
X1084724Y651392D01*
G54D10*
X1087659Y530184D02*
X1067659Y530184D01*
X1067659Y487684D01*
X1087659Y487684D01*
X1087659Y530184D01*
G54D12*
X1078694Y538581D02*
X1077027Y540581D01*
X1075360Y541248D01*
X1072027Y541248D01*
G54D12*
X1072027Y535914D02*
X1085360Y535914D01*
X1085360Y539248D01*
X1084527Y540581D01*
X1082860Y541248D01*
X1081194Y541248D01*
X1079527Y540581D01*
X1078694Y539248D01*
X1078694Y535914D01*
G54D12*
X1074527Y544914D02*
X1072860Y545581D01*
X1072027Y546914D01*
X1072027Y548248D01*
X1072860Y549581D01*
X1074527Y550248D01*
X1078694Y550248D01*
X1079527Y550248D01*
X1077860Y548248D01*
X1077860Y546914D01*
X1078694Y545581D01*
X1080360Y544914D01*
X1082860Y544914D01*
X1084527Y545581D01*
X1085360Y546914D01*
X1085360Y548248D01*
X1084527Y549581D01*
X1082860Y550248D01*
X1078694Y550248D01*
G54D10*
X1077659Y487684D02*
X1077659Y480184D01*
G54D10*
X1077659Y560184D02*
X1077659Y555184D01*
G54D10*
X1077500Y400000D02*
X1077500Y422500D01*
G54D10*
X1067500Y400000D02*
X1087500Y400000D01*
G54D10*
X1067500Y392500D02*
X1087500Y392500D01*
G54D10*
X1077500Y372500D02*
X1077500Y392500D01*
G54D12*
X1087222Y412725D02*
X1085555Y412058D01*
X1084722Y410725D01*
X1084722Y409392D01*
X1085555Y408058D01*
X1087222Y407392D01*
X1095555Y407392D01*
X1097222Y408058D01*
X1098055Y409392D01*
X1098055Y410725D01*
X1097222Y412058D01*
X1095555Y412725D01*
G54D12*
X1095555Y421725D02*
X1097222Y421058D01*
X1098055Y419725D01*
X1098055Y418392D01*
X1097222Y417058D01*
X1095555Y416392D01*
X1091388Y416392D01*
X1090555Y416392D01*
X1092222Y418392D01*
X1092222Y419725D01*
X1091388Y421058D01*
X1089722Y421725D01*
X1087222Y421725D01*
X1085555Y421058D01*
X1084722Y419725D01*
X1084722Y418392D01*
X1085555Y417058D01*
X1087222Y416392D01*
X1091388Y416392D01*
G54D10*
X971775Y537318D02*
X971775Y517318D01*
X1014275Y517318D01*
X1014275Y537318D01*
X971775Y537318D01*
G54D12*
X963381Y528354D02*
X961381Y526687D01*
X960715Y525021D01*
X960715Y521687D01*
G54D12*
X966048Y521687D02*
X966048Y535021D01*
X962715Y535021D01*
X961381Y534187D01*
X960715Y532521D01*
X960715Y530854D01*
X961381Y529187D01*
X962715Y528354D01*
X966048Y528354D01*
G54D12*
X957048Y530021D02*
X953715Y535021D01*
X953715Y521687D01*
G54D12*
X946048Y521687D02*
X946048Y535021D01*
X950048Y526687D01*
X950048Y525021D01*
X944715Y525021D01*
G54D10*
X1014275Y527318D02*
X1021775Y527318D01*
G54D10*
X971775Y487318D02*
X971775Y467318D01*
X1014275Y467318D01*
X1014275Y487318D01*
X971775Y487318D01*
G54D12*
X963382Y478353D02*
X961382Y476686D01*
X960716Y475020D01*
X960716Y471686D01*
G54D12*
X966049Y471686D02*
X966049Y485020D01*
X962716Y485020D01*
X961382Y484186D01*
X960716Y482520D01*
X960716Y480853D01*
X961382Y479186D01*
X962716Y478353D01*
X966049Y478353D01*
G54D12*
X957049Y480020D02*
X953716Y485020D01*
X953716Y471686D01*
G54D12*
X944716Y485020D02*
X950049Y485020D01*
X950049Y479186D01*
X949382Y479186D01*
X948049Y480020D01*
X946716Y480020D01*
X945382Y479186D01*
X944716Y477520D01*
X944716Y474186D01*
X945382Y472520D01*
X946716Y471686D01*
X948049Y471686D01*
X949382Y472520D01*
X950049Y474186D01*
G54D10*
X1014275Y477318D02*
X1021775Y477318D01*
G54D10*
X834275Y537318D02*
X834275Y517318D01*
X876775Y517318D01*
X876775Y537318D01*
X834275Y537318D01*
G54D12*
X825882Y528353D02*
X823882Y526686D01*
X823216Y525020D01*
X823216Y521686D01*
G54D12*
X828549Y521686D02*
X828549Y535020D01*
X825216Y535020D01*
X823882Y534186D01*
X823216Y532520D01*
X823216Y530853D01*
X823882Y529186D01*
X825216Y528353D01*
X828549Y528353D01*
G54D12*
X819549Y530020D02*
X816216Y535020D01*
X816216Y521686D01*
G54D12*
X812549Y532520D02*
X811882Y534186D01*
X810549Y535020D01*
X809216Y535020D01*
X807882Y534186D01*
X807216Y532520D01*
X807216Y530853D01*
X807882Y529186D01*
X809216Y528353D01*
X807882Y527520D01*
X807216Y525853D01*
X807216Y524186D01*
X807882Y522520D01*
X809216Y521686D01*
X810549Y521686D01*
X811882Y522520D01*
X812549Y524186D01*
G54D10*
X876775Y527318D02*
X884275Y527318D01*
G54D10*
X834275Y487318D02*
X834275Y467318D01*
X876775Y467318D01*
X876775Y487318D01*
X834275Y487318D01*
G54D12*
X825882Y478353D02*
X823882Y476686D01*
X823216Y475020D01*
X823216Y471686D01*
G54D12*
X828549Y471686D02*
X828549Y485020D01*
X825216Y485020D01*
X823882Y484186D01*
X823216Y482520D01*
X823216Y480853D01*
X823882Y479186D01*
X825216Y478353D01*
X828549Y478353D01*
G54D12*
X819549Y480020D02*
X816216Y485020D01*
X816216Y471686D01*
G54D12*
X807216Y482520D02*
X807882Y484186D01*
X809216Y485020D01*
X810549Y485020D01*
X811882Y484186D01*
X812549Y482520D01*
X812549Y478353D01*
X812549Y477520D01*
X810549Y479186D01*
X809216Y479186D01*
X807882Y478353D01*
X807216Y476686D01*
X807216Y474186D01*
X807882Y472520D01*
X809216Y471686D01*
X810549Y471686D01*
X811882Y472520D01*
X812549Y474186D01*
X812549Y478353D01*
G54D10*
X876775Y477318D02*
X884275Y477318D01*
G36*
X777500Y542500D02*
X787500Y550000D01*
X787500Y535000D01*
X777500Y542500D01*
G37*
G54D10*
X777500Y542500D02*
X787500Y550000D01*
X787500Y535000D01*
X777500Y542500D01*
G54D12*
X783478Y382977D02*
X796812Y382977D01*
X796812Y386311D01*
X795978Y387644D01*
X794312Y388311D01*
X785978Y388311D01*
X784312Y387644D01*
X783478Y386311D01*
X783478Y382977D01*
G54D12*
X783478Y391977D02*
X796812Y391977D01*
X796812Y395311D01*
X795978Y396644D01*
X794312Y397311D01*
X785978Y397311D01*
X784312Y396644D01*
X783478Y395311D01*
X783478Y391977D01*
G54D12*
X791812Y400977D02*
X796812Y404311D01*
X783478Y404311D01*
G54D12*
X794312Y413311D02*
X785978Y413311D01*
X784312Y412644D01*
X783478Y411311D01*
X783478Y409977D01*
X784312Y408644D01*
X785978Y407977D01*
X794312Y407977D01*
X795978Y408644D01*
X796812Y409977D01*
X796812Y411311D01*
X795978Y412644D01*
X794312Y413311D01*
G54D10*
X874275Y674818D02*
X874275Y654818D01*
X916775Y654818D01*
X916775Y674818D01*
X874275Y674818D01*
G54D12*
X865882Y665853D02*
X863882Y664186D01*
X863216Y662520D01*
X863216Y659186D01*
G54D12*
X868549Y659186D02*
X868549Y672520D01*
X865216Y672520D01*
X863882Y671686D01*
X863216Y670020D01*
X863216Y668353D01*
X863882Y666686D01*
X865216Y665853D01*
X868549Y665853D01*
G54D12*
X859549Y667520D02*
X856216Y672520D01*
X856216Y659186D01*
G54D12*
X847216Y659186D02*
X852549Y659186D01*
X852549Y660020D01*
X851882Y661686D01*
X847882Y666686D01*
X847216Y668353D01*
X847216Y670020D01*
X847882Y671686D01*
X849216Y672520D01*
X850549Y672520D01*
X851882Y671686D01*
X852549Y670020D01*
G54D10*
X916775Y664818D02*
X924275Y664818D01*
G54D10*
X734275Y674818D02*
X734275Y654818D01*
X776775Y654818D01*
X776775Y674818D01*
X734275Y674818D01*
G54D12*
X725881Y665854D02*
X723881Y664187D01*
X723214Y662521D01*
X723214Y659187D01*
G54D12*
X728548Y659187D02*
X728548Y672521D01*
X725214Y672521D01*
X723881Y671687D01*
X723214Y670021D01*
X723214Y668354D01*
X723881Y666687D01*
X725214Y665854D01*
X728548Y665854D01*
G54D12*
X719548Y667521D02*
X716214Y672521D01*
X716214Y659187D01*
G54D10*
X776775Y664818D02*
X784275Y664818D01*
G54D10*
X712500Y665000D02*
X707500Y665000D01*
G54D12*
X757498Y803333D02*
X752165Y803333D01*
X757498Y790000D01*
X752165Y790000D01*
G54D12*
X745832Y792500D02*
X742498Y790000D01*
G54D12*
X743165Y800833D02*
X743165Y792500D01*
X743832Y790833D01*
X745165Y790000D01*
X746498Y790000D01*
X747832Y790833D01*
X748498Y792500D01*
X748498Y800833D01*
X747832Y802500D01*
X746498Y803333D01*
X745165Y803333D01*
X743832Y802500D01*
X743165Y800833D01*
G54D12*
X738832Y798333D02*
X735498Y803333D01*
X735498Y790000D01*
G54D12*
X582500Y808333D02*
X577167Y808333D01*
X582500Y795000D01*
X577167Y795000D01*
G54D12*
X570833Y797500D02*
X567500Y795000D01*
G54D12*
X568167Y805833D02*
X568167Y797500D01*
X568833Y795833D01*
X570167Y795000D01*
X571500Y795000D01*
X572833Y795833D01*
X573500Y797500D01*
X573500Y805833D01*
X572833Y807500D01*
X571500Y808333D01*
X570167Y808333D01*
X568833Y807500D01*
X568167Y805833D01*
G54D12*
X558500Y795000D02*
X563833Y795000D01*
X563833Y795833D01*
X563166Y797500D01*
X559166Y802500D01*
X558500Y804166D01*
X558500Y805833D01*
X559166Y807500D01*
X560500Y808333D01*
X561833Y808333D01*
X563166Y807500D01*
X563833Y805833D01*
G54D12*
X483480Y582977D02*
X496814Y582977D01*
X496814Y586311D01*
X495980Y587644D01*
X494314Y588311D01*
X485980Y588311D01*
X484314Y587644D01*
X483480Y586311D01*
X483480Y582977D01*
G54D12*
X483480Y591977D02*
X496814Y591977D01*
X496814Y595311D01*
X495980Y596644D01*
X494314Y597311D01*
X485980Y597311D01*
X484314Y596644D01*
X483480Y595311D01*
X483480Y591977D01*
G54D12*
X491814Y600977D02*
X496814Y604311D01*
X483480Y604311D01*
G54D12*
X494314Y613311D02*
X495980Y612644D01*
X496814Y611311D01*
X496814Y609977D01*
X495980Y608644D01*
X494314Y607977D01*
X490147Y607977D01*
X489314Y607977D01*
X490980Y609977D01*
X490980Y611311D01*
X490147Y612644D01*
X488480Y613311D01*
X485980Y613311D01*
X484314Y612644D01*
X483480Y611311D01*
X483480Y609977D01*
X484314Y608644D01*
X485980Y607977D01*
X490147Y607977D01*
G54D10*
X457500Y587500D02*
X457500Y597500D01*
G54D10*
X447500Y587500D02*
X467500Y587500D01*
G54D10*
X447500Y580000D02*
X467500Y580000D01*
G54D10*
X457500Y570000D02*
X457500Y580000D01*
G54D12*
X432222Y578555D02*
X430556Y577889D01*
X429722Y576555D01*
X429722Y575222D01*
X430556Y573889D01*
X432222Y573222D01*
X440556Y573222D01*
X442222Y573889D01*
X443056Y575222D01*
X443056Y576555D01*
X442222Y577889D01*
X440556Y578555D01*
G54D12*
X438056Y582222D02*
X443056Y585555D01*
X429722Y585555D01*
G54D12*
X438056Y589222D02*
X443056Y592555D01*
X429722Y592555D01*
G54D13*
X758444Y562222D02*
X758444Y575556D01*
X751444Y575556D01*
G54D13*
X758444Y568889D02*
X751444Y568889D01*
G54D13*
X746778Y562222D02*
X746778Y575556D01*
X741778Y575556D01*
X739778Y574722D01*
X738778Y573056D01*
X738778Y564722D01*
X739778Y563056D01*
X741778Y562222D01*
X746778Y562222D01*
G54D13*
X734110Y562222D02*
X734110Y575556D01*
X729110Y575556D01*
X727110Y574722D01*
X726110Y573056D01*
X726110Y564722D01*
X727110Y563056D01*
X729110Y562222D01*
X734110Y562222D01*
G54D10*
X742500Y707500D02*
X722500Y707500D01*
G54D10*
X742500Y697500D02*
X742500Y717500D01*
G54D10*
X750000Y697500D02*
X750000Y717500D01*
G54D10*
X772500Y707500D02*
X750000Y707500D01*
G54D12*
X732168Y715000D02*
X732835Y713333D01*
X734168Y712500D01*
X735502Y712500D01*
X736835Y713333D01*
X737502Y715000D01*
X737502Y723333D01*
X736835Y725000D01*
X735502Y725833D01*
X734168Y725833D01*
X732835Y725000D01*
X732168Y723333D01*
G54D12*
X728502Y720833D02*
X725168Y725833D01*
X725168Y712500D01*
G54D12*
X697168Y618333D02*
X697168Y607500D01*
X697835Y605833D01*
X699168Y605000D01*
X700502Y605000D01*
X701835Y605833D01*
X702502Y607500D01*
G54D12*
X693502Y613333D02*
X690168Y618333D01*
X690168Y605000D01*
G54D12*
X599846Y517817D02*
X599846Y531151D01*
X596513Y531151D01*
X595179Y530317D01*
X594513Y528651D01*
X594513Y520317D01*
X595179Y518651D01*
X596513Y517817D01*
X599846Y517817D01*
G54D12*
X590846Y517817D02*
X590846Y531151D01*
X587513Y531151D01*
X586179Y530317D01*
X585513Y528651D01*
X585513Y520317D01*
X586179Y518651D01*
X587513Y517817D01*
X590846Y517817D01*
G54D12*
X581846Y526151D02*
X578513Y531151D01*
X578513Y517817D01*
G54D12*
X574846Y531151D02*
X569513Y531151D01*
X570179Y529484D01*
X571513Y526984D01*
X572846Y523651D01*
X573513Y521151D01*
X573513Y517817D01*
G54D12*
X409667Y743333D02*
X409667Y732500D01*
X410334Y730833D01*
X411667Y730000D01*
X413000Y730000D01*
X414334Y730833D01*
X415000Y732500D01*
G54D12*
X402000Y730000D02*
X402000Y743333D01*
X406000Y735000D01*
X406000Y733333D01*
X400667Y733333D01*
G54D12*
X407167Y810833D02*
X407167Y800000D01*
X407834Y798333D01*
X409167Y797500D01*
X410500Y797500D01*
X411834Y798333D01*
X412500Y800000D01*
G54D12*
X398167Y810833D02*
X403500Y810833D01*
X403500Y805000D01*
X402834Y805000D01*
X401500Y805833D01*
X400167Y805833D01*
X398834Y805000D01*
X398167Y803333D01*
X398167Y800000D01*
X398834Y798333D01*
X400167Y797500D01*
X401500Y797500D01*
X402834Y798333D01*
X403500Y800000D01*
G54D13*
X408666Y677500D02*
X409666Y675833D01*
X411666Y675000D01*
X413666Y675000D01*
X415666Y675833D01*
X416666Y677500D01*
X416666Y685833D01*
X415666Y687500D01*
X413666Y688333D01*
X411666Y688333D01*
X409666Y687500D01*
X408666Y685833D01*
G54D13*
X396000Y685833D02*
X396000Y677500D01*
X397000Y675833D01*
X399000Y675000D01*
X401000Y675000D01*
X403000Y675833D01*
X404000Y677500D01*
X404000Y685833D01*
X403000Y687500D01*
X401000Y688333D01*
X399000Y688333D01*
X397000Y687500D01*
X396000Y685833D01*
G54D13*
X391332Y675000D02*
X391332Y688333D01*
X386332Y680000D01*
X381332Y688333D01*
X381332Y675000D01*
G54D13*
X376666Y683333D02*
X371666Y688333D01*
X371666Y675000D01*
G54D10*
X457500Y480000D02*
X457500Y490000D01*
G54D10*
X447500Y480000D02*
X467500Y480000D01*
G54D10*
X447500Y472500D02*
X467500Y472500D01*
G54D10*
X457500Y462500D02*
X457500Y472500D01*
G54D12*
X462255Y516513D02*
X462922Y514847D01*
X464255Y514013D01*
X465588Y514013D01*
X466922Y514847D01*
X467588Y516513D01*
X467588Y524847D01*
X466922Y526513D01*
X465588Y527347D01*
X464255Y527347D01*
X462922Y526513D01*
X462255Y524847D01*
G54D12*
X458588Y516513D02*
X457922Y514847D01*
X456588Y514013D01*
X455255Y514013D01*
X453922Y514847D01*
X453255Y516513D01*
X453255Y520680D01*
X453255Y521513D01*
X455255Y519847D01*
X456588Y519847D01*
X457922Y520680D01*
X458588Y522347D01*
X458588Y524847D01*
X457922Y526513D01*
X456588Y527347D01*
X455255Y527347D01*
X453922Y526513D01*
X453255Y524847D01*
X453255Y520680D01*
G54D10*
X420000Y480000D02*
X420000Y490000D01*
G54D10*
X410000Y480000D02*
X430000Y480000D01*
G54D10*
X410000Y472500D02*
X430000Y472500D01*
G54D10*
X420000Y462500D02*
X420000Y472500D01*
G54D12*
X422255Y516513D02*
X422922Y514847D01*
X424255Y514013D01*
X425588Y514013D01*
X426922Y514847D01*
X427588Y516513D01*
X427588Y524847D01*
X426922Y526513D01*
X425588Y527347D01*
X424255Y527347D01*
X422922Y526513D01*
X422255Y524847D01*
G54D12*
X415255Y520680D02*
X416588Y520680D01*
X417922Y521513D01*
X418588Y523180D01*
X418588Y524847D01*
X417922Y526513D01*
X416588Y527347D01*
X415255Y527347D01*
X413922Y526513D01*
X413255Y524847D01*
X413255Y523180D01*
X413922Y521513D01*
X415255Y520680D01*
X413922Y519847D01*
X413255Y518180D01*
X413255Y516513D01*
X413922Y514847D01*
X415255Y514013D01*
X416588Y514013D01*
X417922Y514847D01*
X418588Y516513D01*
X418588Y518180D01*
X417922Y519847D01*
X416588Y520680D01*
G54D12*
X382267Y516513D02*
X382934Y514847D01*
X384267Y514013D01*
X385600Y514013D01*
X386934Y514847D01*
X387600Y516513D01*
X387600Y524847D01*
X386934Y526513D01*
X385600Y527347D01*
X384267Y527347D01*
X382934Y526513D01*
X382267Y524847D01*
G54D12*
X378600Y527347D02*
X373267Y527347D01*
X373934Y525680D01*
X375267Y523180D01*
X376600Y519847D01*
X377267Y517347D01*
X377267Y514013D01*
G54D10*
X380000Y480000D02*
X380000Y490000D01*
G54D10*
X370000Y480000D02*
X390000Y480000D01*
G54D10*
X370000Y472500D02*
X390000Y472500D01*
G54D10*
X380000Y462500D02*
X380000Y472500D01*
G54D10*
X332500Y535000D02*
X332500Y495000D01*
G54D10*
X322500Y507500D02*
X342500Y507500D01*
G54D10*
X322500Y525000D02*
X342500Y525000D01*
X332500Y507500D01*
X322500Y525000D01*
G54D12*
X338664Y542545D02*
X325331Y545878D01*
X338664Y549211D01*
G54D12*
X325331Y552879D02*
X338664Y552879D01*
X338664Y556212D01*
X337831Y557545D01*
X336164Y558212D01*
X327831Y558212D01*
X326165Y557545D01*
X325331Y556212D01*
X325331Y552879D01*
G54D12*
X338664Y567212D02*
X338664Y561879D01*
X332831Y561879D01*
X332831Y562545D01*
X333665Y563879D01*
X333665Y565212D01*
X332831Y566545D01*
X331165Y567212D01*
X327831Y567212D01*
X326165Y566545D01*
X325331Y565212D01*
X325331Y563879D01*
X326165Y562545D01*
X327831Y561879D01*
G54D10*
X332500Y405000D02*
X332500Y365000D01*
G54D10*
X322500Y377500D02*
X342500Y377500D01*
G54D10*
X322500Y395000D02*
X342500Y395000D01*
X332500Y377500D01*
X322500Y395000D01*
G54D12*
X338665Y412545D02*
X325331Y415878D01*
X338665Y419211D01*
G54D12*
X325331Y422879D02*
X338665Y422879D01*
X338665Y426212D01*
X337831Y427545D01*
X336165Y428212D01*
X327831Y428212D01*
X326165Y427545D01*
X325331Y426212D01*
X325331Y422879D01*
G54D12*
X336165Y437212D02*
X337831Y436545D01*
X338665Y435212D01*
X338665Y433879D01*
X337831Y432545D01*
X336165Y431879D01*
X331998Y431879D01*
X331165Y431879D01*
X332831Y433879D01*
X332831Y435212D01*
X331998Y436545D01*
X330331Y437212D01*
X327831Y437212D01*
X326165Y436545D01*
X325331Y435212D01*
X325331Y433879D01*
X326165Y432545D01*
X327831Y431879D01*
X331998Y431879D01*
G54D10*
X342659Y285184D02*
X322659Y285184D01*
X322659Y242684D01*
X342659Y242684D01*
X342659Y285184D01*
G54D12*
X331195Y293581D02*
X329528Y295581D01*
X327862Y296248D01*
X324528Y296248D01*
G54D12*
X324528Y290914D02*
X337862Y290914D01*
X337862Y294248D01*
X337028Y295581D01*
X335362Y296248D01*
X333695Y296248D01*
X332028Y295581D01*
X331195Y294248D01*
X331195Y290914D01*
G54D12*
X324528Y305248D02*
X324528Y299914D01*
X325362Y299914D01*
X327028Y300581D01*
X332028Y304581D01*
X333695Y305248D01*
X335362Y305248D01*
X337028Y304581D01*
X337862Y303248D01*
X337862Y301914D01*
X337028Y300581D01*
X335362Y299914D01*
G54D12*
X335362Y314248D02*
X327028Y314248D01*
X325362Y313581D01*
X324528Y312248D01*
X324528Y310914D01*
X325362Y309581D01*
X327028Y308914D01*
X335362Y308914D01*
X337028Y309581D01*
X337862Y310914D01*
X337862Y312248D01*
X337028Y313581D01*
X335362Y314248D01*
G54D10*
X332659Y242684D02*
X332659Y235184D01*
G54D10*
X340000Y172500D02*
X350000Y172500D01*
G54D10*
X340000Y182500D02*
X340000Y162500D01*
G54D10*
X332500Y182500D02*
X332500Y162500D01*
G54D10*
X322500Y172500D02*
X332500Y172500D01*
G54D10*
X425000Y172500D02*
X435000Y172500D01*
G54D10*
X425000Y182500D02*
X425000Y162500D01*
G54D10*
X417500Y182500D02*
X417500Y162500D01*
G54D10*
X407500Y172500D02*
X417500Y172500D01*
G54D12*
X341093Y191514D02*
X341759Y189847D01*
X343093Y189014D01*
X344426Y189014D01*
X345759Y189847D01*
X346426Y191514D01*
X346426Y199847D01*
X345759Y201514D01*
X344426Y202347D01*
X343093Y202347D01*
X341759Y201514D01*
X341093Y199847D01*
G54D12*
X337426Y197347D02*
X334093Y202347D01*
X334093Y189014D01*
G54D12*
X325093Y202347D02*
X330426Y202347D01*
X330426Y196514D01*
X329759Y196514D01*
X328426Y197347D01*
X327093Y197347D01*
X325759Y196514D01*
X325093Y194847D01*
X325093Y191514D01*
X325759Y189847D01*
X327093Y189014D01*
X328426Y189014D01*
X329759Y189847D01*
X330426Y191514D01*
G54D12*
X426093Y191514D02*
X426759Y189847D01*
X428093Y189014D01*
X429426Y189014D01*
X430759Y189847D01*
X431426Y191514D01*
X431426Y199847D01*
X430759Y201514D01*
X429426Y202347D01*
X428093Y202347D01*
X426759Y201514D01*
X426093Y199847D01*
G54D12*
X422426Y197347D02*
X419093Y202347D01*
X419093Y189014D01*
G54D12*
X410093Y199847D02*
X410093Y191514D01*
X410759Y189847D01*
X412093Y189014D01*
X413426Y189014D01*
X414759Y189847D01*
X415426Y191514D01*
X415426Y199847D01*
X414759Y201514D01*
X413426Y202347D01*
X412093Y202347D01*
X410759Y201514D01*
X410093Y199847D01*
G54D10*
X197500Y462500D02*
X142500Y462500D01*
X142500Y162500D01*
X270000Y162500D01*
X270000Y462500D01*
X212500Y462500D01*
G54D10*
G75*
G01X197500Y462500D02*
G03X212500Y462500I7500J0D01*
G01*
G54D12*
X219706Y467817D02*
X219706Y481151D01*
X216373Y481151D01*
X215040Y480317D01*
X214373Y478651D01*
X214373Y470317D01*
X215040Y468651D01*
X216373Y467817D01*
X219706Y467817D01*
G54D12*
X210706Y467817D02*
X210706Y481151D01*
X207373Y481151D01*
X206040Y480317D01*
X205373Y478651D01*
X205373Y470317D01*
X206040Y468651D01*
X207373Y467817D01*
X210706Y467817D01*
G54D12*
X196373Y467817D02*
X201706Y467817D01*
X201706Y468651D01*
X201040Y470317D01*
X197040Y475317D01*
X196373Y476984D01*
X196373Y478651D01*
X197040Y480317D01*
X198373Y481151D01*
X199706Y481151D01*
X201040Y480317D01*
X201706Y478651D01*
G54D12*
X187373Y478651D02*
X187373Y470317D01*
X188040Y468651D01*
X189373Y467817D01*
X190706Y467817D01*
X192040Y468651D01*
X192706Y470317D01*
X192706Y478651D01*
X192040Y480317D01*
X190706Y481151D01*
X189373Y481151D01*
X188040Y480317D01*
X187373Y478651D01*
G54D12*
X103480Y527977D02*
X116814Y527977D01*
X116814Y531310D01*
X115980Y532643D01*
X114314Y533310D01*
X105980Y533310D01*
X104314Y532643D01*
X103480Y531310D01*
X103480Y527977D01*
G54D12*
X103480Y536977D02*
X116814Y536977D01*
X116814Y540310D01*
X115980Y541643D01*
X114314Y542310D01*
X105980Y542310D01*
X104314Y541643D01*
X103480Y540310D01*
X103480Y536977D01*
G54D12*
X111814Y545977D02*
X116814Y549310D01*
X103480Y549310D01*
G54D12*
X105980Y552977D02*
X104314Y553643D01*
X103480Y554977D01*
X103480Y556310D01*
X104314Y557643D01*
X105980Y558310D01*
X110147Y558310D01*
X110980Y558310D01*
X109314Y556310D01*
X109314Y554977D01*
X110147Y553643D01*
X111814Y552977D01*
X114314Y552977D01*
X115980Y553643D01*
X116814Y554977D01*
X116814Y556310D01*
X115980Y557643D01*
X114314Y558310D01*
X110147Y558310D01*
G54D10*
X75001Y582502D02*
X75001Y622502D01*
G54D10*
X85001Y610002D02*
X65001Y610002D01*
G54D10*
X85001Y592502D02*
X65001Y592502D01*
X75001Y610002D01*
X85001Y592502D01*
G54D12*
X81165Y630046D02*
X67831Y633379D01*
X81165Y636712D01*
G54D12*
X67831Y640380D02*
X81165Y640380D01*
X81165Y643713D01*
X80331Y645046D01*
X78665Y645713D01*
X70331Y645713D01*
X68665Y645046D01*
X67831Y643713D01*
X67831Y640380D01*
G54D12*
X67831Y654713D02*
X67831Y649380D01*
X68665Y649380D01*
X70331Y650046D01*
X75331Y654046D01*
X76998Y654713D01*
X78665Y654713D01*
X80331Y654046D01*
X81165Y652713D01*
X81165Y651380D01*
X80331Y650046D01*
X78665Y649380D01*
G54D10*
X75000Y480000D02*
X75000Y440000D01*
G54D10*
X65000Y452500D02*
X85000Y452500D01*
G54D10*
X65000Y470000D02*
X85000Y470000D01*
X75000Y452500D01*
X65000Y470000D01*
G54D12*
X81165Y487545D02*
X67831Y490878D01*
X81165Y494211D01*
G54D12*
X67831Y497879D02*
X81165Y497879D01*
X81165Y501212D01*
X80331Y502545D01*
X78665Y503212D01*
X70331Y503212D01*
X68665Y502545D01*
X67831Y501212D01*
X67831Y497879D01*
G54D12*
X78665Y506879D02*
X80331Y507545D01*
X81165Y508879D01*
X81165Y510212D01*
X80331Y511545D01*
X78665Y512212D01*
X76998Y512212D01*
X75331Y511545D01*
X74498Y510212D01*
X73665Y511545D01*
X71998Y512212D01*
X70331Y512212D01*
X68665Y511545D01*
X67831Y510212D01*
X67831Y508879D01*
X68665Y507545D01*
X70331Y506879D01*
G54D10*
X85159Y360184D02*
X65159Y360184D01*
X65159Y317684D01*
X85159Y317684D01*
X85159Y360184D01*
G54D12*
X73695Y368578D02*
X72028Y370578D01*
X70362Y371245D01*
X67028Y371245D01*
G54D12*
X67028Y365912D02*
X80362Y365912D01*
X80362Y369245D01*
X79528Y370578D01*
X77862Y371245D01*
X76195Y371245D01*
X74528Y370578D01*
X73695Y369245D01*
X73695Y365912D01*
G54D12*
X75362Y374912D02*
X80362Y378245D01*
X67028Y378245D01*
G54D12*
X69528Y381912D02*
X67862Y382578D01*
X67028Y383912D01*
X67028Y385245D01*
X67862Y386578D01*
X69528Y387245D01*
X73695Y387245D01*
X74528Y387245D01*
X72862Y385245D01*
X72862Y383912D01*
X73695Y382578D01*
X75362Y381912D01*
X77862Y381912D01*
X79528Y382578D01*
X80362Y383912D01*
X80362Y385245D01*
X79528Y386578D01*
X77862Y387245D01*
X73695Y387245D01*
G54D10*
X75159Y317684D02*
X75159Y310184D01*
G54D10*
X85159Y232684D02*
X65159Y232684D01*
X65159Y190184D01*
X85159Y190184D01*
X85159Y232684D01*
G54D12*
X73695Y241078D02*
X72028Y243078D01*
X70362Y243744D01*
X67028Y243744D01*
G54D12*
X67028Y238411D02*
X80362Y238411D01*
X80362Y241744D01*
X79528Y243078D01*
X77862Y243744D01*
X76195Y243744D01*
X74528Y243078D01*
X73695Y241744D01*
X73695Y238411D01*
G54D12*
X67028Y252744D02*
X67028Y247411D01*
X67862Y247411D01*
X69528Y248078D01*
X74528Y252078D01*
X76195Y252744D01*
X77862Y252744D01*
X79528Y252078D01*
X80362Y250744D01*
X80362Y249411D01*
X79528Y248078D01*
X77862Y247411D01*
G54D12*
X75362Y256411D02*
X80362Y259744D01*
X67028Y259744D01*
G54D10*
X75159Y190184D02*
X75159Y182684D01*
G54D12*
X31198Y174852D02*
X27865Y161519D01*
X24532Y174852D01*
G54D12*
X18198Y161519D02*
X18198Y174852D01*
G54D12*
X20864Y174852D02*
X15531Y174852D01*
G54D12*
X11864Y169852D02*
X8531Y174852D01*
X8531Y161519D01*
G54D10*
X17500Y292500D02*
X17500Y282500D01*
G54D10*
X27500Y292500D02*
X7500Y292500D01*
G54D10*
X27500Y300000D02*
X7500Y300000D01*
G54D10*
X17500Y310000D02*
X17500Y300000D01*
G54D12*
X39091Y290345D02*
X37424Y289679D01*
X36591Y288345D01*
X36591Y287012D01*
X37424Y285679D01*
X39091Y285012D01*
X47424Y285012D01*
X49091Y285679D01*
X49924Y287012D01*
X49924Y288345D01*
X49091Y289679D01*
X47424Y290345D01*
G54D12*
X44924Y294012D02*
X49924Y297345D01*
X36591Y297345D01*
G54D12*
X47424Y306345D02*
X49091Y305679D01*
X49924Y304345D01*
X49924Y303012D01*
X49091Y301679D01*
X47424Y301012D01*
X43258Y301012D01*
X42424Y301012D01*
X44091Y303012D01*
X44091Y304345D01*
X43258Y305679D01*
X41591Y306345D01*
X39091Y306345D01*
X37424Y305679D01*
X36591Y304345D01*
X36591Y303012D01*
X37424Y301679D01*
X39091Y301012D01*
X43258Y301012D01*
G54D10*
X47500Y720000D02*
X57500Y720000D01*
G54D10*
X47500Y730000D02*
X47500Y710000D01*
G54D10*
X40000Y730000D02*
X40000Y710000D01*
G54D10*
X30000Y720000D02*
X40000Y720000D01*
G54D12*
X51093Y739014D02*
X51759Y737347D01*
X53093Y736514D01*
X54426Y736514D01*
X55759Y737347D01*
X56426Y739014D01*
X56426Y747347D01*
X55759Y749014D01*
X54426Y749847D01*
X53093Y749847D01*
X51759Y749014D01*
X51093Y747347D01*
G54D12*
X47426Y744847D02*
X44093Y749847D01*
X44093Y736514D01*
G54D12*
X35093Y736514D02*
X40426Y736514D01*
X40426Y737347D01*
X39759Y739014D01*
X35759Y744014D01*
X35093Y745681D01*
X35093Y747347D01*
X35759Y749014D01*
X37093Y749847D01*
X38426Y749847D01*
X39759Y749014D01*
X40426Y747347D01*
G54D10*
X-22500Y675000D02*
X-22500Y665000D01*
G54D10*
X-12500Y675000D02*
X-32500Y675000D01*
G54D10*
X-12500Y682500D02*
X-32500Y682500D01*
G54D10*
X-22500Y692500D02*
X-22500Y682500D01*
G54D12*
X-3486Y671407D02*
X-5153Y670741D01*
X-5986Y669407D01*
X-5986Y668074D01*
X-5153Y666741D01*
X-3486Y666074D01*
X4847Y666074D01*
X6514Y666741D01*
X7347Y668074D01*
X7347Y669407D01*
X6514Y670741D01*
X4847Y671407D01*
G54D12*
X2347Y675074D02*
X7347Y678407D01*
X-5986Y678407D01*
G54D12*
X4847Y682074D02*
X6514Y682741D01*
X7347Y684074D01*
X7347Y685407D01*
X6514Y686741D01*
X4847Y687407D01*
X3180Y687407D01*
X1514Y686741D01*
X680Y685407D01*
X-153Y686741D01*
X-1820Y687407D01*
X-3486Y687407D01*
X-5153Y686741D01*
X-5986Y685407D01*
X-5986Y684074D01*
X-5153Y682741D01*
X-3486Y682074D01*
G54D10*
X-25000Y585000D02*
X-25000Y575000D01*
G54D10*
X-15000Y585000D02*
X-35000Y585000D01*
G54D10*
X-15000Y592500D02*
X-35000Y592500D01*
G54D10*
X-25000Y602500D02*
X-25000Y592500D01*
G54D12*
X-5986Y581390D02*
X-7653Y580724D01*
X-8486Y579390D01*
X-8486Y578057D01*
X-7653Y576724D01*
X-5986Y576057D01*
X2347Y576057D01*
X4014Y576724D01*
X4847Y578057D01*
X4847Y579390D01*
X4014Y580724D01*
X2347Y581390D01*
G54D12*
X-153Y585057D02*
X4847Y588390D01*
X-8486Y588390D01*
G54D12*
X-8486Y596057D02*
X4847Y596057D01*
X-3486Y592057D01*
X-5153Y592057D01*
X-5153Y597390D01*
G54D10*
X35159Y630184D02*
X15159Y630184D01*
X15159Y587684D01*
X35159Y587684D01*
X35159Y630184D01*
G54D12*
X23695Y638578D02*
X22028Y640578D01*
X20362Y641245D01*
X17028Y641245D01*
G54D12*
X17028Y635912D02*
X30362Y635912D01*
X30362Y639245D01*
X29528Y640578D01*
X27862Y641245D01*
X26195Y641245D01*
X24528Y640578D01*
X23695Y639245D01*
X23695Y635912D01*
G54D12*
X25362Y644912D02*
X30362Y648245D01*
X17028Y648245D01*
G54D12*
X23695Y655245D02*
X23695Y653912D01*
X24528Y652578D01*
X26195Y651912D01*
X27862Y651912D01*
X29528Y652578D01*
X30362Y653912D01*
X30362Y655245D01*
X29528Y656578D01*
X27862Y657245D01*
X26195Y657245D01*
X24528Y656578D01*
X23695Y655245D01*
X22862Y656578D01*
X21195Y657245D01*
X19528Y657245D01*
X17862Y656578D01*
X17028Y655245D01*
X17028Y653912D01*
X17862Y652578D01*
X19528Y651912D01*
X21195Y651912D01*
X22862Y652578D01*
X23695Y653912D01*
G54D10*
X25159Y587684D02*
X25159Y580184D01*
G54D10*
X32500Y490000D02*
X12500Y490000D01*
X12500Y447500D01*
X32500Y447500D01*
X32500Y490000D01*
G54D12*
X21035Y498398D02*
X19368Y500398D01*
X17702Y501065D01*
X14368Y501065D01*
G54D12*
X14368Y495731D02*
X27702Y495731D01*
X27702Y499065D01*
X26868Y500398D01*
X25202Y501065D01*
X23535Y501065D01*
X21868Y500398D01*
X21035Y499065D01*
X21035Y495731D01*
G54D12*
X14368Y510065D02*
X14368Y504731D01*
X15202Y504731D01*
X16868Y505398D01*
X21868Y509398D01*
X23535Y510065D01*
X25202Y510065D01*
X26868Y509398D01*
X27702Y508065D01*
X27702Y506731D01*
X26868Y505398D01*
X25202Y504731D01*
G54D12*
X14368Y519065D02*
X14368Y513731D01*
X15202Y513731D01*
X16868Y514398D01*
X21868Y518398D01*
X23535Y519065D01*
X25202Y519065D01*
X26868Y518398D01*
X27702Y517065D01*
X27702Y515731D01*
X26868Y514398D01*
X25202Y513731D01*
G54D10*
X22500Y447500D02*
X22500Y440000D01*
G54D12*
X1102Y409013D02*
X1768Y407347D01*
X3102Y406513D01*
X4435Y406513D01*
X5768Y407347D01*
X6435Y409013D01*
X6435Y417347D01*
X5768Y419013D01*
X4435Y419847D01*
X3102Y419847D01*
X1768Y419013D01*
X1102Y417347D01*
G54D12*
X-2565Y414847D02*
X-5898Y419847D01*
X-5898Y406513D01*
G54D12*
X-9565Y419847D02*
X-14898Y419847D01*
X-14232Y418180D01*
X-12898Y415680D01*
X-11565Y412347D01*
X-10898Y409847D01*
X-10898Y406513D01*
G54D12*
X-16667Y480000D02*
X-16667Y485333D01*
X-30000Y480000D01*
X-30000Y485333D01*
G54D12*
X-27500Y491667D02*
X-30000Y495000D01*
G54D12*
X-19167Y494333D02*
X-27500Y494333D01*
X-29167Y493667D01*
X-30000Y492333D01*
X-30000Y491000D01*
X-29167Y489667D01*
X-27500Y489000D01*
X-19167Y489000D01*
X-17500Y489667D01*
X-16667Y491000D01*
X-16667Y492333D01*
X-17500Y493667D01*
X-19167Y494333D01*
G54D12*
X-19167Y498667D02*
X-17500Y499334D01*
X-16667Y500667D01*
X-16667Y502000D01*
X-17500Y503334D01*
X-19167Y504000D01*
X-20834Y504000D01*
X-22500Y503334D01*
X-23334Y502000D01*
X-24167Y503334D01*
X-25834Y504000D01*
X-27500Y504000D01*
X-29167Y503334D01*
X-30000Y502000D01*
X-30000Y500667D01*
X-29167Y499334D01*
X-27500Y498667D01*
G54D10*
X-20000Y360000D02*
X-40000Y360000D01*
X-40000Y317500D01*
X-20000Y317500D01*
X-20000Y360000D01*
G54D12*
X-31464Y368396D02*
X-33131Y370396D01*
X-34798Y371062D01*
X-38131Y371062D01*
G54D12*
X-38131Y365729D02*
X-24798Y365729D01*
X-24798Y369062D01*
X-25631Y370396D01*
X-27298Y371062D01*
X-28964Y371062D01*
X-30631Y370396D01*
X-31464Y369062D01*
X-31464Y365729D01*
G54D12*
X-29798Y374729D02*
X-24798Y378062D01*
X-38131Y378062D01*
G54D12*
X-24798Y381729D02*
X-24798Y387062D01*
X-26464Y386396D01*
X-28964Y385062D01*
X-32298Y383729D01*
X-34798Y383062D01*
X-38131Y383062D01*
G54D10*
X-30000Y317500D02*
X-30000Y310000D01*
G54D10*
X-30000Y227500D02*
X-30000Y187500D01*
G54D10*
X-40000Y200000D02*
X-20000Y200000D01*
G54D10*
X-40000Y217500D02*
X-20000Y217500D01*
X-30000Y200000D01*
X-40000Y217500D01*
G54D12*
X-23836Y235049D02*
X-37170Y238382D01*
X-23836Y241715D01*
G54D12*
X-37170Y245383D02*
X-23836Y245383D01*
X-23836Y248716D01*
X-24670Y250049D01*
X-26336Y250716D01*
X-34670Y250716D01*
X-36336Y250049D01*
X-37170Y248716D01*
X-37170Y245383D01*
G54D12*
X-37170Y258383D02*
X-23836Y258383D01*
X-32170Y254383D01*
X-33836Y254383D01*
X-33836Y259716D01*
G54D12*
X236033Y697800D02*
X236033Y711133D01*
X232700Y711133D01*
X231367Y710300D01*
X230700Y708633D01*
X230700Y706967D01*
X231367Y705300D01*
X232700Y704467D01*
X231367Y703633D01*
X230700Y701967D01*
X230700Y700300D01*
X231367Y698633D01*
X232700Y697800D01*
X236033Y697800D01*
G54D12*
X236033Y704467D02*
X232700Y704467D01*
G54D12*
X227033Y697800D02*
X223700Y711133D01*
X220367Y697800D01*
G54D12*
X225700Y702800D02*
X221700Y702800D01*
G54D12*
X214033Y697800D02*
X214033Y711133D01*
G54D12*
X216699Y711133D02*
X211366Y711133D01*
G54D12*
X207699Y706133D02*
X204366Y711133D01*
X204366Y697800D01*
G54D14*
X850750Y203733D02*
X1795750Y203733D01*
X1795750Y120983D01*
X850750Y120983D01*
X850750Y203733D01*
G54D13*
X1830139Y172182D02*
X1820139Y158849D01*
G54D13*
X1830139Y158849D02*
X1820139Y172182D01*
G54D13*
X1807472Y158849D02*
X1815472Y158849D01*
X1815472Y159682D01*
X1814472Y161349D01*
X1808472Y166349D01*
X1807472Y168016D01*
X1807472Y169682D01*
X1808472Y171349D01*
X1810472Y172182D01*
X1812472Y172182D01*
X1814472Y171349D01*
X1815472Y169682D01*
G36*
X425000Y657500D02*
X435000Y665000D01*
X435000Y650000D01*
X425000Y657500D01*
G37*
G54D10*
X425000Y657500D02*
X435000Y665000D01*
X435000Y650000D01*
X425000Y657500D01*
G54D12*
X1847163Y281796D02*
X1843829Y286796D01*
X1843829Y273463D01*
G54D12*
X1834830Y286796D02*
X1840163Y286796D01*
X1840163Y280963D01*
X1839496Y280963D01*
X1838163Y281796D01*
X1836830Y281796D01*
X1835496Y280963D01*
X1834829Y279296D01*
X1834830Y275963D01*
X1835496Y274296D01*
X1836829Y273463D01*
X1838163Y273463D01*
X1839496Y274296D01*
X1840163Y275963D01*
G54D12*
X1825830Y286796D02*
X1831163Y286796D01*
X1831163Y280963D01*
X1830496Y280963D01*
X1829163Y281796D01*
X1827829Y281796D01*
X1826496Y280963D01*
X1825829Y279296D01*
X1825830Y275963D01*
X1826496Y274296D01*
X1827830Y273463D01*
X1829163Y273463D01*
X1830496Y274296D01*
X1831163Y275963D01*
G54D12*
X1822163Y273463D02*
X1818830Y286796D01*
X1815496Y273463D01*
G54D12*
X1820830Y278463D02*
X1816830Y278463D01*
G54D12*
X1811829Y273463D02*
X1811829Y286796D01*
X1806495Y286796D01*
X1806495Y285130D01*
G54D12*
X1802829Y284296D02*
X1802162Y285963D01*
X1800829Y286796D01*
X1799495Y286796D01*
X1798162Y285963D01*
X1797495Y284296D01*
X1797496Y282630D01*
X1798162Y280963D01*
X1799495Y280130D01*
X1798162Y279296D01*
X1797496Y277630D01*
X1797496Y275963D01*
X1798162Y274296D01*
X1799495Y273463D01*
X1800829Y273463D01*
X1802162Y274296D01*
X1802829Y275963D01*
G54D12*
X1847163Y436796D02*
X1843830Y441796D01*
X1843830Y428463D01*
G54D12*
X1834830Y441796D02*
X1840163Y441796D01*
X1840163Y435963D01*
X1839496Y435963D01*
X1838163Y436796D01*
X1836830Y436796D01*
X1835496Y435963D01*
X1834830Y434296D01*
X1834830Y430963D01*
X1835496Y429296D01*
X1836830Y428463D01*
X1838163Y428463D01*
X1839496Y429296D01*
X1840163Y430963D01*
G54D12*
X1825830Y441796D02*
X1831163Y441796D01*
X1831163Y435963D01*
X1830496Y435963D01*
X1829163Y436796D01*
X1827830Y436796D01*
X1826496Y435963D01*
X1825830Y434296D01*
X1825830Y430963D01*
X1826496Y429296D01*
X1827830Y428463D01*
X1829163Y428463D01*
X1830496Y429296D01*
X1831163Y430963D01*
G54D12*
X1819496Y428463D02*
X1819496Y441796D01*
G54D12*
X1822163Y441796D02*
X1816830Y441796D01*
G54D12*
X1813163Y428463D02*
X1813163Y441796D01*
X1809830Y433463D01*
X1806496Y441796D01*
X1806496Y428463D01*
G54D12*
X1797496Y428463D02*
X1802829Y428463D01*
X1802829Y429296D01*
X1802162Y430963D01*
X1798162Y435963D01*
X1797496Y437630D01*
X1797496Y439296D01*
X1798162Y440963D01*
X1799496Y441796D01*
X1800829Y441796D01*
X1802162Y440963D01*
X1802829Y439296D01*
G54D12*
X1847163Y596796D02*
X1843830Y601796D01*
X1843830Y588463D01*
G54D12*
X1834830Y601796D02*
X1840163Y601796D01*
X1840163Y595963D01*
X1839496Y595963D01*
X1838163Y596796D01*
X1836830Y596796D01*
X1835496Y595963D01*
X1834830Y594296D01*
X1834830Y590963D01*
X1835496Y589296D01*
X1836830Y588463D01*
X1838163Y588463D01*
X1839496Y589296D01*
X1840163Y590963D01*
G54D12*
X1825830Y601796D02*
X1831163Y601796D01*
X1831163Y595963D01*
X1830496Y595963D01*
X1829163Y596796D01*
X1827830Y596796D01*
X1826496Y595963D01*
X1825830Y594296D01*
X1825830Y590963D01*
X1826496Y589296D01*
X1827830Y588463D01*
X1829163Y588463D01*
X1830496Y589296D01*
X1831163Y590963D01*
G54D12*
X1822163Y601796D02*
X1822163Y588463D01*
X1816830Y601796D01*
X1816830Y588463D01*
G54D12*
X1808496Y588463D02*
X1813163Y588463D01*
X1813163Y601796D01*
X1808496Y601796D01*
G54D12*
X1813163Y595130D02*
X1808496Y595130D01*
G54D12*
X1804829Y601796D02*
X1799496Y601796D01*
X1800162Y600130D01*
X1801496Y597630D01*
X1802829Y594296D01*
X1803496Y591796D01*
X1803496Y588463D01*
G54D12*
X1847163Y736796D02*
X1843830Y741796D01*
X1843830Y728463D01*
G54D12*
X1834830Y741796D02*
X1840163Y741796D01*
X1840163Y735963D01*
X1839496Y735963D01*
X1838163Y736796D01*
X1836830Y736796D01*
X1835496Y735963D01*
X1834830Y734296D01*
X1834830Y730963D01*
X1835496Y729296D01*
X1836830Y728463D01*
X1838163Y728463D01*
X1839496Y729296D01*
X1840163Y730963D01*
G54D12*
X1825830Y741796D02*
X1831163Y741796D01*
X1831163Y735963D01*
X1830496Y735963D01*
X1829163Y736796D01*
X1827830Y736796D01*
X1826496Y735963D01*
X1825830Y734296D01*
X1825830Y730963D01*
X1826496Y729296D01*
X1827830Y728463D01*
X1829163Y728463D01*
X1830496Y729296D01*
X1831163Y730963D01*
G54D12*
X1822163Y728463D02*
X1820830Y730130D01*
X1820830Y740130D01*
X1819496Y741796D01*
X1816830Y741796D01*
X1816830Y728463D01*
G54D12*
X1813163Y728463D02*
X1809830Y741796D01*
X1806496Y728463D01*
G54D12*
X1811830Y733463D02*
X1807830Y733463D01*
G54D12*
X1802829Y736796D02*
X1799496Y741796D01*
X1799496Y728463D01*
G54D12*
X1795829Y739296D02*
X1795162Y740963D01*
X1793829Y741796D01*
X1792496Y741796D01*
X1791162Y740963D01*
X1790496Y739296D01*
X1790496Y737630D01*
X1791162Y735963D01*
X1792496Y735130D01*
X1791162Y734296D01*
X1790496Y732630D01*
X1790496Y730963D01*
X1791162Y729296D01*
X1792496Y728463D01*
X1793829Y728463D01*
X1795162Y729296D01*
X1795829Y730963D01*
G54D12*
X1607163Y736796D02*
X1603830Y741796D01*
X1603830Y728463D01*
G54D12*
X1594830Y741796D02*
X1600163Y741796D01*
X1600163Y735963D01*
X1599496Y735963D01*
X1598163Y736796D01*
X1596830Y736796D01*
X1595496Y735963D01*
X1594830Y734296D01*
X1594830Y730963D01*
X1595496Y729296D01*
X1596830Y728463D01*
X1598163Y728463D01*
X1599496Y729296D01*
X1600163Y730963D01*
G54D12*
X1585830Y741796D02*
X1591163Y741796D01*
X1591163Y735963D01*
X1590496Y735963D01*
X1589163Y736796D01*
X1587830Y736796D01*
X1586496Y735963D01*
X1585830Y734296D01*
X1585830Y730963D01*
X1586496Y729296D01*
X1587830Y728463D01*
X1589163Y728463D01*
X1590496Y729296D01*
X1591163Y730963D01*
G54D12*
X1582163Y728463D02*
X1580830Y730130D01*
X1580830Y740130D01*
X1579496Y741796D01*
X1576830Y741796D01*
X1576830Y728463D01*
G54D12*
X1573163Y728463D02*
X1573163Y741796D01*
G54D12*
X1567830Y728463D02*
X1567830Y741796D01*
G54D12*
X1573163Y735130D02*
X1567830Y735130D01*
G54D12*
X1558830Y728463D02*
X1564163Y728463D01*
X1564163Y729296D01*
X1563496Y730963D01*
X1559496Y735963D01*
X1558830Y737630D01*
X1558830Y739296D01*
X1559496Y740963D01*
X1560830Y741796D01*
X1562163Y741796D01*
X1563496Y740963D01*
X1564163Y739296D01*
G54D12*
X1274663Y736796D02*
X1271330Y741796D01*
X1271330Y728463D01*
G54D12*
X1262330Y741796D02*
X1267663Y741796D01*
X1267663Y735963D01*
X1266996Y735963D01*
X1265663Y736796D01*
X1264330Y736796D01*
X1262996Y735963D01*
X1262330Y734296D01*
X1262330Y730963D01*
X1262996Y729296D01*
X1264330Y728463D01*
X1265663Y728463D01*
X1266996Y729296D01*
X1267663Y730963D01*
G54D12*
X1253330Y741796D02*
X1258663Y741796D01*
X1258663Y735963D01*
X1257996Y735963D01*
X1256663Y736796D01*
X1255330Y736796D01*
X1253996Y735963D01*
X1253330Y734296D01*
X1253330Y730963D01*
X1253996Y729296D01*
X1255330Y728463D01*
X1256663Y728463D01*
X1257996Y729296D01*
X1258663Y730963D01*
G54D12*
X1249663Y728463D02*
X1248330Y730130D01*
X1248330Y740130D01*
X1246996Y741796D01*
X1244330Y741796D01*
X1244330Y728463D01*
G54D12*
X1240663Y728463D02*
X1240663Y741796D01*
G54D12*
X1235330Y728463D02*
X1235330Y741796D01*
G54D12*
X1240663Y735130D02*
X1235330Y735130D01*
G54D12*
X1226330Y728463D02*
X1231663Y728463D01*
X1231663Y729296D01*
X1230996Y730963D01*
X1226996Y735963D01*
X1226330Y737630D01*
X1226330Y739296D01*
X1226996Y740963D01*
X1228330Y741796D01*
X1229663Y741796D01*
X1230996Y740963D01*
X1231663Y739296D01*
G54D12*
X1607163Y596796D02*
X1603830Y601796D01*
X1603830Y588463D01*
G54D12*
X1594830Y601796D02*
X1600163Y601796D01*
X1600163Y595963D01*
X1599496Y595963D01*
X1598163Y596796D01*
X1596830Y596796D01*
X1595496Y595963D01*
X1594830Y594296D01*
X1594830Y590963D01*
X1595496Y589296D01*
X1596830Y588463D01*
X1598163Y588463D01*
X1599496Y589296D01*
X1600163Y590963D01*
G54D12*
X1585830Y601796D02*
X1591163Y601796D01*
X1591163Y595963D01*
X1590496Y595963D01*
X1589163Y596796D01*
X1587830Y596796D01*
X1586496Y595963D01*
X1585830Y594296D01*
X1585830Y590963D01*
X1586496Y589296D01*
X1587830Y588463D01*
X1589163Y588463D01*
X1590496Y589296D01*
X1591163Y590963D01*
G54D12*
X1582163Y588463D02*
X1580830Y590130D01*
X1580830Y600130D01*
X1579496Y601796D01*
X1576830Y601796D01*
X1576830Y588463D01*
G54D12*
X1573163Y588463D02*
X1569830Y601796D01*
X1566496Y588463D01*
G54D12*
X1571830Y593463D02*
X1567830Y593463D01*
G54D12*
X1562829Y599296D02*
X1562162Y600963D01*
X1560829Y601796D01*
X1559496Y601796D01*
X1558162Y600963D01*
X1557496Y599296D01*
X1557496Y597630D01*
X1558162Y595963D01*
X1559496Y595130D01*
X1558162Y594296D01*
X1557496Y592630D01*
X1557496Y590963D01*
X1558162Y589296D01*
X1559496Y588463D01*
X1560829Y588463D01*
X1562162Y589296D01*
X1562829Y590963D01*
G54D12*
X1271830Y601796D02*
X1277163Y601796D01*
X1277163Y595963D01*
X1276496Y595963D01*
X1275163Y596796D01*
X1273830Y596796D01*
X1272496Y595963D01*
X1271830Y594296D01*
X1271830Y590963D01*
X1272496Y589296D01*
X1273830Y588463D01*
X1275163Y588463D01*
X1276496Y589296D01*
X1277163Y590963D01*
G54D12*
X1262830Y601796D02*
X1268163Y601796D01*
X1268163Y595963D01*
X1267496Y595963D01*
X1266163Y596796D01*
X1264830Y596796D01*
X1263496Y595963D01*
X1262830Y594296D01*
X1262830Y590963D01*
X1263496Y589296D01*
X1264830Y588463D01*
X1266163Y588463D01*
X1267496Y589296D01*
X1268163Y590963D01*
G54D12*
X1253830Y601796D02*
X1259163Y601796D01*
X1259163Y595963D01*
X1258496Y595963D01*
X1257163Y596796D01*
X1255830Y596796D01*
X1254496Y595963D01*
X1253830Y594296D01*
X1253830Y590963D01*
X1254496Y589296D01*
X1255830Y588463D01*
X1257163Y588463D01*
X1258496Y589296D01*
X1259163Y590963D01*
G54D12*
X1250163Y601796D02*
X1250163Y588463D01*
X1244830Y601796D01*
X1244830Y588463D01*
G54D12*
X1241163Y588463D02*
X1241163Y601796D01*
X1237830Y601796D01*
X1236496Y600963D01*
X1235830Y599296D01*
X1235830Y597630D01*
X1236496Y595963D01*
X1237830Y595130D01*
X1241163Y595130D01*
G54D12*
X1232163Y596796D02*
X1228830Y601796D01*
X1228830Y588463D01*
G54D12*
X1219830Y599296D02*
X1220496Y600963D01*
X1221830Y601796D01*
X1223163Y601796D01*
X1224496Y600963D01*
X1225163Y599296D01*
X1225163Y595130D01*
X1225163Y594296D01*
X1223163Y595963D01*
X1221830Y595963D01*
X1220496Y595130D01*
X1219830Y593463D01*
X1219830Y590963D01*
X1220496Y589296D01*
X1221830Y588463D01*
X1223163Y588463D01*
X1224496Y589296D01*
X1225163Y590963D01*
X1225163Y595130D01*
G54D12*
X982163Y736796D02*
X978830Y741796D01*
X978830Y728463D01*
G54D12*
X969830Y741796D02*
X975163Y741796D01*
X975163Y735963D01*
X974496Y735963D01*
X973163Y736796D01*
X971830Y736796D01*
X970496Y735963D01*
X969830Y734296D01*
X969830Y730963D01*
X970496Y729296D01*
X971830Y728463D01*
X973163Y728463D01*
X974496Y729296D01*
X975163Y730963D01*
G54D12*
X960830Y741796D02*
X966163Y741796D01*
X966163Y735963D01*
X965496Y735963D01*
X964163Y736796D01*
X962830Y736796D01*
X961496Y735963D01*
X960830Y734296D01*
X960830Y730963D01*
X961496Y729296D01*
X962830Y728463D01*
X964163Y728463D01*
X965496Y729296D01*
X966163Y730963D01*
G54D12*
X957163Y728463D02*
X955830Y730130D01*
X955830Y740130D01*
X954496Y741796D01*
X951830Y741796D01*
X951830Y728463D01*
G54D12*
X943496Y728463D02*
X948163Y728463D01*
X948163Y741796D01*
X943496Y741796D01*
G54D12*
X948163Y735130D02*
X943496Y735130D01*
G54D12*
X939829Y736796D02*
X936496Y741796D01*
X936496Y728463D01*
G54D12*
X982163Y596796D02*
X978830Y601796D01*
X978830Y588463D01*
G54D12*
X969830Y601796D02*
X975163Y601796D01*
X975163Y595963D01*
X974496Y595963D01*
X973163Y596796D01*
X971830Y596796D01*
X970496Y595963D01*
X969830Y594296D01*
X969830Y590963D01*
X970496Y589296D01*
X971830Y588463D01*
X973163Y588463D01*
X974496Y589296D01*
X975163Y590963D01*
G54D12*
X960830Y601796D02*
X966163Y601796D01*
X966163Y595963D01*
X965496Y595963D01*
X964163Y596796D01*
X962830Y596796D01*
X961496Y595963D01*
X960830Y594296D01*
X960830Y590963D01*
X961496Y589296D01*
X962830Y588463D01*
X964163Y588463D01*
X965496Y589296D01*
X966163Y590963D01*
G54D12*
X957163Y601796D02*
X957163Y588463D01*
X951830Y601796D01*
X951830Y588463D01*
G54D12*
X943496Y588463D02*
X948163Y588463D01*
X948163Y601796D01*
X943496Y601796D01*
G54D12*
X948163Y595130D02*
X943496Y595130D01*
G54D12*
X934496Y601796D02*
X939829Y601796D01*
X939829Y595963D01*
X939162Y595963D01*
X937829Y596796D01*
X936496Y596796D01*
X935162Y595963D01*
X934496Y594296D01*
X934496Y590963D01*
X935162Y589296D01*
X936496Y588463D01*
X937829Y588463D01*
X939162Y589296D01*
X939829Y590963D01*
G54D12*
X982163Y399296D02*
X978830Y404296D01*
X978830Y390963D01*
G54D12*
X969830Y404296D02*
X975163Y404296D01*
X975163Y398463D01*
X974496Y398463D01*
X973163Y399296D01*
X971830Y399296D01*
X970496Y398463D01*
X969830Y396796D01*
X969830Y393463D01*
X970496Y391796D01*
X971830Y390963D01*
X973163Y390963D01*
X974496Y391796D01*
X975163Y393463D01*
G54D12*
X960830Y404296D02*
X966163Y404296D01*
X966163Y398463D01*
X965496Y398463D01*
X964163Y399296D01*
X962830Y399296D01*
X961496Y398463D01*
X960830Y396796D01*
X960830Y393463D01*
X961496Y391796D01*
X962830Y390963D01*
X964163Y390963D01*
X965496Y391796D01*
X966163Y393463D01*
G54D12*
X954496Y390963D02*
X954496Y404296D01*
G54D12*
X957163Y404296D02*
X951830Y404296D01*
G54D12*
X948163Y390963D02*
X948163Y404296D01*
X944830Y395963D01*
X941496Y404296D01*
X941496Y390963D01*
G54D12*
X934496Y397630D02*
X935829Y397630D01*
X937162Y398463D01*
X937829Y400130D01*
X937829Y401796D01*
X937162Y403463D01*
X935829Y404296D01*
X934496Y404296D01*
X933162Y403463D01*
X932496Y401796D01*
X932496Y400130D01*
X933162Y398463D01*
X934496Y397630D01*
X933162Y396796D01*
X932496Y395130D01*
X932496Y393463D01*
X933162Y391796D01*
X934496Y390963D01*
X935829Y390963D01*
X937162Y391796D01*
X937829Y393463D01*
X937829Y395130D01*
X937162Y396796D01*
X935829Y397630D01*
G54D12*
X984663Y281796D02*
X981330Y286796D01*
X981330Y273463D01*
G54D12*
X972330Y286796D02*
X977663Y286796D01*
X977663Y280963D01*
X976996Y280963D01*
X975663Y281796D01*
X974330Y281796D01*
X972996Y280963D01*
X972330Y279296D01*
X972330Y275963D01*
X972996Y274296D01*
X974330Y273463D01*
X975663Y273463D01*
X976996Y274296D01*
X977663Y275963D01*
G54D12*
X963330Y286796D02*
X968663Y286796D01*
X968663Y280963D01*
X967996Y280963D01*
X966663Y281796D01*
X965330Y281796D01*
X963996Y280963D01*
X963330Y279296D01*
X963330Y275963D01*
X963996Y274296D01*
X965330Y273463D01*
X966663Y273463D01*
X967996Y274296D01*
X968663Y275963D01*
G54D12*
X959663Y286796D02*
X959663Y273463D01*
X954330Y286796D01*
X954330Y273463D01*
G54D12*
X950663Y273463D02*
X950663Y275130D01*
X943996Y275130D01*
X943996Y273463D01*
G54D12*
X949330Y275130D02*
X949330Y284296D01*
X947330Y286796D01*
X945330Y286796D01*
X945330Y275130D01*
G54D12*
X936329Y273463D02*
X936329Y286796D01*
X940329Y278463D01*
X940329Y276796D01*
X934996Y276796D01*
G54D12*
X1319663Y281796D02*
X1316330Y286796D01*
X1316330Y273463D01*
G54D12*
X1307330Y286796D02*
X1312663Y286796D01*
X1312663Y280963D01*
X1311996Y280963D01*
X1310663Y281796D01*
X1309330Y281796D01*
X1307996Y280963D01*
X1307330Y279296D01*
X1307330Y275963D01*
X1307996Y274296D01*
X1309330Y273463D01*
X1310663Y273463D01*
X1311996Y274296D01*
X1312663Y275963D01*
G54D12*
X1303663Y284296D02*
X1302996Y285963D01*
X1301663Y286796D01*
X1300330Y286796D01*
X1298996Y285963D01*
X1298330Y284296D01*
X1298330Y282630D01*
X1298996Y280963D01*
X1300330Y280130D01*
X1298996Y279296D01*
X1298330Y277630D01*
X1298330Y275963D01*
X1298996Y274296D01*
X1300330Y273463D01*
X1301663Y273463D01*
X1302996Y274296D01*
X1303663Y275963D01*
G54D12*
X1294663Y284296D02*
X1293996Y285963D01*
X1292663Y286796D01*
X1291330Y286796D01*
X1289996Y285963D01*
X1289330Y284296D01*
X1289330Y282630D01*
X1289996Y280963D01*
X1291330Y280130D01*
X1289996Y279296D01*
X1289330Y277630D01*
X1289330Y275963D01*
X1289996Y274296D01*
X1291330Y273463D01*
X1292663Y273463D01*
X1293996Y274296D01*
X1294663Y275963D01*
G54D12*
X1285663Y286796D02*
X1285663Y273463D01*
X1280330Y286796D01*
X1280330Y273463D01*
G54D12*
X1276663Y273463D02*
X1276663Y275130D01*
X1269996Y275130D01*
X1269996Y273463D01*
G54D12*
X1275330Y275130D02*
X1275330Y284296D01*
X1273330Y286796D01*
X1271330Y286796D01*
X1271330Y275130D01*
G54D12*
X1266329Y284296D02*
X1265662Y285963D01*
X1264329Y286796D01*
X1262996Y286796D01*
X1261662Y285963D01*
X1260996Y284296D01*
X1260996Y282630D01*
X1261662Y280963D01*
X1262996Y280130D01*
X1261662Y279296D01*
X1260996Y277630D01*
X1260996Y275963D01*
X1261662Y274296D01*
X1262996Y273463D01*
X1264329Y273463D01*
X1265662Y274296D01*
X1266329Y275963D01*
G54D12*
X1601830Y286796D02*
X1607163Y286796D01*
X1607163Y280963D01*
X1606496Y280963D01*
X1605163Y281796D01*
X1603830Y281796D01*
X1602496Y280963D01*
X1601830Y279296D01*
X1601830Y275963D01*
X1602496Y274296D01*
X1603830Y273463D01*
X1605163Y273463D01*
X1606496Y274296D01*
X1607163Y275963D01*
G54D12*
X1592830Y286796D02*
X1598163Y286796D01*
X1598163Y280963D01*
X1597496Y280963D01*
X1596163Y281796D01*
X1594830Y281796D01*
X1593496Y280963D01*
X1592830Y279296D01*
X1592830Y275963D01*
X1593496Y274296D01*
X1594830Y273463D01*
X1596163Y273463D01*
X1597496Y274296D01*
X1598163Y275963D01*
G54D12*
X1583830Y286796D02*
X1589163Y286796D01*
X1589163Y280963D01*
X1588496Y280963D01*
X1587163Y281796D01*
X1585830Y281796D01*
X1584496Y280963D01*
X1583830Y279296D01*
X1583830Y275963D01*
X1584496Y274296D01*
X1585830Y273463D01*
X1587163Y273463D01*
X1588496Y274296D01*
X1589163Y275963D01*
G54D12*
X1580163Y286796D02*
X1580163Y273463D01*
X1574830Y286796D01*
X1574830Y273463D01*
G54D12*
X1571163Y273463D02*
X1571163Y286796D01*
X1567830Y286796D01*
X1566496Y285963D01*
X1565830Y284296D01*
X1565830Y282630D01*
X1566496Y280963D01*
X1567830Y280130D01*
X1571163Y280130D01*
G54D12*
X1556830Y273463D02*
X1562163Y273463D01*
X1562163Y274296D01*
X1561496Y275963D01*
X1557496Y280963D01*
X1556830Y282630D01*
X1556830Y284296D01*
X1557496Y285963D01*
X1558830Y286796D01*
X1560163Y286796D01*
X1561496Y285963D01*
X1562163Y284296D01*
G54D12*
X1547830Y273463D02*
X1553163Y273463D01*
X1553163Y274296D01*
X1552496Y275963D01*
X1548496Y280963D01*
X1547830Y282630D01*
X1547830Y284296D01*
X1548496Y285963D01*
X1549830Y286796D01*
X1551163Y286796D01*
X1552496Y285963D01*
X1553163Y284296D01*
G54D12*
X397500Y793333D02*
X394167Y798333D01*
X394167Y785000D01*
G54D12*
X390500Y793333D02*
X387167Y798333D01*
X387167Y785000D01*
G54D12*
X378167Y798333D02*
X383500Y798333D01*
X383500Y792500D01*
X382833Y792500D01*
X381500Y793333D01*
X380167Y793333D01*
X378833Y792500D01*
X378167Y790833D01*
X378167Y787500D01*
X378833Y785833D01*
X380167Y785000D01*
X381500Y785000D01*
X382833Y785833D01*
X383500Y787500D01*
G54D12*
X369167Y785000D02*
X374500Y785000D01*
X374500Y785833D01*
X373833Y787500D01*
X369833Y792500D01*
X369167Y794167D01*
X369167Y795833D01*
X369833Y797500D01*
X371167Y798333D01*
X372500Y798333D01*
X373833Y797500D01*
X374500Y795833D01*
G54D12*
X360167Y795833D02*
X360167Y787500D01*
X360833Y785833D01*
X362167Y785000D01*
X363500Y785000D01*
X364833Y785833D01*
X365500Y787500D01*
X365500Y795833D01*
X364833Y797500D01*
X363500Y798333D01*
X362167Y798333D01*
X360833Y797500D01*
X360167Y795833D01*
G54D12*
X351167Y795833D02*
X351167Y787500D01*
X351833Y785833D01*
X353167Y785000D01*
X354500Y785000D01*
X355833Y785833D01*
X356500Y787500D01*
X356500Y795833D01*
X355833Y797500D01*
X354500Y798333D01*
X353167Y798333D01*
X351833Y797500D01*
X351167Y795833D01*
G54D12*
X457500Y795833D02*
X456833Y797500D01*
X455500Y798333D01*
X454167Y798333D01*
X452833Y797500D01*
X452167Y795833D01*
X452167Y794167D01*
X452833Y792500D01*
X454167Y791667D01*
X452833Y790833D01*
X452167Y789167D01*
X452167Y787500D01*
X452833Y785833D01*
X454167Y785000D01*
X455500Y785000D01*
X456833Y785833D01*
X457500Y787500D01*
G54D12*
X445167Y791667D02*
X446500Y791667D01*
X447833Y792500D01*
X448500Y794167D01*
X448500Y795833D01*
X447833Y797500D01*
X446500Y798333D01*
X445167Y798333D01*
X443833Y797500D01*
X443167Y795833D01*
X443167Y794167D01*
X443833Y792500D01*
X445167Y791667D01*
X443833Y790833D01*
X443167Y789167D01*
X443167Y787500D01*
X443833Y785833D01*
X445167Y785000D01*
X446500Y785000D01*
X447833Y785833D01*
X448500Y787500D01*
X448500Y789167D01*
X447833Y790833D01*
X446500Y791667D01*
G54D12*
X435500Y785000D02*
X435500Y798333D01*
X439500Y790000D01*
X439500Y788333D01*
X434167Y788333D01*
G54D12*
X425167Y795833D02*
X425167Y787500D01*
X425833Y785833D01*
X427167Y785000D01*
X428500Y785000D01*
X429833Y785833D01*
X430500Y787500D01*
X430500Y795833D01*
X429833Y797500D01*
X428500Y798333D01*
X427167Y798333D01*
X425833Y797500D01*
X425167Y795833D01*
G54D12*
X416167Y795833D02*
X416167Y787500D01*
X416833Y785833D01*
X418167Y785000D01*
X419500Y785000D01*
X420833Y785833D01*
X421500Y787500D01*
X421500Y795833D01*
X420833Y797500D01*
X419500Y798333D01*
X418167Y798333D01*
X416833Y797500D01*
X416167Y795833D01*
G54D10*
X405000Y780000D02*
X405000Y792500D01*
X407500Y792500D01*
X402500Y792500D01*
G54D10*
X347500Y792500D02*
X345000Y792500D01*
X345000Y762500D01*
X362500Y762500D01*
G54D10*
X460000Y792500D02*
X462500Y792500D01*
X462500Y762500D01*
X447500Y762500D01*
G54D10*
X345000Y762500D02*
X345000Y712500D01*
X365000Y712500D01*
G54D10*
X462500Y762500D02*
X462500Y712500D01*
X447500Y712500D01*
G54D12*
X787500Y633333D02*
X786167Y632500D01*
X784833Y632500D01*
X783500Y633333D01*
X783500Y635000D01*
X784167Y635833D01*
X786833Y636667D01*
X787500Y637500D01*
X787500Y639167D01*
X786167Y640000D01*
X784833Y640000D01*
X783500Y639167D01*
G54D12*
X779833Y640000D02*
X777166Y632500D01*
X774500Y640000D01*
G54D12*
X777166Y632500D02*
X777833Y630000D01*
X778500Y629167D01*
X779166Y629167D01*
G54D12*
X770833Y633333D02*
X769500Y632500D01*
X768166Y632500D01*
X766833Y633333D01*
X766833Y635000D01*
X767500Y635833D01*
X770166Y636667D01*
X770833Y637500D01*
X770833Y639167D01*
X769500Y640000D01*
X768166Y640000D01*
X766833Y639167D01*
G54D12*
X761833Y645833D02*
X761833Y633333D01*
X761166Y632500D01*
X760499Y632833D01*
G54D12*
X763166Y640000D02*
X760499Y640000D01*
G54D12*
X752832Y633333D02*
X753899Y632500D01*
X755232Y632500D01*
X756565Y633333D01*
X756832Y635000D01*
X756832Y637833D01*
X756165Y639500D01*
X754832Y640000D01*
X753499Y639500D01*
X752832Y638333D01*
X752832Y636667D01*
X756832Y636667D01*
G54D12*
X749165Y632500D02*
X749165Y640000D01*
G54D12*
X749165Y638667D02*
X747832Y640000D01*
X746498Y639500D01*
X745832Y638333D01*
X745832Y632500D01*
G54D12*
X745832Y638667D02*
X744498Y640000D01*
X743165Y639500D01*
X742498Y638333D01*
X742498Y632500D01*
G54D12*
X735031Y632500D02*
X735031Y640000D01*
G54D12*
X735031Y638333D02*
X733698Y640000D01*
X732364Y640000D01*
G54D12*
X724697Y633333D02*
X725764Y632500D01*
X727097Y632500D01*
X728430Y633333D01*
X728697Y635000D01*
X728697Y637833D01*
X728030Y639500D01*
X726697Y640000D01*
X725364Y639500D01*
X724697Y638333D01*
X724697Y636667D01*
X728697Y636667D01*
G54D12*
X721030Y633333D02*
X719697Y632500D01*
X718363Y632500D01*
X717030Y633333D01*
X717030Y635000D01*
X717697Y635833D01*
X720363Y636667D01*
X721030Y637500D01*
X721030Y639167D01*
X719697Y640000D01*
X718363Y640000D01*
X717030Y639167D01*
G54D12*
X709363Y633333D02*
X710430Y632500D01*
X711763Y632500D01*
X713096Y633333D01*
X713363Y635000D01*
X713363Y637833D01*
X712696Y639500D01*
X711363Y640000D01*
X710030Y639500D01*
X709363Y638333D01*
X709363Y636667D01*
X713363Y636667D01*
G54D12*
X704363Y645833D02*
X704363Y633333D01*
X703696Y632500D01*
X703029Y632833D01*
G54D12*
X705696Y640000D02*
X703029Y640000D01*
G54D12*
X1607163Y439296D02*
X1603830Y444296D01*
X1603830Y430963D01*
G54D12*
X1596830Y437630D02*
X1598163Y437630D01*
X1599496Y438463D01*
X1600163Y440130D01*
X1600163Y441796D01*
X1599496Y443463D01*
X1598163Y444296D01*
X1596830Y444296D01*
X1595496Y443463D01*
X1594830Y441796D01*
X1594830Y440130D01*
X1595496Y438463D01*
X1596830Y437630D01*
X1595496Y436796D01*
X1594830Y435130D01*
X1594830Y433463D01*
X1595496Y431796D01*
X1596830Y430963D01*
X1598163Y430963D01*
X1599496Y431796D01*
X1600163Y433463D01*
X1600163Y435130D01*
X1599496Y436796D01*
X1598163Y437630D01*
G54D12*
X1591163Y439296D02*
X1587830Y444296D01*
X1587830Y430963D01*
G54D12*
X1580830Y437630D02*
X1582163Y437630D01*
X1583496Y438463D01*
X1584163Y440130D01*
X1584163Y441796D01*
X1583496Y443463D01*
X1582163Y444296D01*
X1580830Y444296D01*
X1579496Y443463D01*
X1578830Y441796D01*
X1578830Y440130D01*
X1579496Y438463D01*
X1580830Y437630D01*
X1579496Y436796D01*
X1578830Y435130D01*
X1578830Y433463D01*
X1579496Y431796D01*
X1580830Y430963D01*
X1582163Y430963D01*
X1583496Y431796D01*
X1584163Y433463D01*
X1584163Y435130D01*
X1583496Y436796D01*
X1582163Y437630D01*
G54D12*
X1575163Y430963D02*
X1575163Y444296D01*
X1571830Y444296D01*
X1570496Y443463D01*
X1569830Y441796D01*
X1569830Y440130D01*
X1570496Y438463D01*
X1571830Y437630D01*
X1570496Y436796D01*
X1569830Y435130D01*
X1569830Y433463D01*
X1570496Y431796D01*
X1571830Y430963D01*
X1575163Y430963D01*
G54D12*
X1575163Y437630D02*
X1571830Y437630D01*
G54D12*
X1566163Y430963D02*
X1566163Y444296D01*
X1560830Y444296D01*
X1560830Y442630D01*
G54D12*
X1557163Y433463D02*
X1556496Y431796D01*
X1555163Y430963D01*
X1553830Y430963D01*
X1552496Y431796D01*
X1551830Y433463D01*
X1551830Y437630D01*
X1551830Y438463D01*
X1553830Y436796D01*
X1555163Y436796D01*
X1556496Y437630D01*
X1557163Y439296D01*
X1557163Y441796D01*
X1556496Y443463D01*
X1555163Y444296D01*
X1553830Y444296D01*
X1552496Y443463D01*
X1551830Y441796D01*
X1551830Y437630D01*
G54D12*
X1548163Y441796D02*
X1547496Y443463D01*
X1546163Y444296D01*
X1544830Y444296D01*
X1543496Y443463D01*
X1542830Y441796D01*
X1542830Y440130D01*
X1543496Y438463D01*
X1544830Y437630D01*
X1543496Y436796D01*
X1542830Y435130D01*
X1542830Y433463D01*
X1543496Y431796D01*
X1544830Y430963D01*
X1546163Y430963D01*
X1547496Y431796D01*
X1548163Y433463D01*
G54D12*
X614167Y491667D02*
X615500Y491667D01*
X616833Y492500D01*
X617500Y494167D01*
X617500Y495833D01*
X616833Y497500D01*
X615500Y498333D01*
X614167Y498333D01*
X612833Y497500D01*
X612167Y495833D01*
X612167Y494167D01*
X612833Y492500D01*
X614167Y491667D01*
X612833Y490833D01*
X612167Y489167D01*
X612167Y487500D01*
X612833Y485833D01*
X614167Y485000D01*
X615500Y485000D01*
X616833Y485833D01*
X617500Y487500D01*
X617500Y489167D01*
X616833Y490833D01*
X615500Y491667D01*
G54D12*
X603167Y485000D02*
X608500Y485000D01*
X608500Y485833D01*
X607833Y487500D01*
X603833Y492500D01*
X603167Y494167D01*
X603167Y495833D01*
X603833Y497500D01*
X605167Y498333D01*
X606500Y498333D01*
X607833Y497500D01*
X608500Y495833D01*
G54D12*
X594167Y487500D02*
X594833Y485833D01*
X596167Y485000D01*
X597500Y485000D01*
X598833Y485833D01*
X599500Y487500D01*
X599500Y495833D01*
X598833Y497500D01*
X597500Y498333D01*
X596167Y498333D01*
X594833Y497500D01*
X594167Y495833D01*
G54D12*
X585167Y498333D02*
X590500Y498333D01*
X590500Y492500D01*
X589833Y492500D01*
X588500Y493333D01*
X587167Y493333D01*
X585833Y492500D01*
X585167Y490833D01*
X585167Y487500D01*
X585833Y485833D01*
X587167Y485000D01*
X588500Y485000D01*
X589833Y485833D01*
X590500Y487500D01*
G54D12*
X581500Y493333D02*
X578167Y498333D01*
X578167Y485000D01*
G54D12*
X574500Y485000D02*
X571167Y498333D01*
X567833Y485000D01*
G54D12*
X573167Y490000D02*
X569167Y490000D01*
G54D12*
X564166Y490833D02*
X558833Y490833D01*
G54D12*
X549833Y485000D02*
X555166Y485000D01*
X555166Y485833D01*
X554499Y487500D01*
X550499Y492500D01*
X549833Y494167D01*
X549833Y495833D01*
X550499Y497500D01*
X551833Y498333D01*
X553166Y498333D01*
X554499Y497500D01*
X555166Y495833D01*
G54D12*
X657163Y596796D02*
X653830Y601796D01*
X653830Y588463D01*
G54D12*
X644830Y601796D02*
X650163Y601796D01*
X650163Y595963D01*
X649496Y595963D01*
X648163Y596796D01*
X646830Y596796D01*
X645496Y595963D01*
X644830Y594296D01*
X644830Y590963D01*
X645496Y589296D01*
X646830Y588463D01*
X648163Y588463D01*
X649496Y589296D01*
X650163Y590963D01*
G54D12*
X641163Y599296D02*
X640496Y600963D01*
X639163Y601796D01*
X637830Y601796D01*
X636496Y600963D01*
X635830Y599296D01*
X635830Y597630D01*
X636496Y595963D01*
X637830Y595130D01*
X636496Y594296D01*
X635830Y592630D01*
X635830Y590963D01*
X636496Y589296D01*
X637830Y588463D01*
X639163Y588463D01*
X640496Y589296D01*
X641163Y590963D01*
G54D12*
X632163Y599296D02*
X631496Y600963D01*
X630163Y601796D01*
X628830Y601796D01*
X627496Y600963D01*
X626830Y599296D01*
X626830Y597630D01*
X627496Y595963D01*
X628830Y595130D01*
X627496Y594296D01*
X626830Y592630D01*
X626830Y590963D01*
X627496Y589296D01*
X628830Y588463D01*
X630163Y588463D01*
X631496Y589296D01*
X632163Y590963D01*
G54D12*
X623163Y601796D02*
X623163Y588463D01*
X617830Y601796D01*
X617830Y588463D01*
G54D12*
X609496Y588463D02*
X614163Y588463D01*
X614163Y601796D01*
X609496Y601796D01*
G54D12*
X614163Y595130D02*
X609496Y595130D01*
G54D12*
X600496Y601796D02*
X605829Y601796D01*
X605829Y595963D01*
X605162Y595963D01*
X603829Y596796D01*
X602496Y596796D01*
X601162Y595963D01*
X600496Y594296D01*
X600496Y590963D01*
X601162Y589296D01*
X602496Y588463D01*
X603829Y588463D01*
X605162Y589296D01*
X605829Y590963D01*
G54D12*
X413628Y341904D02*
X426961Y341904D01*
X418628Y345237D01*
X426961Y348571D01*
X413628Y348571D01*
G54D12*
X413628Y352238D02*
X426961Y355571D01*
X413628Y358905D01*
G54D12*
X418628Y353571D02*
X418628Y357571D01*
G54D12*
X426961Y362572D02*
X413628Y369239D01*
G54D12*
X413628Y362572D02*
X426961Y369239D01*
G54D12*
X413628Y378239D02*
X413628Y372906D01*
X414461Y372906D01*
X416128Y373573D01*
X421128Y377573D01*
X422794Y378239D01*
X424461Y378239D01*
X426128Y377573D01*
X426961Y376239D01*
X426961Y374906D01*
X426128Y373573D01*
X424461Y372906D01*
G54D12*
X424461Y381906D02*
X426128Y382573D01*
X426961Y383906D01*
X426961Y385239D01*
X426128Y386573D01*
X424461Y387239D01*
X422794Y387239D01*
X421128Y386573D01*
X420294Y385239D01*
X419461Y386573D01*
X417794Y387239D01*
X416128Y387239D01*
X414461Y386573D01*
X413628Y385239D01*
X413628Y383906D01*
X414461Y382573D01*
X416128Y381906D01*
G54D12*
X413628Y396239D02*
X413628Y390906D01*
X414461Y390906D01*
X416128Y391573D01*
X421128Y395573D01*
X422794Y396239D01*
X424461Y396239D01*
X426128Y395573D01*
X426961Y394239D01*
X426961Y392906D01*
X426128Y391573D01*
X424461Y390906D01*
G54D12*
X434846Y412817D02*
X434846Y426151D01*
X431513Y426151D01*
X430179Y425317D01*
X429513Y423651D01*
X429513Y415317D01*
X430179Y413651D01*
X431513Y412817D01*
X434846Y412817D01*
G54D12*
X425846Y412817D02*
X425846Y426151D01*
X422513Y426151D01*
X421179Y425317D01*
X420513Y423651D01*
X420513Y415317D01*
X421179Y413651D01*
X422513Y412817D01*
X425846Y412817D01*
G54D12*
X416846Y421151D02*
X413513Y426151D01*
X413513Y412817D01*
G54D12*
X406513Y419484D02*
X407846Y419484D01*
X409179Y420317D01*
X409846Y421984D01*
X409846Y423651D01*
X409179Y425317D01*
X407846Y426151D01*
X406513Y426151D01*
X405179Y425317D01*
X404513Y423651D01*
X404513Y421984D01*
X405179Y420317D01*
X406513Y419484D01*
X405179Y418651D01*
X404513Y416984D01*
X404513Y415317D01*
X405179Y413651D01*
X406513Y412817D01*
X407846Y412817D01*
X409179Y413651D01*
X409846Y415317D01*
X409846Y416984D01*
X409179Y418651D01*
X407846Y419484D01*
G54D12*
X277163Y544296D02*
X273830Y549296D01*
X273830Y535963D01*
G54D12*
X264830Y549296D02*
X270163Y549296D01*
X270163Y543463D01*
X269496Y543463D01*
X268163Y544296D01*
X266830Y544296D01*
X265496Y543463D01*
X264830Y541796D01*
X264830Y538463D01*
X265496Y536796D01*
X266830Y535963D01*
X268163Y535963D01*
X269496Y536796D01*
X270163Y538463D01*
G54D12*
X261163Y546796D02*
X260496Y548463D01*
X259163Y549296D01*
X257830Y549296D01*
X256496Y548463D01*
X255830Y546796D01*
X255830Y545130D01*
X256496Y543463D01*
X257830Y542630D01*
X256496Y541796D01*
X255830Y540130D01*
X255830Y538463D01*
X256496Y536796D01*
X257830Y535963D01*
X259163Y535963D01*
X260496Y536796D01*
X261163Y538463D01*
G54D12*
X252163Y546796D02*
X251496Y548463D01*
X250163Y549296D01*
X248830Y549296D01*
X247496Y548463D01*
X246830Y546796D01*
X246830Y545130D01*
X247496Y543463D01*
X248830Y542630D01*
X247496Y541796D01*
X246830Y540130D01*
X246830Y538463D01*
X247496Y536796D01*
X248830Y535963D01*
X250163Y535963D01*
X251496Y536796D01*
X252163Y538463D01*
G54D12*
X243163Y535963D02*
X241830Y537630D01*
X241830Y547630D01*
X240496Y549296D01*
X237830Y549296D01*
X237830Y535963D01*
G54D12*
X229496Y535963D02*
X234163Y535963D01*
X234163Y549296D01*
X229496Y549296D01*
G54D12*
X234163Y542630D02*
X229496Y542630D01*
G54D12*
X225829Y544296D02*
X222496Y549296D01*
X222496Y535963D01*
G54D12*
X224330Y449296D02*
X229663Y449296D01*
X229663Y443463D01*
X228996Y443463D01*
X227663Y444296D01*
X226330Y444296D01*
X224996Y443463D01*
X224330Y441796D01*
X224330Y438463D01*
X224996Y436796D01*
X226330Y435963D01*
X227663Y435963D01*
X228996Y436796D01*
X229663Y438463D01*
G54D12*
X220663Y444296D02*
X217330Y449296D01*
X217330Y435963D01*
G54D12*
X208330Y435963D02*
X213663Y435963D01*
X213663Y436796D01*
X212996Y438463D01*
X208996Y443463D01*
X208330Y445130D01*
X208330Y446796D01*
X208996Y448463D01*
X210330Y449296D01*
X211663Y449296D01*
X212996Y448463D01*
X213663Y446796D01*
G54D12*
X204663Y435963D02*
X204663Y449296D01*
X201330Y449296D01*
X199996Y448463D01*
X199330Y446796D01*
X199330Y445130D01*
X199996Y443463D01*
X201330Y442630D01*
X199996Y441796D01*
X199330Y440130D01*
X199330Y438463D01*
X199996Y436796D01*
X201330Y435963D01*
X204663Y435963D01*
G54D12*
X204663Y442630D02*
X201330Y442630D01*
G54D12*
X195663Y449296D02*
X195663Y435963D01*
X190330Y449296D01*
X190330Y435963D01*
G54D12*
X186663Y444296D02*
X183330Y449296D01*
X183330Y435963D01*
G54D10*
X290000Y705000D02*
X280000Y705000D01*
G54D10*
X285000Y710000D02*
X285000Y700000D01*
G54D10*
X117500Y727500D02*
X90000Y727500D01*
X90000Y682500D01*
X117500Y682500D01*
G54D10*
G75*
G01X118104Y682430D02*
G03X118104Y728170I107596J22870D01*
G01*
G54D15*
X596000Y118000D02*
X596000Y144667D01*
G54D15*
X596000Y126333D02*
X580000Y144667D01*
G54D15*
X590000Y131333D02*
X580000Y118000D01*
G54D15*
X572667Y118000D02*
X572667Y144667D01*
G54D15*
X556667Y118000D02*
X556667Y144667D01*
G54D15*
X572667Y131333D02*
X556667Y131333D01*
G54D15*
X549334Y118000D02*
X549334Y144667D01*
X533334Y144667D01*
X533334Y141333D01*
G54D15*
X526001Y118000D02*
X526001Y144667D01*
X516001Y128000D01*
X506001Y144667D01*
X506001Y118000D01*
G54D15*
X498668Y118000D02*
X498668Y121333D01*
X478668Y121333D01*
X478668Y118000D01*
G54D15*
X494668Y121333D02*
X494668Y139667D01*
X488668Y144667D01*
X482668Y144667D01*
X482668Y121333D01*
G54D15*
X471335Y118000D02*
X455335Y144667D01*
G54D15*
X432002Y123000D02*
X434002Y119667D01*
X438002Y118000D01*
X442002Y118000D01*
X446002Y119667D01*
X448002Y123000D01*
X448002Y139667D01*
X446002Y143000D01*
X442002Y144667D01*
X438002Y144667D01*
X434002Y143000D01*
X432002Y139667D01*
G54D15*
X408669Y139667D02*
X408669Y123000D01*
X410669Y119667D01*
X414669Y118000D01*
X418669Y118000D01*
X422669Y119667D01*
X424669Y123000D01*
X424669Y139667D01*
X422669Y143000D01*
X418669Y144667D01*
X414669Y144667D01*
X410669Y143000D01*
X408669Y139667D01*
G54D15*
X401336Y118000D02*
X401336Y144667D01*
X391336Y128000D01*
X381336Y144667D01*
X381336Y118000D01*
G54D15*
X374003Y134667D02*
X364003Y144667D01*
X364003Y118000D01*
G54D15*
X356670Y118000D02*
X340670Y144667D01*
G54D15*
X333337Y144667D02*
X333337Y134667D01*
X329337Y131333D01*
X317337Y131333D01*
G54D15*
X317337Y144667D02*
X317337Y118000D01*
G54D15*
X310004Y131333D02*
X306004Y133000D01*
X301204Y133000D01*
X298004Y129667D01*
X298004Y118000D01*
G54D15*
X298004Y123000D02*
X300004Y126333D01*
X304004Y127000D01*
X308004Y126333D01*
X310004Y123000D01*
X309204Y119667D01*
X306004Y118000D01*
X304004Y118000D01*
X303204Y118000D01*
X300004Y119667D01*
X298004Y123000D01*
G54D15*
X280671Y132000D02*
X284671Y133000D01*
X288671Y132000D01*
X290671Y128667D01*
X290671Y122000D01*
X288671Y118667D01*
X284671Y118000D01*
X280671Y118667D01*
G54D15*
X273338Y133000D02*
X273338Y118000D01*
X267338Y118000D01*
X263338Y121333D01*
X263338Y124667D01*
X267338Y128000D01*
X273338Y128000D01*
G54D15*
X255338Y133000D02*
X255338Y118000D01*
G54D15*
X240272Y118000D02*
X240272Y119667D01*
X228272Y119667D01*
X228272Y118000D01*
G54D15*
X238272Y119667D02*
X238272Y129667D01*
X234272Y133000D01*
X230272Y133000D01*
X230272Y119667D01*
G54D15*
X220939Y118000D02*
X218939Y119667D01*
X218939Y129667D01*
X214939Y133000D01*
X208939Y133000D01*
X208939Y118000D01*
G54D15*
X201606Y118000D02*
X193606Y126333D01*
X189606Y126333D01*
X197606Y126333D01*
X199606Y128000D01*
X199606Y131333D01*
X197606Y133000D01*
X189606Y133000D01*
X189606Y118000D01*
G54D15*
X158540Y139667D02*
X158540Y123000D01*
X160540Y119667D01*
X164540Y118000D01*
X168540Y118000D01*
X172540Y119667D01*
X174540Y123000D01*
X174540Y139667D01*
X172540Y143000D01*
X168540Y144667D01*
X164540Y144667D01*
X160540Y143000D01*
X158540Y139667D01*
G54D15*
X151207Y133000D02*
X151207Y111333D01*
G54D15*
X151207Y123000D02*
X149207Y118667D01*
X145207Y118000D01*
X141207Y118667D01*
X139207Y122000D01*
X139207Y128667D01*
X141207Y132000D01*
X145207Y133000D01*
X149207Y132000D01*
X151207Y128000D01*
G54D15*
X131874Y133000D02*
X131874Y118000D01*
X119874Y133000D01*
X119874Y118000D01*
G54D15*
X100541Y122000D02*
X100541Y128667D01*
X102541Y132000D01*
X106541Y133000D01*
X110541Y132000D01*
X112541Y128667D01*
X112541Y122000D01*
X110541Y118667D01*
X106541Y118000D01*
X102541Y118667D01*
X100541Y122000D01*
G54D15*
X93208Y118000D02*
X93208Y133000D01*
G54D15*
X93208Y126333D02*
X81208Y126333D01*
G54D15*
X81208Y118000D02*
X81208Y133000D01*
G54D15*
X73875Y129667D02*
X57875Y129667D01*
G54D15*
X50542Y134667D02*
X40542Y144667D01*
X40542Y118000D01*
G54D15*
X17209Y118000D02*
X33209Y118000D01*
X33209Y119667D01*
X31209Y123000D01*
X19209Y133000D01*
X17209Y136333D01*
X17209Y139667D01*
X19209Y143000D01*
X23209Y144667D01*
X27209Y144667D01*
X31209Y143000D01*
X33209Y139667D01*
G54D15*
X-124Y131333D02*
X3876Y131333D01*
X7876Y133000D01*
X9876Y136333D01*
X9876Y139667D01*
X7876Y143000D01*
X3876Y144667D01*
X-124Y144667D01*
X-4124Y143000D01*
X-6124Y139667D01*
X-6124Y136333D01*
X-4124Y133000D01*
X-124Y131333D01*
X-4124Y129667D01*
X-6124Y126333D01*
X-6124Y123000D01*
X-4124Y119667D01*
X-124Y118000D01*
X3876Y118000D01*
X7876Y119667D01*
X9876Y123000D01*
X9876Y126333D01*
X7876Y129667D01*
X3876Y131333D01*
G54D15*
X-15057Y118000D02*
X-13457Y118000D01*
X-13457Y119333D01*
X-15057Y119333D01*
X-15057Y118000D01*
X-13457Y118000D01*
G54D15*
X-38390Y118000D02*
X-22390Y118000D01*
X-22390Y119667D01*
X-24390Y123000D01*
X-36390Y133000D01*
X-38390Y136333D01*
X-38390Y139667D01*
X-36390Y143000D01*
X-32390Y144667D01*
X-28390Y144667D01*
X-24390Y143000D01*
X-22390Y139667D01*
G54D16*
X385036Y-296323D02*
X382236Y-298657D01*
X381302Y-300990D01*
X381302Y-305657D01*
G54D16*
X388769Y-305657D02*
X388769Y-286990D01*
X384102Y-286990D01*
X382236Y-288157D01*
X381302Y-290490D01*
X381302Y-292823D01*
X382236Y-295157D01*
X384102Y-296323D01*
X388769Y-296323D01*
G54D16*
X368702Y-305657D02*
X376169Y-305657D01*
X376169Y-304490D01*
X375236Y-302157D01*
X369636Y-295157D01*
X368702Y-292823D01*
X368702Y-290490D01*
X369636Y-288157D01*
X371502Y-286990D01*
X373369Y-286990D01*
X375236Y-288157D01*
X376169Y-290490D01*
G54D16*
X549563Y-292990D02*
X544896Y-311657D01*
X540229Y-292990D01*
G54D16*
X535097Y-311657D02*
X535097Y-292990D01*
X530430Y-292990D01*
X528563Y-294157D01*
X527630Y-296490D01*
X527630Y-308157D01*
X528563Y-310490D01*
X530430Y-311657D01*
X535097Y-311657D01*
G54D16*
X515030Y-311657D02*
X522497Y-311657D01*
X522497Y-310490D01*
X521563Y-308157D01*
X515963Y-301157D01*
X515030Y-298823D01*
X515030Y-296490D01*
X515963Y-294157D01*
X517830Y-292990D01*
X519697Y-292990D01*
X521563Y-294157D01*
X522497Y-296490D01*
G54D16*
X687928Y-199036D02*
X669261Y-194369D01*
X687928Y-189703D01*
G54D16*
X669261Y-184570D02*
X687928Y-184570D01*
X687928Y-179903D01*
X686761Y-178037D01*
X684428Y-177103D01*
X672761Y-177103D01*
X670428Y-178037D01*
X669261Y-179903D01*
X669261Y-184570D01*
G54D16*
X684428Y-171970D02*
X686761Y-171037D01*
X687928Y-169170D01*
X687928Y-167303D01*
X686761Y-165437D01*
X684428Y-164503D01*
X682094Y-164503D01*
X679761Y-165437D01*
X678594Y-167303D01*
X677428Y-165437D01*
X675094Y-164503D01*
X672761Y-164503D01*
X670428Y-165437D01*
X669261Y-167303D01*
X669261Y-169170D01*
X670428Y-171037D01*
X672761Y-171970D01*
G54D16*
X623785Y-48998D02*
X605118Y-44331D01*
X623785Y-39665D01*
G54D16*
X605118Y-34532D02*
X623785Y-34532D01*
X623785Y-29865D01*
X622618Y-27999D01*
X620285Y-27065D01*
X608618Y-27065D01*
X606285Y-27999D01*
X605118Y-29865D01*
X605118Y-34532D01*
G54D16*
X605118Y-16332D02*
X623785Y-16332D01*
X612118Y-21932D01*
X609785Y-21932D01*
X609785Y-14465D01*
G54D16*
X705781Y-50201D02*
X687114Y-45535D01*
X705781Y-40868D01*
G54D16*
X687114Y-35735D02*
X705781Y-35735D01*
X705781Y-31069D01*
X704614Y-29202D01*
X702281Y-28269D01*
X690614Y-28269D01*
X688281Y-29202D01*
X687114Y-31069D01*
X687114Y-35735D01*
G54D16*
X705781Y-15669D02*
X705781Y-23135D01*
X697614Y-23135D01*
X697614Y-22202D01*
X698781Y-20335D01*
X698781Y-18469D01*
X697614Y-16602D01*
X695281Y-15669D01*
X690614Y-15669D01*
X688281Y-16602D01*
X687114Y-18469D01*
X687114Y-20335D01*
X688281Y-22202D01*
X690614Y-23135D01*
G54D16*
X367726Y20734D02*
X364926Y18401D01*
X363993Y16068D01*
X363993Y11401D01*
G54D16*
X371459Y11401D02*
X371459Y30068D01*
X366793Y30068D01*
X364926Y28901D01*
X363993Y26568D01*
X363993Y24234D01*
X364926Y21901D01*
X366793Y20734D01*
X371459Y20734D01*
G54D16*
X358859Y23068D02*
X354193Y30068D01*
X354193Y11401D01*
G54D16*
X450566Y28286D02*
X445899Y9620D01*
X441232Y28286D01*
G54D16*
X436100Y9620D02*
X436100Y28286D01*
X431433Y28286D01*
X429566Y27120D01*
X428633Y24786D01*
X428633Y13120D01*
X429566Y10786D01*
X431433Y9620D01*
X436100Y9620D01*
G54D16*
X423500Y21286D02*
X418833Y28286D01*
X418833Y9620D01*
G54D14*
X528000Y-320902D02*
X523000Y-324502D01*
X528000Y-327302D01*
G54D14*
X657226Y-179668D02*
X660826Y-184668D01*
X663626Y-179668D01*
G54D14*
X584926Y-29868D02*
X588526Y-34868D01*
X591326Y-29868D01*
G54D14*
X665326Y-29668D02*
X668926Y-34668D01*
X671726Y-29668D01*
M02*
